<svg xmlns="http://www.w3.org/2000/svg" width="115.453" height="115.453" viewBox="0 0 115.453 115.453">
  <path id="demand" d="M29.773,77.657V58.124a1.636,1.636,0,0,0-1.636-1.636h-17.5A1.636,1.636,0,0,0,9,58.124V77.657a1.636,1.636,0,0,0,1.636,1.636h17.5A1.636,1.636,0,0,0,29.773,77.657ZM26.5,76.021H12.272V59.76H26.5Zm96.316-51.06h-17.5A1.636,1.636,0,0,0,103.68,26.6v51.06a1.636,1.636,0,0,0,1.636,1.636h17.5a1.636,1.636,0,0,0,1.636-1.636V26.6A1.636,1.636,0,0,0,122.817,24.961Zm-1.636,51.06H106.952V28.233h14.229ZM28.715,42.564a1.636,1.636,0,0,1,.94-2.114L99.338,13.69l-4.518-1.5a1.636,1.636,0,1,1,1.033-3.105l8.854,2.944a1.636,1.636,0,0,1,.906,2.36L101.006,22.5a1.636,1.636,0,0,1-2.845-1.615l2.352-4.142L30.828,43.5a1.634,1.634,0,0,1-2.114-.94ZM91.871,94.047A10,10,0,0,0,92.893,74.1v-37a1.636,1.636,0,0,0-1.636-1.636h-17.5a1.636,1.636,0,0,0-1.636,1.636V64.866a9.964,9.964,0,0,0-10.787,0V47.615A1.636,1.636,0,0,0,59.7,45.979H42.2a1.636,1.636,0,0,0-1.636,1.636V74.1a10,10,0,1,0,9.816,5.19h8.371a9.986,9.986,0,0,0,15.959,0h8.371a9.995,9.995,0,0,0,8.793,14.753Zm6.726-10a6.726,6.726,0,1,1-6.726-6.725A6.734,6.734,0,0,1,98.6,84.049ZM41.584,90.775a6.726,6.726,0,1,1,6.726-6.726A6.734,6.734,0,0,1,41.584,90.775Zm5.952-14.753a9.959,9.959,0,0,0-3.7-1.712V49.251H58.061V68.3a9.955,9.955,0,0,0-.946,7.72ZM66.727,80a6.726,6.726,0,1,1,6.726-6.726A6.734,6.734,0,0,1,66.727,80Zm8.665-11.7V38.742H89.621V74.31a9.96,9.96,0,0,0-3.7,1.711H76.339a9.954,9.954,0,0,0-.947-7.722ZM91.871,95.594A19.625,19.625,0,0,0,84.9,96.869a19.734,19.734,0,0,0-36.349,0,19.722,19.722,0,0,0-26.7,18.453c0,2.135,1.167,5.109,6.725,7.156a39.056,39.056,0,0,0,13,1.974c9.82,0,19.729-2.823,19.729-9.13,0-.658-.034-1.308-.1-1.95a48.8,48.8,0,0,0,11.023,0c-.063.642-.1,1.292-.1,1.95,0,2.135,1.167,5.109,6.725,7.156a39.063,39.063,0,0,0,13,1.974c9.821,0,19.729-2.823,19.729-9.13A19.751,19.751,0,0,0,91.871,95.594ZM41.583,121.18c-9.228,0-16.457-2.573-16.457-5.858a16.457,16.457,0,0,1,32.914,0C58.04,118.607,50.811,121.18,41.583,121.18Zm18.992-11.188a19.807,19.807,0,0,0-9.069-11.711,16.465,16.465,0,0,1,30.442,0,19.806,19.806,0,0,0-9.069,11.711A46.081,46.081,0,0,1,60.575,109.992Zm31.3,11.188c-9.228,0-16.457-2.573-16.457-5.858a16.457,16.457,0,0,1,32.914,0C108.327,118.607,101.1,121.18,91.87,121.18Z" transform="translate(-9 -8.999)" fill="#1bb999"/>
</svg>
