<svg xmlns="http://www.w3.org/2000/svg" width="143.282" height="122.274" viewBox="0 0 143.282 122.274">
  <path id="enhance" d="M142.306,77.729h-3.252a40.721,40.721,0,0,0-3.789-9.152l2.3-2.3a4.983,4.983,0,0,0,0-7.036l-8.586-8.586a4.993,4.993,0,0,0-7.024,0l-2.3,2.3a41.057,41.057,0,0,0-9.157-3.783v-3.26a4.974,4.974,0,0,0-4.968-4.968H93.39a4.978,4.978,0,0,0-4.976,4.968v3.259a40.694,40.694,0,0,0-9.15,3.784l-2.3-2.3a4.984,4.984,0,0,0-7.024,0l-8.582,8.582a4.98,4.98,0,0,0,0,7.034l2.295,2.3a40.651,40.651,0,0,0-3.785,9.152H56.6a4.978,4.978,0,0,0-4.968,4.976v3.708A26.361,26.361,0,0,0,21.114,125.5c.625.99,1.226,1.925,1.8,2.821a64.449,64.449,0,0,1,6.106,10.945v8.121a6.411,6.411,0,0,0,4.07,5.96v3.21c0,2.182,1.288,4.041,3.627,5.235a15.091,15.091,0,0,0,6.709,1.425c6.085,0,10.335-2.739,10.335-6.661V153.35a6.411,6.411,0,0,0,4.062-5.957v-8.121a64.47,64.47,0,0,1,6.106-10.945c.576-.9,1.176-1.831,1.8-2.822q.554-.877,1.031-1.792l3.168,3.163a4.92,4.92,0,0,0,3.507,1.458h.008a4.939,4.939,0,0,0,3.517-1.454l2.3-2.3a40.741,40.741,0,0,0,9.152,3.788v3.253A4.982,4.982,0,0,0,93.39,136.6h12.136a4.978,4.978,0,0,0,4.968-4.976v-3.252a41.07,41.07,0,0,0,9.158-3.791l2.3,2.3a4.975,4.975,0,0,0,7.028,0l8.582-8.582a4.972,4.972,0,0,0,0-7.028l-2.3-2.3a41.064,41.064,0,0,0,3.791-9.158h3.252a4.978,4.978,0,0,0,4.976-4.968V82.706a4.982,4.982,0,0,0-4.976-4.976ZM43.427,159.814c-3.4,0-6.926-1.216-6.926-3.252v-2.768H50.353v2.768c0,2.035-3.522,3.252-6.926,3.252Zm10.988-12.422a3,3,0,0,1-2.994,2.994h-16a3,3,0,0,1-2.994-2.994v-6.749H54.415ZM40.288,137.234v-18.97h6.278v18.97Zm22.561-13.55c-.62.982-1.216,1.91-1.787,2.8a70.95,70.95,0,0,0-6.084,10.751h-5v-18.97h3.574a6.987,6.987,0,1,0-6.983-6.991v3.582H40.288v-3.582a6.991,6.991,0,1,0-6.991,6.991h3.582v18.97H31.868a70.972,70.972,0,0,0-6.084-10.751c-.571-.889-1.167-1.817-1.786-2.8a22.951,22.951,0,1,1,38.852,0Zm-12.875-8.829v-3.582a3.578,3.578,0,1,1,3.574,3.582Zm-13.095,0H33.3a3.578,3.578,0,1,1,3.582-3.582ZM143.873,94.842a1.565,1.565,0,0,1-1.568,1.559h-4.569a1.7,1.7,0,0,0-1.656,1.3,37.678,37.678,0,0,1-4.41,10.655,1.7,1.7,0,0,0,.252,2.09l3.235,3.235a1.533,1.533,0,0,1,.452,1.094,1.552,1.552,0,0,1-.456,1.109l-8.582,8.582a1.564,1.564,0,0,1-2.207,0l-3.232-3.232a1.7,1.7,0,0,0-2.09-.252,37.682,37.682,0,0,1-10.655,4.41,1.7,1.7,0,0,0-1.3,1.656v4.569a1.565,1.565,0,0,1-1.559,1.568H93.391a1.57,1.57,0,0,1-1.568-1.568v-4.569a1.7,1.7,0,0,0-1.3-1.656,37.37,37.37,0,0,1-10.644-4.408,1.7,1.7,0,0,0-2.093.25l-3.232,3.232a1.553,1.553,0,0,1-1.107.456h0a1.537,1.537,0,0,1-1.1-.457l-4.109-4.1a26.362,26.362,0,0,0-13.192-32.56v-5.1A1.565,1.565,0,0,1,56.6,81.138H61.18a1.7,1.7,0,0,0,1.657-1.3,37.286,37.286,0,0,1,4.4-10.643,1.7,1.7,0,0,0-.25-2.09l-3.225-3.233a1.574,1.574,0,0,1,0-2.215l8.582-8.582a1.587,1.587,0,0,1,2.207,0L77.784,56.3a1.7,1.7,0,0,0,2.091.251,37.318,37.318,0,0,1,10.643-4.4,1.7,1.7,0,0,0,1.3-1.657V45.918a1.565,1.565,0,0,1,1.568-1.559h12.136a1.561,1.561,0,0,1,1.559,1.559V50.5a1.7,1.7,0,0,0,1.3,1.656,37.677,37.677,0,0,1,10.655,4.4,1.7,1.7,0,0,0,2.09-.252l3.228-3.228a1.573,1.573,0,0,1,2.211,0l8.582,8.583a1.573,1.573,0,0,1,0,2.215L131.922,67.1a1.7,1.7,0,0,0-.25,2.093,37.319,37.319,0,0,1,4.408,10.644,1.7,1.7,0,0,0,1.656,1.3h4.569a1.57,1.57,0,0,1,1.568,1.568V94.841ZM118.5,69.727a26.915,26.915,0,1,0,0,38.086,26.969,26.969,0,0,0,0-38.086Zm-2.41,35.675a23.508,23.508,0,1,1,0-33.265,23.555,23.555,0,0,1,0,33.265Zm.046-25.456a1.664,1.664,0,0,1-.026.272c0,.007,0,.014,0,.021a1.692,1.692,0,0,1-.064.235l-2.031,5.786a1.7,1.7,0,0,1-3.28-.24l-9.05,9.045a1.7,1.7,0,0,1-2.41,0l-4.9-4.9-8.675,8.681a1.7,1.7,0,1,1-2.411-2.409l9.88-9.888a1.7,1.7,0,0,1,2.41,0l4.9,4.9,7.948-7.942a1.7,1.7,0,0,1-.353-3.315l5.834-1.9c.051-.016.1-.027.154-.038.022,0,.043-.012.065-.016a1.689,1.689,0,0,1,.284-.027c.027,0,.053,0,.08,0a1.652,1.652,0,0,1,.218.021c.029,0,.058.009.087.015a1.68,1.68,0,0,1,.274.082c.013.005.025.013.038.018a1.693,1.693,0,0,1,.228.12c.024.015.048.031.072.048a1.732,1.732,0,0,1,.212.173l.021.017,0,.005.009.008a1.684,1.684,0,0,1,.184.228c.016.024.03.047.045.072a1.641,1.641,0,0,1,.107.2c.01.023.022.045.031.069a1.687,1.687,0,0,1,.081.275c0,.022.007.045.01.068a1.685,1.685,0,0,1,.022.23c0,.028,0,.055,0,.082ZM41.924,78.386V73.745a1.7,1.7,0,0,1,3.409,0v4.642a1.7,1.7,0,1,1-3.409,0ZM23.263,79.545a1.7,1.7,0,1,1,2.952-1.7l2.321,4.021a1.7,1.7,0,1,1-2.952,1.7ZM16.35,95.6a1.7,1.7,0,0,1-2.328.622L10.009,93.9a1.7,1.7,0,1,1,1.706-2.95l4.013,2.321A1.7,1.7,0,0,1,16.35,95.6Zm-6,17.363H5.7a1.7,1.7,0,1,1,0-3.409h4.642a1.7,1.7,0,1,1,0,3.409Zm5.8,14.011a1.7,1.7,0,0,1-.622,2.329l-4.013,2.321a1.7,1.7,0,1,1-1.707-2.95l4.013-2.321a1.7,1.7,0,0,1,2.329.622Z" transform="translate(-4 -40.95)" fill="#1180ae"/>
</svg>
