<svg xmlns="http://www.w3.org/2000/svg" width="117.727" height="116.863" viewBox="0 0 117.727 116.863">
  <g id="Group_2830" data-name="Group 2830" transform="translate(0 -1.881)">
    <path id="Path_6240" data-name="Path 6240" d="M150.424,385.149a1.722,1.722,0,0,0-2.582,2.28l5.562,6.3v18.1a1.722,1.722,0,1,0,3.445,0v-18.75a1.723,1.723,0,0,0-.431-1.14Z" transform="translate(-113.559 -294.807)" fill="#1180ae"/>
    <path id="Path_6241" data-name="Path 6241" d="M80.9,236.506a17.95,17.95,0,0,1-2.718-19.717l2.327-4.826a1.722,1.722,0,1,0-3.1-1.5l-2.327,4.826a21.388,21.388,0,0,0,3.238,23.492l7.2,8.153a1.722,1.722,0,0,0,2.583-2.279Z" transform="translate(-56.195 -159.937)" fill="#1180ae"/>
    <path id="Path_6242" data-name="Path 6242" d="M164.162,99.782a8.219,8.219,0,0,0-5.713,2.306,8.236,8.236,0,0,0-13.145-2.1,8.238,8.238,0,0,0-13.039-1.947,8.248,8.248,0,0,0-15.517,3.9v7.219a11.7,11.7,0,0,0-10.192,5.162,1.722,1.722,0,0,0,2.855,1.928,8.272,8.272,0,0,1,10.8-2.658l20.669,11.1a3.3,3.3,0,0,1,0,5.806l-2.711,1.458a13.5,13.5,0,0,1-12.4.191l-6.266-3.124a1.722,1.722,0,0,0-1.537,3.083l6.266,3.124a16.949,16.949,0,0,0,15.566-.239l.207-.111,3.435,4.135a10.569,10.569,0,0,1,2.435,6.741v9.918a1.722,1.722,0,1,0,3.445,0v-9.918a14.022,14.022,0,0,0-3.229-8.942l-3.013-3.627a6.721,6.721,0,0,0,2.329-8.472,8.224,8.224,0,0,0,11.559-.162,8.238,8.238,0,0,0,10.852,3.36v4.106a1.722,1.722,0,1,0,3.445,0v-7.308a8.2,8.2,0,0,0,1.147-4.189V108.032A8.259,8.259,0,0,0,164.162,99.782Zm-43.969,10.051v-7.887a4.805,4.805,0,1,1,9.61,0v12.89l-7.962-4.274A11.974,11.974,0,0,0,120.193,109.833Zm13.055,6.852V103.917a4.805,4.805,0,1,1,9.61,0v14.84a4.805,4.805,0,0,1-.8,2.655Zm17.86,6.878a4.811,4.811,0,0,1-4.805-4.805V105.845a4.805,4.805,0,0,1,9.61,0v12.913A4.811,4.811,0,0,1,151.107,123.563Zm13.055,1.763a4.811,4.811,0,0,1-4.805-4.805V108.032a4.805,4.805,0,0,1,9.61,0v12.489A4.811,4.811,0,0,1,164.162,125.326Z" transform="translate(-81.86 -70.731)" fill="#1180ae"/>
    <path id="Path_6243" data-name="Path 6243" d="M358.647,285.042a1.722,1.722,0,0,0-1.722,1.722v15.609a14.575,14.575,0,0,1-2,7.358l-2.61,4.459a4.253,4.253,0,0,0-.583,2.148v18.821a1.722,1.722,0,0,0,3.445,0V316.337a.806.806,0,0,1,.11-.407l2.61-4.459a18.023,18.023,0,0,0,2.468-9.1V286.765A1.722,1.722,0,0,0,358.647,285.042Z" transform="translate(-270.965 -218.137)" fill="#1180ae"/>
    <path id="Path_6244" data-name="Path 6244" d="M337.727,18.4a1.722,1.722,0,0,0,2.38-.516l8.587-13.344a1.722,1.722,0,1,0-2.9-1.864l-8.587,13.344A1.722,1.722,0,0,0,337.727,18.4Z" transform="translate(-259.564 0)" fill="#1180ae"/>
    <path id="Path_6245" data-name="Path 6245" d="M415.183,32.1a1.722,1.722,0,0,0,2.418-.292L436.693,7.473a1.722,1.722,0,1,0-2.71-2.126L414.891,29.686A1.722,1.722,0,0,0,415.183,32.1Z" transform="translate(-319.334 -2.162)" fill="#1180ae"/>
    <path id="Path_6246" data-name="Path 6246" d="M472.848,198.219l-7.661,4.26a1.722,1.722,0,1,0,1.674,3.01l7.661-4.26a1.722,1.722,0,1,0-1.674-3.01Z" transform="translate(-357.681 -151.084)" fill="#1180ae"/>
    <path id="Path_6247" data-name="Path 6247" d="M474.341,321.522l-7.428-4.483a1.722,1.722,0,1,0-1.78,2.949l7.428,4.483a1.722,1.722,0,1,0,1.78-2.949Z" transform="translate(-357.68 -242.596)" fill="#1180ae"/>
    <path id="Path_6248" data-name="Path 6248" d="M408.218,384.879a1.722,1.722,0,0,0-2.619,2.238l2.761,3.231a1.722,1.722,0,0,0,2.619-2.238Z" transform="translate(-312.141 -294.583)" fill="#1180ae"/>
    <path id="Path_6249" data-name="Path 6249" d="M441.639,423.994a1.722,1.722,0,0,0-2.619,2.238l9.614,11.252a1.722,1.722,0,1,0,2.619-2.238Z" transform="translate(-337.887 -324.715)" fill="#1180ae"/>
    <path id="Path_6250" data-name="Path 6250" d="M278.68,23.3a1.72,1.72,0,0,0,2.178-1.091l1.9-5.719A1.722,1.722,0,1,0,279.49,15.4l-1.9,5.719A1.722,1.722,0,0,0,278.68,23.3Z" transform="translate(-213.776 -9.51)" fill="#1180ae"/>
    <path id="Path_6251" data-name="Path 6251" d="M132.194,17.879a1.722,1.722,0,1,0,2.9-1.864L126.5,2.671a1.722,1.722,0,1,0-2.9,1.864Z" transform="translate(-95.011 0)" fill="#1180ae"/>
    <path id="Path_6252" data-name="Path 6252" d="M19.927,31.051a1.722,1.722,0,1,0,2.7-2.145L3.071,4.338a1.722,1.722,0,1,0-2.7,2.145Z" transform="translate(0 -1.392)" fill="#1180ae"/>
    <path id="Path_6253" data-name="Path 6253" d="M9.043,205.51a1.722,1.722,0,1,0,1.6-3.05l-8.12-4.26a1.722,1.722,0,1,0-1.6,3.05Z" transform="translate(0 -151.085)" fill="#1180ae"/>
    <path id="Path_6254" data-name="Path 6254" d="M13.64,317.625a1.722,1.722,0,0,0-2.365-.585l-7.428,4.482a1.722,1.722,0,1,0,1.78,2.949l7.428-4.482A1.722,1.722,0,0,0,13.64,317.625Z" transform="translate(-2.322 -242.596)" fill="#1180ae"/>
    <path id="Path_6255" data-name="Path 6255" d="M88.058,384.688a1.722,1.722,0,0,0-2.428.191l-2.761,3.231a1.722,1.722,0,0,0,2.619,2.238l2.761-3.231A1.722,1.722,0,0,0,88.058,384.688Z" transform="translate(-63.521 -294.582)" fill="#1180ae"/>
    <path id="Path_6256" data-name="Path 6256" d="M31.646,423.8a1.722,1.722,0,0,0-2.428.191L19.6,435.246a1.722,1.722,0,0,0,2.619,2.238l9.614-11.252a1.722,1.722,0,0,0-.191-2.428Z" transform="translate(-14.783 -324.715)" fill="#1180ae"/>
    <path id="Path_6257" data-name="Path 6257" d="M213.87,22.211a1.722,1.722,0,1,0,3.269-1.087l-1.9-5.719a1.722,1.722,0,0,0-3.269,1.087Z" transform="translate(-163.225 -9.51)" fill="#1180ae"/>
  </g>
</svg>
