<svg id="Group_2701" data-name="Group 2701" xmlns="http://www.w3.org/2000/svg" width="113.24" height="124.98" viewBox="0 0 113.24 124.98">
  <path id="Path_6223" data-name="Path 6223" d="M87.861,304.611h-5.87a1.831,1.831,0,1,0,0,3.661h5.87a1.831,1.831,0,1,0,0-3.661Z" transform="translate(-66.463 -230.255)" fill="#1180ae"/>
  <path id="Path_6224" data-name="Path 6224" d="M87.861,344.691h-5.87a1.831,1.831,0,0,0,0,3.662h5.87a1.831,1.831,0,0,0,0-3.662Z" transform="translate(-66.463 -260.551)" fill="#1180ae"/>
  <path id="Path_6225" data-name="Path 6225" d="M87.861,384.772h-5.87a1.831,1.831,0,0,0,0,3.662h5.87a1.831,1.831,0,0,0,0-3.662Z" transform="translate(-66.463 -290.848)" fill="#1180ae"/>
  <path id="Path_6226" data-name="Path 6226" d="M146.12,308.272h31.308a1.831,1.831,0,1,0,0-3.661H146.12a1.831,1.831,0,1,0,0,3.661Z" transform="translate(-114.938 -230.255)" fill="#1180ae"/>
  <path id="Path_6227" data-name="Path 6227" d="M179.259,346.522a1.831,1.831,0,0,0-1.831-1.831H146.12a1.831,1.831,0,0,0,0,3.662h31.308A1.831,1.831,0,0,0,179.259,346.522Z" transform="translate(-114.938 -260.551)" fill="#1180ae"/>
  <path id="Path_6228" data-name="Path 6228" d="M171.558,384.772H146.12a1.831,1.831,0,0,0,0,3.662h25.438a1.831,1.831,0,0,0,0-3.662Z" transform="translate(-114.938 -290.848)" fill="#1180ae"/>
  <path id="Path_6229" data-name="Path 6229" d="M318.124,309.552a21.093,21.093,0,0,0,3.28-11.126,1.831,1.831,0,0,0-1.831-1.831H292.178a1.831,1.831,0,0,0-1.831,1.831,21.092,21.092,0,0,0,3.28,11.127,25.379,25.379,0,0,0-3.593,2.412,1.831,1.831,0,0,0,2.292,2.855A21.733,21.733,0,0,1,296.913,312h5.542l-5.93,8.894a1.831,1.831,0,1,0,3.046,2.031l6.3-9.456,6.3,9.456a1.831,1.831,0,1,0,3.046-2.031L309.3,312h5.541a21.6,21.6,0,0,1,9.654,30.712,5.914,5.914,0,0,1-5.091,2.8H292.35a5.914,5.914,0,0,1-5.091-2.8,21.577,21.577,0,0,1,.3-22.558,1.831,1.831,0,1,0-3.094-1.958,25.239,25.239,0,0,0-.353,26.391,9.591,9.591,0,0,0,8.236,4.591H319.4a9.591,9.591,0,0,0,8.236-4.591,25.259,25.259,0,0,0-9.514-35.032Zm-3.594-1.217H297.222a17.933,17.933,0,0,1-3.107-8.079h23.522A17.934,17.934,0,0,1,314.53,308.335Z" transform="translate(-217.948 -224.196)" fill="#1180ae"/>
  <path id="Path_6230" data-name="Path 6230" d="M107.114,153.757a17.485,17.485,0,1,0-17.485,17.485A17.5,17.5,0,0,0,107.114,153.757ZM81.241,164.734l8.388-8.388,8.388,8.388a13.783,13.783,0,0,1-16.776,0Zm-5.31-9.146h9.279l-6.557,6.557A13.75,13.75,0,0,1,75.93,155.588Zm13.7-15.654a13.813,13.813,0,0,1,10.977,22.211l-9.683-9.683a1.826,1.826,0,0,0-1.3-.536H75.93A13.841,13.841,0,0,1,89.629,139.934Z" transform="translate(-60.403 -103.008)" fill="#1180ae"/>
  <path id="Path_6231" data-name="Path 6231" d="M238.211,163.793a5.744,5.744,0,1,0-5.744-5.744A5.751,5.751,0,0,0,238.211,163.793Zm0-7.827a2.083,2.083,0,1,1-2.083,2.083A2.085,2.085,0,0,1,238.211,155.966Z" transform="translate(-181.591 -115.127)" fill="#1180ae"/>
  <path id="Path_6232" data-name="Path 6232" d="M238.211,227.922a5.744,5.744,0,1,0-5.744-5.744A5.751,5.751,0,0,0,238.211,227.922Zm0-7.827a2.083,2.083,0,1,1-2.083,2.083A2.085,2.085,0,0,1,238.211,220.1Z" transform="translate(-181.591 -163.602)" fill="#1180ae"/>
  <path id="Path_6233" data-name="Path 6233" d="M306.254,168.337h-7.827a1.831,1.831,0,0,0,0,3.662h7.827a1.831,1.831,0,1,0,0-3.662Z" transform="translate(-230.066 -127.246)" fill="#1180ae"/>
  <path id="Path_6234" data-name="Path 6234" d="M306.254,232.466h-7.827a1.831,1.831,0,0,0,0,3.662h7.827a1.831,1.831,0,1,0,0-3.662Z" transform="translate(-230.066 -175.721)" fill="#1180ae"/>
  <path id="Path_6235" data-name="Path 6235" d="M80.667,109.578H29.791a2.083,2.083,0,0,1-2.083-2.083V20.832a4.2,4.2,0,0,1,4.317-4.2,5.133,5.133,0,0,1,4.421,2.422l5.7,7.987a5.722,5.722,0,0,0,6.861,1.973l3.566-1.468a1.876,1.876,0,0,0,1.075-2.383,1.831,1.831,0,0,0-2.4-1.03l-3.632,1.5a2.075,2.075,0,0,1-2.488-.715l-5.7-7.987a9.365,9.365,0,0,0-1.2-1.369L96.055,5.682,58.124,21.3a1.873,1.873,0,0,0-1.069,2.39,1.831,1.831,0,0,0,2.4,1.022L108.35,4.579a1.292,1.292,0,0,1,1.794,1.147v60.6a1.882,1.882,0,0,0,1.774,1.907,1.831,1.831,0,0,0,1.887-1.83V5.86a5.888,5.888,0,0,0-1.495-3.981,5.74,5.74,0,0,0-5.216-1.8l-75.529,12.9c-4.2.737-7.519,3.511-7.519,7.7V107.5a5.744,5.744,0,0,0,5.744,5.744h50.8a1.881,1.881,0,0,0,1.907-1.774A1.831,1.831,0,0,0,80.667,109.578Z" transform="translate(-24.047 0)" fill="#1180ae"/>
</svg>
