<svg id="Group_2828" data-name="Group 2828" xmlns="http://www.w3.org/2000/svg" width="131.25" height="132.787" viewBox="0 0 131.25 132.787">
  <path id="Path_6238" data-name="Path 6238" d="M130.757,65.566,109.585,14.892,89.157,23.427c.256-2.409.256-5.818-1.051-8.279A11.232,11.232,0,1,0,72.752,30.271l-21.838,9.1a15.147,15.147,0,0,0-2.179-4.306,3.163,3.163,0,0,0,.743-.564,2.876,2.876,0,0,0,.871-2.025h0l-.1-8.458h1.743a1.535,1.535,0,0,0,1.077-.461,1.491,1.491,0,0,0,.461-1.1L53.221,0,50.145.051l.282,20.89L9.34,21.249,9.058,0,5.982.051l.282,22.787A1.554,1.554,0,0,0,7.8,24.35H9.6c0,.077.1,8.458.1,8.458a2.951,2.951,0,0,0,1.23,2.307L9.8,36.91a16.671,16.671,0,0,0-1.025,2.409H8.75L4.265,56.056,5.444,59.7l-1.666.743A6.318,6.318,0,0,0,.42,63.977a6.411,6.411,0,0,0,.154,4.87l22.787,50.9,21.351-9.561a2.3,2.3,0,0,0,.384-4.024c-2.743-1.922-4.639-4-5.2-5.69a8.154,8.154,0,1,1,15.046.974,2.157,2.157,0,0,0,2.794,2.922l17.737-7.946a4.735,4.735,0,0,0,2.076-1.743l2.691-1.1a14.968,14.968,0,0,0,2.768,7.023,3.274,3.274,0,0,0-.743.59,2.83,2.83,0,0,0-.871,2.051l.128,8.433H79.775a1.535,1.535,0,0,0-1.077.461,1.378,1.378,0,0,0-.436,1.1l.282,19.352h3.076l-.282-17.814,41.088-.333.282,18.173h3.076l-.282-19.711a1.577,1.577,0,0,0-1.538-1.538H122.17c0-.051.026-.128.026-.179l-.128-8.253a2.778,2.778,0,0,0-1.23-2.307c.59-.948,1.051-1.666,1.128-1.82a7.415,7.415,0,0,0,.974-2.2l.051-.179h.026L127.5,79.663l-1.64-5.178,1.487-.615a6.289,6.289,0,0,0,3.435-8.228c0-.026-.026-.051-.026-.077ZM23.386,51.673l-.256.436a11.328,11.328,0,0,1-4.921,4.434L17.08,57s1.769,10.688,2.256,13.79a8.287,8.287,0,0,1-.974,5.357,3.538,3.538,0,0,1-2.9,1.512A1.378,1.378,0,0,1,14.21,77l-5-15.61L8.263,58.44,7.468,55.98,11.8,39.857a5,5,0,0,1,.59-1.307s.795-1.282,1.692-2.666h0l31.168-.256h0a12.172,12.172,0,0,1,2.845,5Zm23.325-19.1h-.051v-.051l-33.244.256A.875.875,0,0,1,12.8,32.6V32.3h0l-.1-7.741a1.219,1.219,0,0,1,.59-.179l33.3-.256a.875.875,0,0,1,.615.179l.128,8.1a1.316,1.316,0,0,1-.615.179Zm27.5,61.029L58.5,100.656a11.233,11.233,0,1,0-21.556.82c.871,2.538,3.2,4.793,5.331,6.434l-17.4,7.792L3.342,67.591a3.168,3.168,0,0,1-.051-2.512,3.237,3.237,0,0,1,1.717-1.82l1.358-.615L11.39,78.3a4.514,4.514,0,0,0,3.922,2.435s4,.077,5.639-2.973v-.051a11.392,11.392,0,0,0,1.358-7.433c-.384-2.461-1.435-8.894-1.871-11.483a14.442,14.442,0,0,0,5.075-4.716L51.529,42.42a2.177,2.177,0,0,1,1.282-.282,1.706,1.706,0,0,1,.795.846l8.048,18.4A2.092,2.092,0,0,0,63.73,62.7a2.206,2.206,0,0,0,1.948-1.512,8.048,8.048,0,1,1,11.97,8.945c-2.23,1.256-6.126.948-7.69.769a2.364,2.364,0,0,0-2.153.923,2.486,2.486,0,0,0-.256,2.332l7.613,16.968a1.911,1.911,0,0,1-.256,1.948A1.458,1.458,0,0,1,74.213,93.607Zm44.779,9.766h0l.128,7.741a.875.875,0,0,1-.615.179l-33.3.256a.875.875,0,0,1-.615-.179l-.128-7.971Zm.974-7.561a5,5,0,0,1-.59,1.307v.051s-.769,1.256-1.666,2.64h0l-.308.487H86.773l-.256-.256h0A12.266,12.266,0,0,1,83.21,92.3l22.2-9.253c-.487.871-.948,1.794-1.384,2.717l2.794,1.307c.564-1.2,1.179-2.384,1.82-3.512a10.561,10.561,0,0,1,2.512-2.922h0a11.2,11.2,0,0,1,2.409-1.512l1.128-.461-.179-1.2c-.026-.026-.1-.59-.256-1.435-.461-2.768-1.435-8.766-1.82-11.124a8.287,8.287,0,0,1,.974-5.357A3.563,3.563,0,0,1,116.3,58a1.339,1.339,0,0,1,1.256.692l4.511,14.046.948,2.948,1.282,4.024Zm7.971-26.554a3.318,3.318,0,0,1-1.769,1.769l-1.256.538-4.562-14.2a4.556,4.556,0,0,0-3.9-2.435,6.919,6.919,0,0,0-5.665,3,11.392,11.392,0,0,0-1.358,7.433c.384,2.486,1.435,8.894,1.871,11.483a14.925,14.925,0,0,0-1.692,1.128h0L78.34,91.044c-.077-.41-7.2-16.456-7.2-16.456,2.538.179,5.46.051,7.638-1.1l.974-.59a11.035,11.035,0,0,0,3-2.973l.333-.513a11.554,11.554,0,0,0,1.307-3.127.325.325,0,0,0,.026-.154h.026a11.266,11.266,0,0,0,.41-3.076,11.47,11.47,0,0,0-.513-3.358A11.223,11.223,0,0,0,63.653,57.9l-1.82-4.075c-.59-1.461-4.511-10.073-5.383-12.073a6.257,6.257,0,0,0-.718-1.1L76.008,32.3a2.148,2.148,0,0,0,1.307-2.1,2.086,2.086,0,0,0-1.487-1.922A8.152,8.152,0,0,1,70.394,18.1a9.373,9.373,0,0,1,.461-1.179,8,8,0,0,1,5.1-4.306,8.158,8.158,0,0,1,9.432,3.973c1.2,2.256.795,6.126.564,7.69a2.366,2.366,0,0,0,.9,2.179,2.279,2.279,0,0,0,2.307.308l18.762-7.843,19.993,47.829A3.169,3.169,0,0,1,127.937,69.257Z" transform="translate(-0.013)" fill="#1180ae"/>
  <rect id="Rectangle_950" data-name="Rectangle 950" width="3.076" height="7.741" transform="translate(31.682 121.855) rotate(-27.298)" fill="#1180ae"/>
  <rect id="Rectangle_951" data-name="Rectangle 951" width="7.741" height="3.076" transform="translate(9.496 127.447) rotate(-62.702)" fill="#1180ae"/>
  <rect id="Rectangle_952" data-name="Rectangle 952" width="7.741" height="3.076" transform="matrix(0.024, -1, 1, 0.024, 22.038, 132.712)" fill="#1180ae"/>
  <rect id="Rectangle_953" data-name="Rectangle 953" width="3.076" height="7.741" transform="translate(96.712 5.752) rotate(-27.298)" fill="#1180ae"/>
  <rect id="Rectangle_954" data-name="Rectangle 954" width="7.741" height="3.076" transform="translate(118.907 11.323) rotate(-62.702)" fill="#1180ae"/>
  <rect id="Rectangle_955" data-name="Rectangle 955" width="7.741" height="3.076" transform="matrix(0.024, -1, 1, 0.024, 109.205, 8.071)" fill="#1180ae"/>
</svg>
