<svg id="Group_2679" data-name="Group 2679" xmlns="http://www.w3.org/2000/svg" width="120.246" height="127.353" viewBox="0 0 120.246 127.353">
  <path id="Path_6175" data-name="Path 6175" d="M85.17,22.063a4.012,4.012,0,0,0-4-4H12.943a4.012,4.012,0,0,0-4,4V31.3a4.012,4.012,0,0,0,4,4H81.187a4.012,4.012,0,0,0,4-4V22.063ZM81.794,31.3a.63.63,0,0,1-.627.627H12.943a.63.63,0,0,1-.627-.627V22.063a.63.63,0,0,1,.627-.627H81.187a.63.63,0,0,1,.627.627V31.3Z" transform="translate(2.542 15.416)" fill="#1bb999"/>
  <path id="Path_6176" data-name="Path 6176" d="M23.636,30.63H12.943a4.012,4.012,0,0,0-4,4v13.1a4.012,4.012,0,0,0,4,4H26.062a4.012,4.012,0,0,0,4-4V45.164a1.7,1.7,0,1,0-3.4,0v2.567a.63.63,0,0,1-.627.627H12.922a.63.63,0,0,1-.627-.627v-13.1a.63.63,0,0,1,.627-.627H23.616a1.7,1.7,0,0,0,1.7-1.7A1.661,1.661,0,0,0,23.636,30.63Z" transform="translate(2.542 28.255)" fill="#1bb999"/>
  <path id="Path_6177" data-name="Path 6177" d="M70.268,34.158a1.7,1.7,0,0,0-1.7-1.7H24.1a1.7,1.7,0,0,0,0,3.4H68.591A1.691,1.691,0,0,0,70.268,34.158Z" transform="translate(16.291 30.125)" fill="#1bb999"/>
  <path id="Path_6178" data-name="Path 6178" d="M57.574,40.946a1.7,1.7,0,0,0,0-3.4H24.1a1.7,1.7,0,0,0,0,3.4Z" transform="translate(16.291 35.324)" fill="#1bb999"/>
  <path id="Path_6179" data-name="Path 6179" d="M70.684,47.628a1.7,1.7,0,0,0-1.7-1.7H11.778a1.7,1.7,0,0,0,0,3.4H69.006A1.678,1.678,0,0,0,70.684,47.628Z" transform="translate(3.706 43.884)" fill="#1bb999"/>
  <path id="Path_6180" data-name="Path 6180" d="M30.669,51.49h-18.9a1.7,1.7,0,0,0,0,3.4h18.9a1.7,1.7,0,0,0,0-3.4Z" transform="translate(3.696 49.563)" fill="#1bb999"/>
  <path id="Path_6181" data-name="Path 6181" d="M30.669,56.44h-18.9a1.7,1.7,0,1,0,0,3.4h18.9a1.7,1.7,0,1,0,0-3.4Z" transform="translate(3.696 54.62)" fill="#1bb999"/>
  <path id="Path_6182" data-name="Path 6182" d="M14.528,38.72a1.687,1.687,0,0,0-2.385,2.385l3.922,3.922a1.684,1.684,0,0,0,2.385-.02l10.9-11.037A1.687,1.687,0,1,0,26.94,31.6l-9.7,9.845Z" transform="translate(5.302 28.737)" fill="#1bb999"/>
  <path id="Path_6183" data-name="Path 6183" d="M123.335,59.981a4.447,4.447,0,0,0-2.123-2.668l-6.064-3.335a4.517,4.517,0,0,0-3.4-.384,4.447,4.447,0,0,0-2.668,2.123l-2.891,5.236h0L86.686,96.408a.122.122,0,0,0-.02.081c-.04.1-.061.2-.1.3a2.351,2.351,0,0,0-.081.364c0,.02-.02.061-.02.081l.081,12.8a1.725,1.725,0,0,0,.869,1.476,1.655,1.655,0,0,0,.809.2,1.577,1.577,0,0,0,.889-.263l8.793-5.5v15.4a4.107,4.107,0,0,1-4.1,4.1H10.739a4.107,4.107,0,0,1-4.1-4.1v-94.1h91.29V61.78a1.7,1.7,0,0,0,3.4,0V17.106a7.488,7.488,0,0,0-7.479-7.479H88.3V7.1a5.589,5.589,0,1,0-11.179,0V9.626h-9.1V7.1a5.589,5.589,0,1,0-11.179,0V9.626h-9.1V7.1a5.589,5.589,0,1,0-11.179,0V9.626h-9.1V7.1A5.589,5.589,0,1,0,16.3,7.1V9.626H10.739A7.488,7.488,0,0,0,3.26,17.106V121.373a7.488,7.488,0,0,0,7.479,7.479H93.822a7.488,7.488,0,0,0,7.479-7.479V102.917c0-.061-.02-.1-.02-.142l21.67-39.4a4.528,4.528,0,0,0,.384-3.4ZM82.684,4.876a2.209,2.209,0,0,1,2.2,2.2v8.45a2.2,2.2,0,0,1-4.407,0V7.1a2.213,2.213,0,0,1,2.2-2.224Zm-20.275,0a2.209,2.209,0,0,1,2.2,2.2v8.45a2.2,2.2,0,1,1-4.407,0V7.1a2.213,2.213,0,0,1,2.2-2.224Zm-20.275,0a2.209,2.209,0,0,1,2.2,2.2v8.45a2.2,2.2,0,1,1-4.407,0V7.1a2.213,2.213,0,0,1,2.2-2.224Zm-20.275,0a2.209,2.209,0,0,1,2.2,2.2v8.45a2.2,2.2,0,1,1-4.407,0V7.1a2.213,2.213,0,0,1,2.2-2.224ZM10.739,13h5.539v2.547a5.589,5.589,0,1,0,11.179,0V13h9.1v2.547a5.589,5.589,0,1,0,11.179,0V13h9.1v2.547a5.589,5.589,0,1,0,11.179,0V13h9.1v2.547a5.589,5.589,0,1,0,11.179,0V13h5.539a4.107,4.107,0,0,1,4.1,4.1v6.772H6.636V17.106a4.107,4.107,0,0,1,4.1-4.1Zm101.3,44.351a1.119,1.119,0,0,1,.647-.526,1.176,1.176,0,0,1,.829.081l6.064,3.335A1.089,1.089,0,0,1,120,61.72l-2.062,3.76-7.965-4.387ZM98.754,100.33a15.876,15.876,0,0,0-7.965-4.387l17.526-31.858,7.965,4.387ZM89.9,107l-.04-7.823a12.247,12.247,0,0,1,6.671,3.679Z" transform="translate(-3.26 -1.5)" fill="#1bb999"/>
  <path id="Path_6184" data-name="Path 6184" d="M65.494,59.893a1.685,1.685,0,0,0-2.345-.425,3.812,3.812,0,0,0-1.395,2.385,4.394,4.394,0,0,1-.142.485,3.869,3.869,0,0,1-.485,0,14.707,14.707,0,0,0-9.865,3.5,18.992,18.992,0,0,0-2.345-4.2,2.8,2.8,0,0,0-1.334-1.051,2.23,2.23,0,0,0-1.92.243l-.02.02a33.389,33.389,0,0,0-2.264-4.69,10.972,10.972,0,0,0-4.043-4.326,8.443,8.443,0,0,0-4.649-.788,13.438,13.438,0,0,0-8.652,3.9,12.7,12.7,0,0,0-3.6,9.683,1.693,1.693,0,1,0,3.376-.263,9.43,9.43,0,0,1,2.628-7.075,10.1,10.1,0,0,1,6.489-2.891,5.352,5.352,0,0,1,2.83.4,7.807,7.807,0,0,1,2.689,3.032,29.132,29.132,0,0,1,3.214,7.9,1.684,1.684,0,0,0,2.587.991A2.663,2.663,0,0,0,47.28,65.31a16.125,16.125,0,0,1,1.011,2.244A3.188,3.188,0,0,0,49.6,69.374a2.311,2.311,0,0,0,1.172.344A3.6,3.6,0,0,0,53.1,68.626a11.265,11.265,0,0,1,7.924-2.951,3.676,3.676,0,0,0,2.83-.809A4.278,4.278,0,0,0,64.968,62.7c.061-.2.142-.546.061-.465A1.676,1.676,0,0,0,65.494,59.893Z" transform="translate(16.295 49.065)" fill="#1bb999"/>
</svg>
