<svg xmlns="http://www.w3.org/2000/svg" width="139.951" height="127.285" viewBox="0 0 139.951 127.285">
  <path id="Path_6237" data-name="Path 6237" d="M151.5,112.046a10.589,10.589,0,0,0-10.139-2.535l-33.629,8.96a10.189,10.189,0,0,0-6.423-5.055l-17.372-4.7a4.919,4.919,0,0,1-2.157-1.185,21.628,21.628,0,0,0-8.046-4.469,19.665,19.665,0,0,0-14.988.926L37.728,114.224l-1.022-2.378a6.422,6.422,0,0,0-8.423-3.362l-9.41,4.042a6.422,6.422,0,0,0-3.362,8.423l16.867,39.276a6.412,6.412,0,0,0,8.42,3.362l9.41-4.042a6.424,6.424,0,0,0,3.362-8.42l-1.028-2.4,7.108-3.539a8.1,8.1,0,0,1,6.365-.552L84.571,150.6a22.613,22.613,0,0,0,6.968,1.135,22.307,22.307,0,0,0,8.02-1.536l46.419-17.712a13.605,13.605,0,0,0,7.935-7.761,14.637,14.637,0,0,0,.822-2.741,10.6,10.6,0,0,0-3.235-9.942ZM50.393,154.734a2.9,2.9,0,0,1-1.559,1.606l-9.41,4.042a2.935,2.935,0,0,1-3.847-1.536L18.713,119.572a2.935,2.935,0,0,1,1.536-3.847l9.41-4.042a2.928,2.928,0,0,1,3.844,1.536L50.37,152.5A2.892,2.892,0,0,1,50.393,154.734Zm100.921-33.408a11.259,11.259,0,0,1-.627,2.088,10.067,10.067,0,0,1-5.949,5.819L98.319,146.944a18.462,18.462,0,0,1-12.683.34L67.08,141.32a11.586,11.586,0,0,0-8.984.749l-6.931,3.452L39.1,117.429l21.164-10.313a16.065,16.065,0,0,1,12.413-.735,18.079,18.079,0,0,1,6.745,3.717,8.392,8.392,0,0,0,3.6,1.977l17.372,4.7a6.962,6.962,0,0,1,4.753,9.013l-.041.113a6.978,6.978,0,0,1-8.42,4.416L72.274,123.6a1.742,1.742,0,1,0-.926,3.359l24.41,6.722a10.375,10.375,0,0,0,2.755.375,10.487,10.487,0,0,0,9.878-7l.041-.113a10.284,10.284,0,0,0,.459-5.174l33.362-8.888a7.313,7.313,0,0,1,9.062,8.444ZM82.538,78.963c4.23,7.192,8.923,9.013,12.587,9.013a11.294,11.294,0,0,0,1.818-.148,10.17,10.17,0,0,0,5.8-3.04A35.482,35.482,0,0,1,108.273,98a1.743,1.743,0,0,0,1.707,1.4c.044,0,.09,0,.134-.006a1.739,1.739,0,0,0,1.606-1.661,65.624,65.624,0,0,1,3.124-17.476,15.249,15.249,0,0,0,6.635,1.513h.049c8.342,0,15.035-5.822,19.358-16.835,3.952-10.067,4.953-21.721,5.2-26.263a1.742,1.742,0,0,0-1.684-1.835c-9.126-.293-22.8,3.208-31.265,11.591A22.989,22.989,0,0,0,105.883,65.5a16.9,16.9,0,0,0,5.923,12.8,66.219,66.219,0,0,0-2.7,10.8,37.587,37.587,0,0,0-4.326-7.442,11.8,11.8,0,0,0,.787-6.225A15.11,15.11,0,0,0,99.1,65.093c-6.286-4.515-15.127-5.377-21.1-4.23a1.74,1.74,0,0,0-1.373,2.076,58.042,58.042,0,0,0,5.912,16.025ZM109.37,65.424c-.119-5.427,1.972-10.313,6.222-14.521,7.2-7.125,18.583-10.389,26.9-10.589-.386,5.18-1.527,14.892-4.846,23.35-3.809,9.7-9.23,14.625-16.115,14.625h-.041a11.878,11.878,0,0,1-5.464-1.309c2.814-7.1,6.858-13.057,11.777-16.994a1.741,1.741,0,0,0-2.178-2.718,43.371,43.371,0,0,0-12.119,16.649c-.134.3-.256.616-.383.926A13.643,13.643,0,0,1,109.37,65.424Zm-12.3,2.5a11.557,11.557,0,0,1,5.046,7.985,8.961,8.961,0,0,1-.015,2.573,33.726,33.726,0,0,0-7.567-5.993A1.743,1.743,0,1,0,92.794,75.5a30.453,30.453,0,0,1,7.79,6.489,6.709,6.709,0,0,1-4.2,2.4c-9.471,1.533-14.442-14.558-15.92-20.368C85.477,63.511,92.265,64.469,97.074,67.921Z" transform="translate(-14.991 -36.822)" fill="#1bb999"/>
</svg>
