<svg xmlns="http://www.w3.org/2000/svg" width="130.187" height="113.485" viewBox="0 0 130.187 113.485">
  <path id="Union_2" data-name="Union 2" d="M33.869,112.48a2.424,2.424,0,0,1-1.7-.733,2.311,2.311,0,0,1,.089-3.342L61.39,81.75l-44.792-.2a2.406,2.406,0,0,1-2.444-2.365V17.365a2.28,2.28,0,0,1,.088-.631,1.754,1.754,0,0,1,1.609-1.621A2.515,2.515,0,0,1,16.6,15H64.4V4.725H2.444A2.41,2.41,0,0,1,0,2.366a2.3,2.3,0,0,1,.026-.341A1.71,1.71,0,0,1,0,1.73,1.759,1.759,0,0,1,1.791,0H126.881a1.835,1.835,0,0,1,.806.184,2.371,2.371,0,0,1,1.5,2.182,2.409,2.409,0,0,1-2.442,2.359H69.3V15H113.56A2.4,2.4,0,0,1,116,17.365V79.181a2.4,2.4,0,0,1-2.444,2.365l-41.315.2,28.56,26.675a2.315,2.315,0,0,1,.054,3.342,2.527,2.527,0,0,1-3.461.052L69.3,85.57v24.553a2.449,2.449,0,0,1-4.894,0V85.492L35.619,111.839a2.414,2.414,0,0,1-1.615.645C33.96,112.485,33.914,112.483,33.869,112.48Zm2.525-35.657h74.721v-57.1H19.043v57.1H30.9l15.77-29.631a2.453,2.453,0,0,1,1.814-1.251,2.556,2.556,0,0,1,2.111.674L64.865,60.585,94.926,31.367a2.455,2.455,0,0,1,1.725-.7h.006a2.462,2.462,0,0,1,1.725.689A2.289,2.289,0,0,1,98.4,34.7L66.59,65.611a2.588,2.588,0,0,1-3.475-.014L49.476,52.256ZM17.82,18.727a.649.649,0,0,1,.148-.157H17.82ZM68.4,3.483a.481.481,0,0,1,.059-.019H68.4Z" transform="translate(0.5 0.5)" fill="#1180ae" stroke="rgba(0,0,0,0)" stroke-miterlimit="10" stroke-width="1"/>
</svg>
