<svg xmlns="http://www.w3.org/2000/svg" width="97.197" height="122.071" viewBox="0 0 97.197 122.071">
  <g id="Group_9" data-name="Group 9" transform="translate(-7.5 -1)">
    <g id="Group_1" data-name="Group 1" transform="translate(7.5 82.563)">
      <path id="Path_1" data-name="Path 1" d="M99.625,44.406a10.71,10.71,0,0,0-9.537,1.144L71.778,56.613a7.144,7.144,0,0,0-2.289-1.335L41.832,45.36a8,8,0,0,0-6.294.191.187.187,0,0,0-.191.191L24.285,52.417v-.572A3.826,3.826,0,0,0,20.47,48.03H11.315A3.826,3.826,0,0,0,7.5,51.845v28.61a3.826,3.826,0,0,0,3.815,3.815h8.965a3.826,3.826,0,0,0,3.815-3.815V79.5c4.2-2.289,5.913-4.387,8.774-4.005l30.518,6.676a8.752,8.752,0,0,0,7.439-1.335l31.09-24.6c4.2-2.861,3.815-9.537-2.289-11.826ZM11.315,80.455V51.845h8.965v28.61ZM99.625,53.18c-31.662,24.033-30.9,26.512-35.286,25.177L33.631,71.681H33.44c-4.387-.763-7.439,2.289-9.346,3.243V56.613l12.97-7.82a5.293,5.293,0,0,1,3.433,0l27.657,9.918a4.054,4.054,0,0,1,1.907,6.1A4.1,4.1,0,0,1,65.1,66.15L48.7,59.856a1.931,1.931,0,1,0-1.335,3.624l16.4,6.294a7.659,7.659,0,0,0,9.346-2.48,7.333,7.333,0,0,0,.954-7.439l18.12-10.872a7.351,7.351,0,0,1,6.294-.763C101.342,49.175,101.533,51.845,99.625,53.18Z" transform="translate(-7.5 -43.763)" fill="#1bb999"/>
    </g>
    <g id="Group_2" data-name="Group 2" transform="translate(41.971 16.224)">
      <path id="Path_2" data-name="Path 2" d="M36.5,56.891a7.91,7.91,0,0,1,3.243,4.959,5.438,5.438,0,0,0-2.67,4.768,5.7,5.7,0,0,0,4.578,5.531l.763,6.1a2.028,2.028,0,0,0,1.907,1.717H59.194A2.028,2.028,0,0,0,61.1,78.253l.763-6.294a5.912,5.912,0,0,0,4.2-5.341,5.615,5.615,0,0,0-2.67-4.768,7.336,7.336,0,0,1,3.243-5.15A26.511,26.511,0,0,0,78.077,35.147,26.131,26.131,0,0,0,50.611,9.016,26.543,26.543,0,0,0,25.625,34.766,24.706,24.706,0,0,0,36.5,56.891Zm9.346,19.455-.381-3.815h12.4l-.381,3.815Zm14.114-7.629H42.6a1.907,1.907,0,0,1,0-3.815H59.957a1.907,1.907,0,1,1,0,3.815ZM50.23,13.022A22.382,22.382,0,0,1,63.963,53.839a10.325,10.325,0,0,0-4.768,7.439H43.554a11.1,11.1,0,0,0-4.768-7.439,22.711,22.711,0,0,1-9.728-18.692c.191-11.635,9.728-21.553,21.172-22.125Z" transform="translate(-25.573 -8.982)" fill="#1bb999"/>
    </g>
    <g id="Group_3" data-name="Group 3" transform="translate(65.102 25.973)">
      <path id="Path_3" data-name="Path 3" d="M39.8,17.921A12.793,12.793,0,0,1,53.15,30.7a1.907,1.907,0,1,0,3.815,0A16.664,16.664,0,0,0,39.607,14.107,1.911,1.911,0,0,0,37.7,16.014a1.96,1.96,0,0,0,2.1,1.907Z" transform="translate(-37.7 -14.093)" fill="#1bb999"/>
    </g>
    <g id="Group_4" data-name="Group 4" transform="translate(65.865 1)">
      <path id="Path_4" data-name="Path 4" d="M40.007,12.253a1.8,1.8,0,0,0,1.907-1.907V2.907a1.907,1.907,0,1,0-3.815,0v7.439A1.8,1.8,0,0,0,40.007,12.253Z" transform="translate(-38.1 -1)" fill="#1bb999"/>
    </g>
    <g id="Group_5" data-name="Group 5" transform="translate(51.141 3.633)">
      <path id="Path_5" data-name="Path 5" d="M33.47,11.955A1.833,1.833,0,0,0,35.186,13.1a1.147,1.147,0,0,0,.763-.191,1.749,1.749,0,0,0,.954-2.48L34.042,3.562a1.749,1.749,0,0,0-2.48-.954,1.749,1.749,0,0,0-.954,2.48Z" transform="translate(-30.38 -2.38)" fill="#1bb999"/>
    </g>
    <g id="Group_6" data-name="Group 6" transform="translate(38.781 11.872)">
      <path id="Path_6" data-name="Path 6" d="M29.813,15.283a1.888,1.888,0,0,0,2.67-2.67L27.142,7.272a1.888,1.888,0,0,0-2.67,2.67Z" transform="translate(-23.9 -6.7)" fill="#1bb999"/>
    </g>
    <g id="Group_7" data-name="Group 7" transform="translate(87.418 12.444)">
      <path id="Path_7" data-name="Path 7" d="M52.643,15.583l5.341-5.341a1.888,1.888,0,0,0-2.67-2.67l-5.341,5.15a1.844,1.844,0,0,0,0,2.67A2.027,2.027,0,0,0,52.643,15.583Z" transform="translate(-49.4 -7)" fill="#1bb999"/>
    </g>
    <g id="Group_8" data-name="Group 8" transform="translate(77.544 4.096)">
      <path id="Path_8" data-name="Path 8" d="M45.323,13.069a1.147,1.147,0,0,0,.763.191A1.668,1.668,0,0,0,47.8,12.116l2.861-6.866a1.879,1.879,0,1,0-3.433-1.526L44.37,10.59a1.893,1.893,0,0,0,.954,2.48Z" transform="translate(-44.223 -2.623)" fill="#1bb999"/>
    </g>
  </g>
</svg>
