<?xml version="1.0" encoding="UTF-8"?>
<svg id="Layer_1" data-name="Layer 1" xmlns="http://www.w3.org/2000/svg" xmlns:xlink="http://www.w3.org/1999/xlink" viewBox="0 0 2240 2000">
  <defs>
    <style>
      .cls-1 {
        fill: #d9f3ff;
      }

      .cls-2 {
        fill: #caeeff;
      }

      .cls-3 {
        fill: #50c6ff;
      }

      .cls-4 {
        fill: #afe5ff;
      }

      .cls-5 {
        fill: #e3f6ff;
      }

      .cls-6 {
        fill: #6fd0ff;
      }

      .cls-7 {
        fill: #f9fdff;
      }

      .cls-8 {
        fill: #ade4ff;
      }

      .cls-9 {
        fill: #31bcff;
      }

      .cls-10 {
        fill: #a7e2ff;
      }

      .cls-11 {
        fill: #bec4cd;
      }

      .cls-12 {
        fill: #4cc5ff;
      }

      .cls-13 {
        fill: #b2e6ff;
      }

      .cls-14 {
        fill: #a2e1ff;
      }

      .cls-15 {
        fill: #e4f6ff;
      }

      .cls-16 {
        fill: #56c8ff;
      }

      .cls-17 {
        fill: #99deff;
      }

      .cls-18 {
        fill: #83d7ff;
      }

      .cls-19 {
        fill: #7fd5ff;
      }

      .cls-20 {
        fill: #e6f7ff;
      }

      .cls-21 {
        fill: #beeaff;
      }

      .cls-22 {
        fill: #20b6ff;
      }

      .cls-23 {
        fill: #c7edff;
      }

      .cls-24 {
        fill: #d0f0ff;
      }

      .cls-25 {
        fill: #c6edff;
      }

      .cls-26 {
        fill: #e2f6ff;
      }

      .cls-27 {
        fill: #a6e2ff;
      }

      .cls-28 {
        fill: #ddf4ff;
      }

      .cls-29 {
        fill: #f8fdff;
      }

      .cls-30 {
        fill: #b1e5ff;
      }

      .cls-31 {
        fill: #f0f2f5;
      }

      .cls-32 {
        fill: #c2ebff;
      }

      .cls-33 {
        fill: #54c7ff;
      }

      .cls-34 {
        fill: #58c8ff;
      }

      .cls-35 {
        fill: #e5f6ff;
      }

      .cls-36 {
        fill: #97ddff;
      }

      .cls-37 {
        fill: #2fbbff;
      }

      .cls-38 {
        fill: #6bcfff;
      }

      .cls-39 {
        fill: #88d8ff;
      }

      .cls-40 {
        fill: #8fdaff;
      }

      .cls-41 {
        fill: #8edaff;
      }

      .cls-42 {
        fill: #48c3ff;
      }

      .cls-43 {
        fill: #d9f2ff;
      }

      .cls-44 {
        fill: #bce9ff;
      }

      .cls-45 {
        fill: #373b42;
      }

      .cls-46 {
        fill: #39beff;
      }

      .cls-47 {
        fill: #7cd4ff;
      }

      .cls-48 {
        fill: #2abaff;
      }

      .cls-49 {
        fill: #ebf8ff;
      }

      .cls-50 {
        fill: #fff;
      }

      .cls-51 {
        fill: #b7e7ff;
      }

      .cls-52 {
        fill: #67cdff;
      }

      .cls-53 {
        fill: #f7fcff;
      }

      .cls-54 {
        fill: #90dbff;
      }

      .cls-55 {
        fill: #3abfff;
      }

      .cls-56 {
        fill: #6dcfff;
      }

      .cls-57 {
        fill: #75d2ff;
      }

      .cls-58 {
        fill: #98ddff;
      }

      .cls-59 {
        fill: #cbeeff;
      }

      .cls-60 {
        fill: #b0e5ff;
      }

      .cls-61 {
        fill: #8ddaff;
      }

      .cls-62 {
        fill: #44c2ff;
      }

      .cls-63 {
        fill: #def4ff;
      }

      .cls-64 {
        fill: #eef9ff;
      }

      .cls-65 {
        fill: #f3fbff;
      }

      .cls-66 {
        fill: #cef;
      }

      .cls-67 {
        fill: #4bc4ff;
      }

      .cls-68 {
        fill: #32bcff;
      }

      .cls-69 {
        fill: #dcf4ff;
      }

      .cls-70 {
        fill: #1fb6ff;
      }

      .cls-71 {
        fill: none;
      }

      .cls-72 {
        fill: #65cdff;
      }

      .cls-73 {
        fill: #a3e1ff;
      }

      .cls-74 {
        fill: #24b8ff;
      }

      .cls-75 {
        fill: #6ed0ff;
      }

      .cls-76 {
        fill: #e9f8ff;
      }

      .cls-77 {
        fill: #e0f5ff;
      }

      .cls-78 {
        fill: #89d9ff;
      }

      .cls-79 {
        fill: #fafdff;
      }

      .cls-80 {
        fill: #63ccff;
      }

      .cls-81 {
        fill: #b3e6ff;
      }

      .cls-82 {
        fill: #bfeaff;
      }

      .cls-83 {
        fill: #d3f1ff;
      }

      .cls-84 {
        fill: #64cdff;
      }

      .cls-85 {
        fill: #abe4ff;
      }

      .cls-86 {
        fill: #9bdeff;
      }

      .cls-87 {
        fill: #29b9ff;
      }

      .cls-88 {
        fill: #7ed5ff;
      }

      .cls-89 {
        fill: #f4fbff;
      }

      .cls-90 {
        fill: #96ddff;
      }

      .cls-91 {
        fill: #f1faff;
      }

      .cls-92 {
        fill: #bde9ff;
      }

      .cls-93 {
        fill: #a9e3ff;
      }

      .cls-94 {
        fill: #53c7ff;
      }

      .cls-95 {
        fill: #dbf3ff;
      }

      .cls-96 {
        isolation: isolate;
      }

      .cls-97 {
        fill: #2bbaff;
      }

      .cls-98 {
        fill: #26b8ff;
      }

      .cls-99 {
        fill: #51c6ff;
      }

      .cls-100 {
        fill: #4fc6ff;
      }

      .cls-101 {
        fill: #8ad9ff;
      }

      .cls-102 {
        fill: #cdefff;
      }

      .cls-103 {
        fill: #70d1ff;
      }

      .cls-104 {
        fill: #d2f0ff;
      }

      .cls-105 {
        fill: #a4e1ff;
      }

      .cls-106 {
        fill: #55c8ff;
      }

      .cls-107 {
        fill: #d8f2ff;
      }

      .cls-108 {
        fill: #e1f5ff;
      }

      .cls-109 {
        fill: #72d1ff;
      }

      .cls-110 {
        fill: #263470;
      }

      .cls-111 {
        fill: #ecf9ff;
      }

      .cls-112 {
        fill: #c5ecff;
      }

      .cls-113 {
        fill: #d5f1ff;
      }

      .cls-114 {
        fill: #3ec0ff;
      }

      .cls-115 {
        fill: #73d1ff;
      }

      .cls-116 {
        fill: #9adeff;
      }

      .cls-117 {
        fill: #a1e0ff;
      }

      .cls-118 {
        fill: #f5fcff;
      }

      .cls-119 {
        fill: #eefaff;
      }

      .cls-120 {
        fill: #95dcff;
      }

      .cls-121 {
        fill: #fdfeff;
      }

      .cls-122 {
        fill: #ace4ff;
      }

      .cls-123 {
        fill: #59c9ff;
      }

      .cls-124 {
        fill: #f2fbff;
      }

      .cls-125 {
        fill: #78d3ff;
      }

      .cls-126 {
        fill: #22b7ff;
      }

      .cls-127 {
        fill: #c9edff;
      }

      .cls-128 {
        fill: #fcfeff;
      }

      .cls-129 {
        fill: #5ac9ff;
      }

      .cls-130 {
        fill: #c0eaff;
      }

      .cls-131 {
        fill: #35bdff;
      }

      .cls-132 {
        fill: #6acfff;
      }

      .cls-133 {
        fill: #9ddfff;
      }

      .cls-134 {
        fill: #86d7ff;
      }

      .cls-135 {
        fill: #f0faff;
      }

      .cls-136 {
        fill: #b9e8ff;
      }

      .cls-137 {
        fill: #93dcff;
      }

      .cls-138 {
        fill: #5fcbff;
      }

      .cls-139 {
        fill: #c3ebff;
      }

      .cls-140 {
        fill: #bbe9ff;
      }

      .cls-141 {
        fill: #daf3ff;
      }

      .cls-142 {
        fill: #7bd4ff;
      }

      .cls-143 {
        fill: #7ad4ff;
      }

      .cls-144 {
        fill: #fbfeff;
      }

      .cls-145 {
        fill: #42c1ff;
      }

      .cls-146 {
        fill: #c8edff;
      }

      .cls-147 {
        fill: #76d2ff;
      }

      .cls-148 {
        fill: #80d6ff;
      }

      .cls-149 {
        fill: #3bbfff;
      }

      .cls-150 {
        fill: #4dc5ff;
      }

      .cls-151 {
        fill: #aae3ff;
      }

      .cls-152 {
        fill: #d1f0ff;
      }

      .cls-153 {
        fill: #effaff;
      }

      .cls-154 {
        fill: #43c2ff;
      }

      .cls-155 {
        fill: #87d8ff;
      }

      .cls-156 {
        fill: #3fc0ff;
      }

      .cls-157 {
        fill: #b5e7ff;
      }

      .cls-158 {
        fill: #e8f7ff;
      }

      .cls-159 {
        fill: #dbdee4;
      }

      .cls-160 {
        fill: #2ebbff;
      }

      .cls-161 {
        fill: #5dcaff;
      }

      .cls-162 {
        fill: #27b9ff;
      }

      .cls-163 {
        fill: #4ac4ff;
      }

      .cls-164 {
        fill: #b6e7ff;
      }

      .cls-165 {
        fill: #5ecaff;
      }

      .cls-166 {
        fill: #74d2ff;
      }

      .cls-167 {
        fill: #40c1ff;
      }

      .cls-168 {
        fill: #d6f2ff;
      }

      .cls-169 {
        fill: #46c3ff;
      }

      .cls-170 {
        fill: #60cbff;
      }

      .cls-171 {
        fill: #b4e6ff;
      }

      .cls-172 {
        fill: #ceefff;
      }

      .cls-173 {
        fill: #cfefff;
      }

      .cls-174 {
        fill: #92dcff;
      }

      .cls-175 {
        fill: #23b7ff;
      }

      .cls-176 {
        fill: #b8e8ff;
      }

      .cls-177 {
        fill: #f6fcff;
      }

      .cls-178 {
        fill: #a5e2ff;
      }

      .cls-179 {
        fill: #9fe0ff;
      }

      .cls-180 {
        fill: #d4f1ff;
      }

      .cls-181 {
        fill: #edf9ff;
      }

      .cls-182 {
        opacity: .1;
      }

      .cls-183 {
        fill: #c4ecff;
      }

      .cls-184 {
        fill: #47c3ff;
      }

      .cls-185 {
        fill: #33bdff;
      }

      .cls-186 {
        fill: #82d6ff;
      }

      .cls-187 {
        fill: #37beff;
      }

      .cls-188 {
        fill: #81d6ff;
      }

      .cls-189 {
        fill: #8bd9ff;
      }

      .cls-190 {
        fill: #36bdff;
      }

      .cls-191 {
        fill: #62ccff;
      }

      .cls-192 {
        fill: #a8e3ff;
      }

      .cls-193 {
        fill: #5bcaff;
      }

      .cls-194 {
        fill: #91dbff;
      }

      .cls-195 {
        fill: #bae8ff;
      }

      .cls-196 {
        fill: #9cdfff;
      }

      .cls-197 {
        fill: #eaf8ff;
      }

      .cls-198 {
        fill: #79d3ff;
      }

      .cls-199 {
        fill: #dff5ff;
      }

      .cls-200 {
        clip-path: url(#clippath);
      }

      .cls-201 {
        fill: #feffff;
      }

      .cls-202 {
        fill: #85d7ff;
      }

      .cls-203 {
        fill: #a0e0ff;
      }

      .cls-204 {
        fill: #c1ebff;
      }

      .cls-205 {
        fill: #68ceff;
      }

      .cls-206 {
        fill: #69ceff;
      }

      .cls-207 {
        fill: #3cc0ff;
      }

      .cls-208 {
        fill: #e2f5ff;
      }

      .cls-209 {
        fill: #e7f7ff;
      }

      .cls-210 {
        fill: #d7f2ff;
      }

      .cls-211 {
        fill: #2dbaff;
      }

      .cls-212 {
        fill: #40af7a;
      }
    </style>
    <clipPath id="clippath">
      <path class="cls-71" d="M1819.47,996.24l54.45,159.51c-.02,11.71,8.11,22.9,22.89,31.5,15.62,9.11,36.52,14.1,58.84,14.1s43.32-5.01,59.04-14.1c14.95-8.66,23.22-19.87,23.3-31.62h.04l54.51-159.76c4.72-17.54-4.94-35.49-28.47-50.16-26.22-16.35-64.88-25.79-107.61-25.79s-81.51,9.39-107.95,25.79c-23.89,14.78-33.76,32.87-29.04,50.53Z"/>
    </clipPath>
  </defs>
  <g>
    <path class="cls-159" d="M1882.61,1132.02c-.17,0-.35-.04-.51-.14l-261.22-151.15c-.49-.28-.65-.9-.37-1.39.29-.49.91-.66,1.39-.37l261.22,151.15c.49.28.65.9.37,1.39-.19.33-.53.51-.88.51Z"/>
    <path class="cls-159" d="M2091.18,1329.37c-.35,0-.69-.18-.88-.51-.28-.49-.12-1.11.37-1.39l54.82-31.78c2.59-1.51,4.03-3.46,4.02-5.5,0-2.05-1.45-4.02-4.09-5.55l-119.26-69.08c-.49-.28-.65-.9-.37-1.39.29-.49.91-.65,1.39-.37l119.26,69.08c3.29,1.91,5.11,4.5,5.11,7.31,0,2.79-1.78,5.37-5.03,7.26l-54.82,31.78c-.16.09-.33.14-.51.14Z"/>
    <g>
      <g class="cls-182">
        <path class="cls-45" d="M1860.82,1157.39c-46.97,27.17-47.17,71.22-.5,98.39,46.66,27.17,122.49,27.17,169.46,0,46.97-27.17,47.32-71.25.65-98.42-46.66-27.17-122.65-27.15-169.62.03Z"/>
      </g>
      <g class="cls-96">
        <path class="cls-11" d="M1836.06,1154.14l.14,36.31c.09,17.7,11.7,35.36,34.91,48.89,19.51,11.34,44.1,17.94,69.53,19.79,10.23.76,20.6.76,30.79-.05,25.24-1.9,49.64-8.5,69.1-19.74,23.68-13.72,35.52-31.66,35.48-49.65l-.19-36.21c0,17.94-11.84,35.88-35.48,49.55-19.42,11.2-43.76,17.8-68.91,19.74-10.18.81-20.56.81-30.79.05-25.53-1.8-50.16-8.4-69.72-19.79-23.21-13.53-34.81-31.18-34.86-48.89Z"/>
        <path class="cls-159" d="M1940.64,1222.81v36.31c10.23.76,20.6.76,30.79-.05v-36.31c-10.18.81-20.56.81-30.79.05Z"/>
        <path class="cls-45" d="M1955.71,1260.66c-30.87,0-61.7-6.82-85.13-20.46-22.75-13.25-35.31-30.92-35.37-49.75l-.18-36.12v-.19h0c0-.57.45-1.02,1.01-1.03h0c.56,0,1.01.45,1.02,1.01v.2c.14,18.01,12.33,34.99,34.36,47.81,46.29,26.95,121.84,26.96,168.44,0,22.58-13.06,34.99-30.37,34.93-48.72h0c0-.57.45-1.02,1.01-1.03h0c.56,0,1.01.45,1.02,1.01l.19,36.31c.06,19.12-12.71,37.06-35.95,50.5-23.57,13.64-54.48,20.46-85.35,20.46ZM1837.12,1167.24l.12,23.19c.05,18.09,12.25,35.13,34.36,48.01,46.29,26.96,121.85,26.96,168.44,0,22.58-13.06,34.99-30.37,34.93-48.73l-.12-23.36c-4.4,14.17-16.09,27.18-33.98,37.53-47.16,27.28-123.64,27.28-170.48,0-17.38-10.12-28.81-22.82-33.26-36.64Z"/>
        <g>
          <path class="cls-50" d="M1871.4,1104.61c-46.97,27.17-47.17,71.22-.5,98.39,46.66,27.17,122.49,27.17,169.46,0,46.97-27.17,47.32-71.25.65-98.42-46.66-27.17-122.65-27.14-169.62.03Z"/>
          <path class="cls-45" d="M1955.52,1224.35c-30.87,0-61.7-6.82-85.13-20.46-22.84-13.3-35.39-31.03-35.37-49.94.02-19.01,12.77-36.85,35.87-50.22,47.21-27.31,123.76-27.32,170.64-.03,22.78,13.27,35.32,30.98,35.29,49.86-.03,19.05-12.79,36.92-35.95,50.32-23.57,13.64-54.49,20.46-85.35,20.46ZM1956.37,1085.24c-30.54,0-61.13,6.75-84.46,20.25-22.45,12.99-34.83,30.2-34.85,48.46-.03,18.15,12.17,35.26,34.36,48.18,46.29,26.95,121.84,26.96,168.44,0,22.5-13.02,34.91-30.27,34.93-48.56.02-18.13-12.15-35.21-34.28-48.1-23.14-13.48-53.62-20.22-84.13-20.22Z"/>
        </g>
      </g>
      <g>
        <g>
          <g>
            <path class="cls-50" d="M2039.82,1153.68c0,10.12-5.45,20.27-16.3,28.86-2.51,1.98-5.33,3.89-8.46,5.69-32.76,18.97-85.86,18.97-118.47-.04-2.89-1.68-5.52-3.44-7.89-5.31-10.97-8.51-16.46-18.7-16.49-28.86-.08-12.52,8.19-25.08,24.68-34.62,32.84-19.01,85.94-19.01,118.55,0,5.07,2.94,9.37,6.18,12.88,9.66,1.37,1.34,2.63,2.75,3.77,4.16,3.43,4.28,5.71,8.82,6.86,13.44.19.76.34,1.53.46,2.29.27,1.49.42,3.02.42,4.5v.23"/>
            <path class="cls-45" d="M1955.81,1203.45c-21.65,0-43.29-4.79-59.73-14.38-3.03-1.75-5.65-3.52-8.01-5.39-10.84-8.41-16.84-18.95-16.88-29.65-.08-13.45,8.86-26.06,25.19-35.51,33.07-19.15,86.72-19.15,119.57,0,5.08,2.94,9.48,6.25,13.08,9.81,1.28,1.25,2.58,2.68,3.85,4.25,3.48,4.35,5.86,9,7.05,13.83.19.79.36,1.59.47,2.39.29,1.56.43,3.14.43,4.65v.23c0,10.76-5.77,21.02-16.69,29.66-2.59,2.05-5.48,3.99-8.58,5.77-16.51,9.56-38.15,14.34-59.76,14.34ZM1956.25,1106.17c-21.29,0-42.59,4.7-58.85,14.12-15.67,9.07-24.25,21.05-24.17,33.74.04,10.07,5.75,20.03,16.1,28.06,2.29,1.81,4.83,3.52,7.77,5.23,32.3,18.83,84.98,18.84,117.45.04,3.02-1.73,5.82-3.62,8.33-5.61,10.41-8.24,15.92-17.94,15.92-28.06v-.23c0-1.39-.14-2.84-.41-4.32-.11-.76-.26-1.5-.44-2.22-1.12-4.55-3.37-8.93-6.66-13.05-1.22-1.5-2.46-2.87-3.69-4.07-3.48-3.45-7.75-6.65-12.67-9.51-16.14-9.41-37.4-14.12-58.68-14.12Z"/>
          </g>
          <g>
            <path class="cls-45" d="M1872.21,1154.03c.04,10.15,5.52,20.35,16.5,28.86,2.51-1.98,5.29-3.86,8.38-5.65,32.84-19.01,85.94-19.01,118.55,0,2.89,1.68,5.52,3.47,7.88,5.31,10.86-8.59,16.3-18.74,16.3-28.86v-.23c0-1.49-.15-3.02-.42-4.5-.11-.76-.27-1.53-.46-2.29-1.14-4.62-3.43-9.16-6.86-13.44-1.14-1.41-2.4-2.82-3.77-4.16-3.5-3.47-7.81-6.72-12.88-9.66-32.61-19.01-85.71-19.01-118.55,0-16.49,9.54-24.76,22.1-24.68,34.62Z"/>
            <path class="cls-45" d="M1888.7,1183.9c-.22,0-.44-.07-.62-.21-10.85-8.42-16.85-18.95-16.89-29.66h0c-.08-13.45,8.86-26.06,25.19-35.51,33.07-19.15,86.72-19.15,119.57,0,5.08,2.95,9.48,6.25,13.08,9.81,1.28,1.25,2.58,2.68,3.85,4.25,3.48,4.35,5.86,9,7.05,13.83.19.79.36,1.59.47,2.39.29,1.59.43,3.16.43,4.65,0,10.99-5.77,21.25-16.69,29.89-.37.29-.89.29-1.26,0-2.44-1.89-5.05-3.65-7.77-5.23-32.28-18.82-85.01-18.82-117.53,0-3.09,1.8-5.79,3.62-8.26,5.57-.19.14-.41.22-.63.22ZM1956.25,1106.17c-21.29,0-42.59,4.7-58.85,14.12-15.67,9.07-24.25,21.05-24.17,33.74h0c.04,9.86,5.52,19.63,15.48,27.57,2.37-1.82,4.95-3.54,7.86-5.24,33.09-19.15,86.73-19.15,119.57,0,2.56,1.49,5.03,3.13,7.36,4.89,10.01-8.13,15.3-17.65,15.3-27.57,0-1.6-.14-3.05-.41-4.55-.11-.76-.26-1.49-.44-2.22-1.12-4.55-3.37-8.93-6.66-13.05-1.22-1.5-2.46-2.87-3.69-4.07-3.48-3.45-7.74-6.64-12.68-9.51-16.14-9.41-37.4-14.12-58.67-14.12Z"/>
          </g>
          <g class="cls-200">
            <rect class="cls-70" x="1814.75" y="1191.96" width="282.51" height="9.39"/>
            <rect class="cls-70" x="1814.75" y="1190.75" width="282.51" height="1.21"/>
            <rect class="cls-22" x="1814.75" y="1189.53" width="282.51" height="1.21"/>
            <rect class="cls-126" x="1814.75" y="1188.32" width="282.51" height="1.21"/>
            <rect class="cls-175" x="1814.75" y="1187.1" width="282.51" height="1.21"/>
            <rect class="cls-74" x="1814.75" y="1185.89" width="282.51" height="1.21"/>
            <rect class="cls-98" x="1814.75" y="1184.67" width="282.51" height="1.21"/>
            <rect class="cls-162" x="1814.75" y="1183.46" width="282.51" height="1.21"/>
            <rect class="cls-87" x="1814.75" y="1182.24" width="282.51" height="1.21"/>
            <rect class="cls-48" x="1814.75" y="1181.03" width="282.51" height="1.21"/>
            <rect class="cls-97" x="1814.75" y="1179.82" width="282.51" height="1.21"/>
            <rect class="cls-211" x="1814.75" y="1178.6" width="282.51" height="1.21"/>
            <rect class="cls-160" x="1814.75" y="1177.39" width="282.51" height="1.21"/>
            <rect class="cls-37" x="1814.75" y="1176.17" width="282.51" height="1.21"/>
            <rect class="cls-9" x="1814.75" y="1174.96" width="282.51" height="1.21"/>
            <rect class="cls-68" x="1814.75" y="1173.74" width="282.51" height="1.21"/>
            <rect class="cls-185" x="1814.75" y="1172.53" width="282.51" height="1.21"/>
            <rect class="cls-131" x="1814.75" y="1171.32" width="282.51" height="1.21"/>
            <rect class="cls-190" x="1814.75" y="1170.1" width="282.51" height="1.21"/>
            <rect class="cls-187" x="1814.75" y="1168.89" width="282.51" height="1.21"/>
            <rect class="cls-46" x="1814.75" y="1167.67" width="282.51" height="1.21"/>
            <rect class="cls-55" x="1814.75" y="1166.46" width="282.51" height="1.21"/>
            <rect class="cls-149" x="1814.75" y="1165.24" width="282.51" height="1.21"/>
            <rect class="cls-207" x="1814.75" y="1164.03" width="282.51" height="1.21"/>
            <rect class="cls-114" x="1814.75" y="1162.81" width="282.51" height="1.21"/>
            <rect class="cls-156" x="1814.75" y="1161.6" width="282.51" height="1.21"/>
            <rect class="cls-167" x="1814.75" y="1160.39" width="282.51" height="1.21"/>
            <rect class="cls-145" x="1814.75" y="1159.17" width="282.51" height="1.21"/>
            <rect class="cls-154" x="1814.75" y="1157.96" width="282.51" height="1.21"/>
            <rect class="cls-62" x="1814.75" y="1156.74" width="282.51" height="1.21"/>
            <rect class="cls-169" x="1814.75" y="1155.53" width="282.51" height="1.21"/>
            <rect class="cls-184" x="1814.75" y="1154.31" width="282.51" height="1.21"/>
            <rect class="cls-42" x="1814.75" y="1153.1" width="282.51" height="1.21"/>
            <rect class="cls-163" x="1814.75" y="1151.88" width="282.51" height="1.21"/>
            <rect class="cls-67" x="1814.75" y="1150.67" width="282.51" height="1.21"/>
            <rect class="cls-12" x="1814.75" y="1149.46" width="282.51" height="1.21"/>
            <rect class="cls-150" x="1814.75" y="1148.24" width="282.51" height="1.21"/>
            <rect class="cls-100" x="1814.75" y="1147.03" width="282.51" height="1.21"/>
            <rect class="cls-3" x="1814.75" y="1145.81" width="282.51" height="1.21"/>
            <rect class="cls-99" x="1814.75" y="1144.6" width="282.51" height="1.21"/>
            <rect class="cls-94" x="1814.75" y="1143.38" width="282.51" height="1.21"/>
            <rect class="cls-33" x="1814.75" y="1142.17" width="282.51" height="1.21"/>
            <rect class="cls-106" x="1814.75" y="1140.95" width="282.51" height="1.21"/>
            <rect class="cls-16" x="1814.75" y="1139.74" width="282.51" height="1.21"/>
            <rect class="cls-34" x="1814.75" y="1138.53" width="282.51" height="1.21"/>
            <rect class="cls-123" x="1814.75" y="1137.31" width="282.51" height="1.21"/>
            <rect class="cls-129" x="1814.75" y="1136.1" width="282.51" height="1.21"/>
            <rect class="cls-193" x="1814.75" y="1134.88" width="282.51" height="1.21"/>
            <rect class="cls-161" x="1814.75" y="1133.67" width="282.51" height="1.21"/>
            <rect class="cls-165" x="1814.75" y="1132.45" width="282.51" height="1.21"/>
            <rect class="cls-138" x="1814.75" y="1131.24" width="282.51" height="1.21"/>
            <rect class="cls-170" x="1814.75" y="1130.02" width="282.51" height="1.21"/>
            <rect class="cls-191" x="1814.75" y="1128.81" width="282.51" height="1.21"/>
            <rect class="cls-80" x="1814.75" y="1127.6" width="282.51" height="1.21"/>
            <rect class="cls-84" x="1814.75" y="1126.38" width="282.51" height="1.21"/>
            <rect class="cls-72" x="1814.75" y="1125.17" width="282.51" height="1.21"/>
            <rect class="cls-52" x="1814.75" y="1123.95" width="282.51" height="1.21"/>
            <rect class="cls-205" x="1814.75" y="1122.74" width="282.51" height="1.21"/>
            <rect class="cls-206" x="1814.75" y="1121.52" width="282.51" height="1.21"/>
            <rect class="cls-132" x="1814.75" y="1120.31" width="282.51" height="1.21"/>
            <rect class="cls-38" x="1814.75" y="1119.09" width="282.51" height="1.21"/>
            <rect class="cls-56" x="1814.75" y="1117.88" width="282.51" height="1.21"/>
            <rect class="cls-75" x="1814.75" y="1116.67" width="282.51" height="1.21"/>
            <rect class="cls-6" x="1814.75" y="1115.45" width="282.51" height="1.21"/>
            <rect class="cls-103" x="1814.75" y="1114.24" width="282.51" height="1.21"/>
            <rect class="cls-109" x="1814.75" y="1113.02" width="282.51" height="1.21"/>
            <rect class="cls-115" x="1814.75" y="1111.81" width="282.51" height="1.21"/>
            <rect class="cls-166" x="1814.75" y="1110.59" width="282.51" height="1.21"/>
            <rect class="cls-57" x="1814.75" y="1109.38" width="282.51" height="1.21"/>
            <rect class="cls-147" x="1814.75" y="1108.16" width="282.51" height="1.21"/>
            <rect class="cls-125" x="1814.75" y="1106.95" width="282.51" height="1.21"/>
            <rect class="cls-198" x="1814.75" y="1105.74" width="282.51" height="1.21"/>
            <rect class="cls-143" x="1814.75" y="1104.52" width="282.51" height="1.21"/>
            <rect class="cls-142" x="1814.75" y="1103.31" width="282.51" height="1.21"/>
            <rect class="cls-47" x="1814.75" y="1102.09" width="282.51" height="1.21"/>
            <rect class="cls-88" x="1814.75" y="1100.88" width="282.51" height="1.21"/>
            <rect class="cls-19" x="1814.75" y="1099.66" width="282.51" height="1.21"/>
            <rect class="cls-148" x="1814.75" y="1098.45" width="282.51" height="1.21"/>
            <rect class="cls-188" x="1814.75" y="1097.23" width="282.51" height="1.21"/>
            <rect class="cls-186" x="1814.75" y="1096.02" width="282.51" height="1.21"/>
            <rect class="cls-18" x="1814.75" y="1094.81" width="282.51" height="1.21"/>
            <rect class="cls-202" x="1814.75" y="1093.59" width="282.51" height="1.21"/>
            <rect class="cls-134" x="1814.75" y="1092.38" width="282.51" height="1.21"/>
            <rect class="cls-155" x="1814.75" y="1091.16" width="282.51" height="1.21"/>
            <rect class="cls-39" x="1814.75" y="1089.95" width="282.51" height="1.21"/>
            <rect class="cls-78" x="1814.75" y="1088.73" width="282.51" height="1.21"/>
            <rect class="cls-101" x="1814.75" y="1087.52" width="282.51" height="1.21"/>
            <rect class="cls-189" x="1814.75" y="1086.3" width="282.51" height="1.21"/>
            <rect class="cls-61" x="1814.75" y="1085.09" width="282.51" height="1.21"/>
            <rect class="cls-41" x="1814.75" y="1083.88" width="282.51" height="1.21"/>
            <rect class="cls-40" x="1814.75" y="1082.66" width="282.51" height="1.21"/>
            <rect class="cls-54" x="1814.75" y="1081.45" width="282.51" height="1.21"/>
            <rect class="cls-194" x="1814.75" y="1080.23" width="282.51" height="1.21"/>
            <rect class="cls-174" x="1814.75" y="1079.02" width="282.51" height="1.21"/>
            <rect class="cls-137" x="1814.75" y="1077.8" width="282.51" height="1.21"/>
            <rect class="cls-120" x="1814.75" y="1076.59" width="282.51" height="1.21"/>
            <rect class="cls-90" x="1814.75" y="1075.37" width="282.51" height="1.21"/>
            <rect class="cls-36" x="1814.75" y="1074.16" width="282.51" height="1.21"/>
            <rect class="cls-58" x="1814.75" y="1072.95" width="282.51" height="1.21"/>
            <rect class="cls-17" x="1814.75" y="1071.73" width="282.51" height="1.21"/>
            <rect class="cls-116" x="1814.75" y="1070.52" width="282.51" height="1.21"/>
            <rect class="cls-86" x="1814.75" y="1069.3" width="282.51" height="1.21"/>
            <rect class="cls-196" x="1814.75" y="1068.09" width="282.51" height="1.21"/>
            <rect class="cls-133" x="1814.75" y="1066.87" width="282.51" height="1.21"/>
            <rect class="cls-179" x="1814.75" y="1065.66" width="282.51" height="1.21"/>
            <rect class="cls-203" x="1814.75" y="1064.45" width="282.51" height="1.21"/>
            <rect class="cls-117" x="1814.75" y="1063.23" width="282.51" height="1.21"/>
            <rect class="cls-14" x="1814.75" y="1062.02" width="282.51" height="1.21"/>
            <rect class="cls-73" x="1814.75" y="1060.8" width="282.51" height="1.21"/>
            <rect class="cls-105" x="1814.75" y="1059.59" width="282.51" height="1.21"/>
            <rect class="cls-178" x="1814.75" y="1058.37" width="282.51" height="1.21"/>
            <rect class="cls-27" x="1814.75" y="1057.16" width="282.51" height="1.21"/>
            <rect class="cls-10" x="1814.75" y="1055.94" width="282.51" height="1.21"/>
            <rect class="cls-192" x="1814.75" y="1054.73" width="282.51" height="1.21"/>
            <rect class="cls-93" x="1814.75" y="1053.52" width="282.51" height="1.21"/>
            <rect class="cls-151" x="1814.75" y="1052.3" width="282.51" height="1.21"/>
            <rect class="cls-85" x="1814.75" y="1051.09" width="282.51" height="1.21"/>
            <rect class="cls-122" x="1814.75" y="1049.87" width="282.51" height="1.21"/>
            <rect class="cls-8" x="1814.75" y="1048.66" width="282.51" height="1.21"/>
            <rect class="cls-4" x="1814.75" y="1047.44" width="282.51" height="1.21"/>
            <rect class="cls-60" x="1814.75" y="1046.23" width="282.51" height="1.21"/>
            <rect class="cls-30" x="1814.75" y="1045.01" width="282.51" height="1.21"/>
            <rect class="cls-13" x="1814.75" y="1043.8" width="282.51" height="1.21"/>
            <rect class="cls-81" x="1814.75" y="1042.59" width="282.51" height="1.21"/>
            <rect class="cls-171" x="1814.75" y="1041.37" width="282.51" height="1.21"/>
            <rect class="cls-157" x="1814.75" y="1040.16" width="282.51" height="1.21"/>
            <rect class="cls-164" x="1814.75" y="1038.94" width="282.51" height="1.21"/>
            <rect class="cls-51" x="1814.75" y="1037.73" width="282.51" height="1.21"/>
            <rect class="cls-176" x="1814.75" y="1036.51" width="282.51" height="1.21"/>
            <rect class="cls-136" x="1814.75" y="1035.3" width="282.51" height="1.21"/>
            <rect class="cls-195" x="1814.75" y="1034.08" width="282.51" height="1.21"/>
            <rect class="cls-140" x="1814.75" y="1032.87" width="282.51" height="1.21"/>
            <rect class="cls-44" x="1814.75" y="1031.66" width="282.51" height="1.21"/>
            <rect class="cls-92" x="1814.75" y="1030.44" width="282.51" height="1.21"/>
            <rect class="cls-21" x="1814.75" y="1029.23" width="282.51" height="1.21"/>
            <rect class="cls-82" x="1814.75" y="1028.01" width="282.51" height="1.21"/>
            <rect class="cls-130" x="1814.75" y="1026.8" width="282.51" height="1.21"/>
            <rect class="cls-204" x="1814.75" y="1025.58" width="282.51" height="1.21"/>
            <rect class="cls-32" x="1814.75" y="1024.37" width="282.51" height="1.21"/>
            <rect class="cls-139" x="1814.75" y="1023.15" width="282.51" height="1.21"/>
            <rect class="cls-183" x="1814.75" y="1021.94" width="282.51" height="1.21"/>
            <rect class="cls-112" x="1814.75" y="1020.73" width="282.51" height="1.21"/>
            <rect class="cls-112" x="1814.75" y="1019.51" width="282.51" height="1.21"/>
            <rect class="cls-25" x="1814.75" y="1018.3" width="282.51" height="1.21"/>
            <rect class="cls-23" x="1814.75" y="1017.08" width="282.51" height="1.21"/>
            <rect class="cls-146" x="1814.75" y="1015.87" width="282.51" height="1.21"/>
            <rect class="cls-127" x="1814.75" y="1014.65" width="282.51" height="1.21"/>
            <rect class="cls-2" x="1814.75" y="1013.44" width="282.51" height="1.21"/>
            <rect class="cls-59" x="1814.75" y="1012.22" width="282.51" height="1.21"/>
            <rect class="cls-66" x="1814.75" y="1011.01" width="282.51" height="1.21"/>
            <rect class="cls-102" x="1814.75" y="1009.8" width="282.51" height="1.21"/>
            <rect class="cls-172" x="1814.75" y="1008.58" width="282.51" height="1.21"/>
            <rect class="cls-173" x="1814.75" y="1007.37" width="282.51" height="1.21"/>
            <rect class="cls-24" x="1814.75" y="1006.15" width="282.51" height="1.21"/>
            <rect class="cls-152" x="1814.75" y="1004.94" width="282.51" height="1.21"/>
            <rect class="cls-104" x="1814.75" y="1003.72" width="282.51" height="1.21"/>
            <rect class="cls-104" x="1814.75" y="1002.51" width="282.51" height="1.21"/>
            <rect class="cls-83" x="1814.75" y="1001.29" width="282.51" height="1.21"/>
            <rect class="cls-180" x="1814.75" y="1000.08" width="282.51" height="1.21"/>
            <rect class="cls-113" x="1814.75" y="998.87" width="282.51" height="1.21"/>
            <rect class="cls-168" x="1814.75" y="997.65" width="282.51" height="1.21"/>
            <rect class="cls-210" x="1814.75" y="996.44" width="282.51" height="1.21"/>
            <rect class="cls-107" x="1814.75" y="995.22" width="282.51" height="1.21"/>
            <rect class="cls-43" x="1814.75" y="994.01" width="282.51" height="1.21"/>
            <rect class="cls-1" x="1814.75" y="992.79" width="282.51" height="1.21"/>
            <rect class="cls-141" x="1814.75" y="991.58" width="282.51" height="1.21"/>
            <rect class="cls-95" x="1814.75" y="990.36" width="282.51" height="1.21"/>
            <rect class="cls-69" x="1814.75" y="989.15" width="282.51" height="1.21"/>
            <rect class="cls-28" x="1814.75" y="987.94" width="282.51" height="1.21"/>
            <rect class="cls-63" x="1814.75" y="986.72" width="282.51" height="1.21"/>
            <rect class="cls-63" x="1814.75" y="985.51" width="282.51" height="1.21"/>
            <rect class="cls-199" x="1814.75" y="984.29" width="282.51" height="1.21"/>
            <rect class="cls-77" x="1814.75" y="983.08" width="282.51" height="1.21"/>
            <rect class="cls-108" x="1814.75" y="981.86" width="282.51" height="1.21"/>
            <rect class="cls-208" x="1814.75" y="980.65" width="282.51" height="1.21"/>
            <rect class="cls-26" x="1814.75" y="979.44" width="282.51" height="1.21"/>
            <rect class="cls-5" x="1814.75" y="978.22" width="282.51" height="1.21"/>
            <rect class="cls-15" x="1814.75" y="977.01" width="282.51" height="1.21"/>
            <rect class="cls-35" x="1814.75" y="975.79" width="282.51" height="1.21"/>
            <rect class="cls-20" x="1814.75" y="974.58" width="282.51" height="1.21"/>
            <rect class="cls-20" x="1814.75" y="973.36" width="282.51" height="1.21"/>
            <rect class="cls-209" x="1814.75" y="972.15" width="282.51" height="1.21"/>
            <rect class="cls-158" x="1814.75" y="970.93" width="282.51" height="1.21"/>
            <rect class="cls-76" x="1814.75" y="969.72" width="282.51" height="1.21"/>
            <rect class="cls-76" x="1814.75" y="968.51" width="282.51" height="1.21"/>
            <rect class="cls-197" x="1814.75" y="967.29" width="282.51" height="1.21"/>
            <rect class="cls-49" x="1814.75" y="966.08" width="282.51" height="1.21"/>
            <rect class="cls-111" x="1814.75" y="964.86" width="282.51" height="1.21"/>
            <rect class="cls-111" x="1814.75" y="963.65" width="282.51" height="1.21"/>
            <rect class="cls-181" x="1814.75" y="962.43" width="282.51" height="1.21"/>
            <rect class="cls-64" x="1814.75" y="961.22" width="282.51" height="1.21"/>
            <rect class="cls-119" x="1814.75" y="960" width="282.51" height="1.21"/>
            <rect class="cls-153" x="1814.75" y="958.79" width="282.51" height="1.21"/>
            <rect class="cls-135" x="1814.75" y="957.58" width="282.51" height="1.21"/>
            <rect class="cls-135" x="1814.75" y="956.36" width="282.51" height="1.21"/>
            <rect class="cls-91" x="1814.75" y="955.15" width="282.51" height="1.21"/>
            <rect class="cls-124" x="1814.75" y="953.93" width="282.51" height="1.21"/>
            <rect class="cls-124" x="1814.75" y="952.72" width="282.51" height="1.21"/>
            <rect class="cls-65" x="1814.75" y="951.5" width="282.51" height="1.21"/>
            <rect class="cls-89" x="1814.75" y="950.29" width="282.51" height="1.21"/>
            <rect class="cls-89" x="1814.75" y="949.07" width="282.51" height="1.21"/>
            <rect class="cls-118" x="1814.75" y="947.86" width="282.51" height="1.21"/>
            <rect class="cls-118" x="1814.75" y="946.65" width="282.51" height="1.21"/>
            <rect class="cls-177" x="1814.75" y="945.43" width="282.51" height="1.21"/>
            <rect class="cls-53" x="1814.75" y="944.22" width="282.51" height="1.21"/>
            <rect class="cls-53" x="1814.75" y="943" width="282.51" height="1.21"/>
            <rect class="cls-29" x="1814.75" y="941.79" width="282.51" height="1.21"/>
            <rect class="cls-29" x="1814.75" y="940.57" width="282.51" height="1.21"/>
            <rect class="cls-7" x="1814.75" y="939.36" width="282.51" height="1.21"/>
            <rect class="cls-7" x="1814.75" y="938.14" width="282.51" height="1.21"/>
            <rect class="cls-79" x="1814.75" y="936.93" width="282.51" height="1.21"/>
            <rect class="cls-79" x="1814.75" y="935.72" width="282.51" height="1.21"/>
            <rect class="cls-144" x="1814.75" y="934.5" width="282.51" height="1.21"/>
            <rect class="cls-144" x="1814.75" y="933.29" width="282.51" height="1.21"/>
            <rect class="cls-128" x="1814.75" y="932.07" width="282.51" height="1.21"/>
            <rect class="cls-128" x="1814.75" y="930.86" width="282.51" height="1.21"/>
            <rect class="cls-121" x="1814.75" y="929.64" width="282.51" height="1.21"/>
            <rect class="cls-121" x="1814.75" y="928.43" width="282.51" height="1.21"/>
            <rect class="cls-121" x="1814.75" y="927.21" width="282.51" height="1.21"/>
            <rect class="cls-201" x="1814.75" y="926" width="282.51" height="1.21"/>
            <rect class="cls-201" x="1814.75" y="924.79" width="282.51" height="1.21"/>
            <rect class="cls-201" x="1814.75" y="923.57" width="282.51" height="1.21"/>
            <rect class="cls-50" x="1814.75" y="922.36" width="282.51" height="1.21"/>
            <rect class="cls-50" x="1814.75" y="921.14" width="282.51" height="1.21"/>
            <rect class="cls-50" x="1814.75" y="919.93" width="282.51" height="1.21"/>
          </g>
        </g>
        <g>
          <g>
            <path class="cls-110" d="M1761.38,948.76l.13,44.97c0,3.16,3.73,5.84,9.03,6.59l42.82,5.84c2.59,5.89,6.22,11.59,11.04,17.08l-17.36-10.1c-2.24-1.32-3.42-3.03-3.42-4.79l.13,45.02c0,1.76,1.18,3.47,3.42,4.79l21.78,12.69c1.14.66,2.45,1.14,3.9,1.49,3.42.83,7.36.7,10.69-.53l37.47-13.44c11.88,4.08,24.54,7.16,37.56,9.05l9.91,24.86c.7,1.71,2.5,3.16,4.86,4.08,1.88.79,4.16,1.19,6.57,1.19h30.99c2.89.04,5.61-.53,7.67-1.62.26-.09.53-.22.75-.35,1.53-.88,2.63-1.98,3.11-3.25l10.21-24.9c13.06-1.93,25.73-4.92,37.65-9.05l37.34,13.48c.53.17,1.05.35,1.62.48.79.18,1.58.26,2.41.35,3.73.39,7.71-.22,10.52-1.85l21.96-12.74c2.32-1.32,3.55-3.12,3.55-4.92l-.13-44.97c0,1.8-1.23,3.56-3.55,4.92l-15.82,9.14c4.47-5.18,7.89-10.59,10.34-16.12l42.95-5.84c2.19-.31,4.12-.92,5.65-1.8,2.1-1.23,3.42-2.94,3.42-4.79v-.13l.09-17.96-.13-44.97-.09,17.96v.09c0,1.84-1.31,3.56-3.42,4.79-1.53.88-3.46,1.49-5.65,1.8l-42.95,5.84c-3.37,7.6-8.55,14.93-15.65,21.83l.13,42.38-.83.48c-2.28,1.32-5.35,2.02-8.41,2.02v-.09c-1.05,0-2.1-.04-3.16-.18-1.01-.18-2.06-.4-2.98-.75l-37.34-13.44c-11.92,4.08-24.59,7.07-37.65,9l-10.21,24.9c-.48,1.27-1.58,2.37-3.11,3.25-.22.13-.39.22-.61.31-2.1,1.1-4.86,1.71-7.8,1.67h-30.94c-2.37,0-4.6-.4-6.49-1.14-2.45-.88-4.25-2.37-4.95-4.08l-9.95-24.86c-13.02-1.93-25.68-5.01-37.56-9.05l-37.43,13.39c-2.02.75-4.25,1.1-6.49,1.06v-.09c-1.49,0-2.98-.18-4.34-.48-1.4-.31-2.72-.79-3.81-1.45l-.04-.04-.13-42.82c-6.97-6.89-12.1-14.23-15.43-21.83l-42.82-5.84c-4.65-.62-8.06-2.77-8.85-5.4v-.05c-.13-.35-.18-.7-.18-1.1Z"/>
            <path class="cls-45" d="M1971.22,1098.57c-.11,0-.21,0-.32,0h-30.97c-2.59,0-5-.44-6.97-1.27-2.69-1.05-4.62-2.7-5.41-4.63l-9.69-24.32c-12.65-1.87-25.03-4.86-36.82-8.89l-37.14,13.32c-3.43,1.27-7.54,1.47-11.28.56-1.62-.39-2.99-.92-4.17-1.6l-21.79-12.7c-2.53-1.49-3.92-3.5-3.92-5.67l-.14-44.99v-.02h0c0-.57.45-1.02,1.02-1.02h0c.56,0,1.02.45,1.02,1.01v.02c0,1.4,1.04,2.79,2.92,3.89l12.52,7.29c-3-3.99-5.49-8.16-7.43-12.46l-42.26-5.76c-5.93-.84-9.91-3.89-9.91-7.59l-.13-44.94v-.03h0c0-.56.45-1.02,1.02-1.02h0c.56,0,1.02.45,1.02,1.02v.03c0,.3.04.51.11.71.04.12.06.24.06.36.64,2.01,3.85,3.89,7.97,4.44l42.82,5.84c.35.05.65.27.79.6,3.32,7.57,8.44,14.81,15.21,21.51.19.19.3.45.3.72l.13,42.27c.79.41,1.88.8,3.06,1.06,1.34.3,2.76.46,4.12.46.15,0,.29.03.42.09,2,0,3.97-.35,5.71-1l37.44-13.4c.22-.08.46-.08.67,0,11.95,4.07,24.53,7.1,37.39,9.01.36.05.66.29.79.63l9.95,24.86c.59,1.45,2.18,2.73,4.35,3.5,1.8.71,3.91,1.08,6.15,1.08h30.94c2.76.09,5.33-.51,7.33-1.55.26-.11.4-.18.56-.28,1.38-.79,2.3-1.73,2.69-2.74l10.22-24.93c.14-.33.44-.57.79-.62,13.22-1.95,25.82-4.97,37.46-8.96.22-.08.46-.07.68,0l37.34,13.44c.91.35,1.98.56,2.81.7.86.11,1.82.16,2.98.16.14,0,.28.03.41.08,2.81-.06,5.52-.74,7.5-1.88l.32-.19-.13-41.79c0-.28.11-.54.31-.73,6.85-6.65,12.04-13.89,15.42-21.51.14-.32.45-.55.79-.59l42.95-5.84c2.05-.29,3.87-.87,5.28-1.68,1.84-1.08,2.9-2.5,2.9-3.9l.09-18.05c0-.56.46-1.01,1.02-1.01h0c.56,0,1.02.45,1.02,1.02l.13,44.97-.09,17.97c0,2.27-1.43,4.33-3.92,5.79-1.66.96-3.69,1.6-6.02,1.93l-42.4,5.76c-1.82,4-4.12,7.89-6.87,11.61l11.15-6.44c1.96-1.15,3.04-2.58,3.04-4.04,0-.56.45-1.02,1.02-1.02h0c.56,0,1.02.45,1.02,1.01l.14,44.97c0,2.23-1.48,4.34-4.07,5.81l-21.95,12.73c-2.88,1.67-7.04,2.41-11.13,1.97-.87-.09-1.7-.18-2.53-.37-.6-.14-1.15-.32-1.7-.5l-37.04-13.37c-11.43,3.93-23.84,6.92-36.92,8.89l-9.99,24.37c-.54,1.44-1.74,2.71-3.55,3.75-.28.17-.62.33-.92.43-1.97,1.06-4.74,1.68-7.69,1.68ZM1881.03,1057.36c.11,0,.22.02.33.06,11.96,4.11,24.53,7.14,37.38,9,.36.05.66.29.8.63l9.91,24.86c.57,1.39,2.13,2.67,4.29,3.51,1.75.73,3.89,1.12,6.21,1.12h30.98c2.77.05,5.29-.49,7.19-1.5.32-.12.52-.22.7-.33,1.38-.79,2.3-1.73,2.69-2.74l10.22-24.93c.14-.33.44-.57.79-.62,13.29-1.96,25.89-4.99,37.46-9,.22-.07.46-.08.68,0l37.34,13.48c.48.16.97.33,1.51.45.74.17,1.49.25,2.29.33,3.66.39,7.37-.25,9.9-1.71l21.96-12.74c1.94-1.1,3.04-2.57,3.04-4.04l-.12-40.69c-.56.54-1.24,1.05-2.03,1.51l-15.83,9.14c-.43.25-.97.16-1.29-.23-.32-.38-.31-.94.01-1.31,4.3-4.98,7.72-10.32,10.18-15.87.14-.32.44-.55.79-.59l42.95-5.84c2.04-.29,3.87-.87,5.28-1.68,1.84-1.08,2.9-2.5,2.9-3.9l.09-18.1-.07-22.81c-.56.57-1.25,1.09-2.04,1.56-1.66.95-3.69,1.6-6.02,1.93l-42.4,5.77c-3.44,7.55-8.59,14.72-15.33,21.32l.13,41.95c0,.36-.19.7-.5.88l-.83.48c-2.38,1.37-5.63,2.16-8.93,2.16-.15,0-.29-.03-.42-.09-1.06-.01-1.98-.07-2.86-.18-.97-.17-2.16-.4-3.21-.8l-36.99-13.31c-11.5,3.91-23.91,6.89-36.92,8.84l-9.99,24.37c-.55,1.45-1.75,2.72-3.55,3.75-.25.15-.47.26-.74.37-2.2,1.15-5.04,1.8-8.19,1.74h-30.92c-2.49,0-4.86-.42-6.86-1.21-2.68-.96-4.71-2.66-5.52-4.64l-9.73-24.32c-12.66-1.91-25.04-4.9-36.83-8.89l-37.1,13.27c-2.09.77-4.38,1.16-6.85,1.11-.14,0-.28-.04-.41-.09-1.38-.03-2.8-.2-4.14-.51-1.56-.34-2.95-.87-4.11-1.57-.07-.04-.18-.14-.24-.2-.19-.19-.3-.45-.3-.72l-.13-42.4c-6.66-6.65-11.74-13.82-15.11-21.32l-42.26-5.77c-3.3-.44-6.09-1.65-7.86-3.31l.12,40.73c0,2.57,3.43,4.91,8.16,5.58l42.81,5.84c.35.05.65.27.79.6,2.59,5.9,6.25,11.56,10.88,16.82.33.38.34.93.02,1.32-.32.39-.86.48-1.3.23l-17.36-10.1c-.72-.42-1.35-.89-1.88-1.39l.12,40.73c0,1.42,1.04,2.81,2.92,3.92l21.78,12.69c1.01.58,2.2,1.03,3.63,1.38,3.3.81,7.08.63,10.1-.49l37.48-13.44c.11-.04.23-.06.34-.06Z"/>
          </g>
          <g class="cls-96">
            <g>
              <path class="cls-45" d="M1804.33,871.02l.13,45.02c0,1.23.57,2.46,1.75,3.6l23.05,21.65-.13-45.02-23.05-21.65c-1.18-1.1-1.75-2.37-1.75-3.6Z"/>
              <path class="cls-45" d="M1829.27,942.31c-.25,0-.5-.1-.7-.28l-23.05-21.65c-1.36-1.31-2.07-2.81-2.07-4.34l-.13-44.99v-.02h0c0-.56.45-1.02,1.02-1.02h0c.56,0,1.02.45,1.02,1.02v.02c0,1,.5,1.98,1.43,2.84l23.06,21.65c.21.19.32.46.32.74l.13,45.02c0,.41-.24.77-.61.94-.13.06-.27.08-.41.08ZM1805.36,875.34l.12,40.69c0,.98.48,1.95,1.44,2.87l21.32,20.03-.12-42.22-22.73-21.35s-.02-.02-.03-.02Z"/>
            </g>
            <g>
              <path class="cls-45" d="M2083.25,896.32l.13,45.02,23.27-21.7c1.23-1.14,1.8-2.42,1.8-3.69l-.13-44.97c0,1.23-.57,2.5-1.8,3.65l-23.27,21.7Z"/>
              <path class="cls-45" d="M2083.38,942.35c-.14,0-.27-.03-.41-.08-.37-.16-.61-.53-.61-.93l-.13-45.02c0-.28.11-.55.32-.74l23.27-21.7c.97-.9,1.47-1.9,1.47-2.9,0-.56.45-1.02,1.02-1.02h0c.56,0,1.02.45,1.02,1.02l.13,44.97c0,1.61-.74,3.15-2.12,4.43l-23.27,21.69c-.19.18-.44.27-.7.27ZM2084.26,896.76l.12,42.24,21.57-20.11c.98-.91,1.47-1.9,1.47-2.94l-.12-40.68s-.06.06-.1.09l-22.95,21.39Z"/>
            </g>
            <g>
              <path class="cls-45" d="M1890.76,939.8l.15,44.97c-.03-9.74,6.38-19.49,19.21-26.91,25.56-14.79,66.85-14.79,92.24,0,12.61,7.35,18.93,16.96,18.96,26.58l-.15-44.97c-.03-9.63-6.34-19.24-18.96-26.58-25.39-14.79-66.68-14.79-92.24,0-12.83,7.42-19.23,17.17-19.21,26.91Z"/>
              <path class="cls-45" d="M1890.9,985.79c-.56,0-1.02-.45-1.02-1.01l-.14-44.97h0c-.03-10.55,6.97-20.42,19.72-27.79,25.8-14.93,67.63-14.92,93.26,0,12.52,7.29,19.43,17.04,19.46,27.46l.15,44.97h0c0,.56-.45,1.02-1.01,1.02h0c-.56,0-1.02-.45-1.02-1.01h0c-.03-9.67-6.58-18.8-18.45-25.71-25.06-14.59-65.98-14.6-91.22,0-12.08,6.99-18.72,16.24-18.7,26.03h0c0,.56-.45,1.02-1.01,1.02h0ZM1891.77,939.8l.11,35.32c2.92-6.83,8.96-13.07,17.71-18.14,25.8-14.92,67.63-14.92,93.26,0,8.55,4.98,14.48,11.1,17.4,17.8l-.12-35.31c-.03-9.67-6.58-18.8-18.45-25.71-25.06-14.59-65.99-14.6-91.22,0-12.08,6.99-18.73,16.24-18.7,26.03h0Z"/>
            </g>
            <g>
              <path class="cls-50" d="M1828.67,982.98c-6.97-6.92-12.09-14.22-15.46-21.83l-42.79-5.84c-5.36-.73-9.1-3.49-9.03-6.66l.1-17.97c-.05-1.87,1.25-3.61,3.41-4.86,1.52-.88,3.48-1.52,5.7-1.8l42.81-5.87c3.45-7.56,8.7-14.94,15.75-21.86l-23.07-21.66c-2.89-2.73-2.12-6.25,1.75-8.49l21.96-12.71c3.87-2.24,9.93-2.68,14.63-.99l37.24,13.46c11.94-4.07,24.63-7.07,37.72-9.07l10.26-24.83c.48-1.29,1.59-2.42,3.12-3.3,2.16-1.25,5.15-1.99,8.38-1.96h30.96c5.46-.03,10.21,2.15,11.39,5.29l9.98,24.83c13.06,2.01,25.67,4.97,37.57,9.04l37.49-13.4c4.67-1.72,10.67-1.31,14.57.96l21.77,12.68c3.89,2.27,4.58,5.76,1.66,8.49l-23.26,21.69c6.97,6.92,12.14,14.3,15.46,21.83l42.74,5.87c5.41.7,9.15,3.46,9.08,6.63l-.1,17.97c.05,1.89-1.26,3.63-3.43,4.89-1.51.87-3.44,1.51-5.62,1.8l-42.96,5.84c-3.4,7.59-8.55,14.91-15.65,21.8l23.07,21.72c2.89,2.73,2.07,6.22-1.8,8.46l-21.96,12.7c-3.87,2.24-9.88,2.7-14.58,1.02l-37.34-13.46c-11.89,4.1-24.58,7.09-37.62,9.01l-10.21,24.92c-.5,1.26-1.61,2.38-3.12,3.26-2.17,1.26-5.18,2.01-8.43,1.98h-30.96c-5.46.03-10.21-2.15-11.44-5.26l-9.93-24.86c-13.01-1.92-25.67-4.97-37.57-9.04l-37.44,13.43c-4.72,1.69-10.73,1.28-14.62-.99l-21.77-12.68c-3.9-2.27-4.58-5.76-1.61-8.46l23.21-21.72ZM2001.9,966.43c25.56-14.79,25.69-38.75.3-53.54-25.39-14.79-66.68-14.79-92.24,0-25.5,14.75-25.64,38.72-.24,53.51,25.39,14.79,66.68,14.79,92.18.03"/>
              <path class="cls-45" d="M1971,1053.57c-.08,0-.15,0-.23,0h-31.06c-5.85,0-10.89-2.42-12.27-5.91l-9.71-24.31c-12.71-1.91-25.1-4.9-36.83-8.88l-37.11,13.31c-4.97,1.78-11.34,1.34-15.48-1.07l-21.77-12.68c-2.32-1.35-3.71-3.19-3.93-5.17-.18-1.74.58-3.49,2.15-4.92l22.43-20.99c-6.43-6.54-11.37-13.55-14.69-20.88l-42.23-5.77c-5.91-.8-9.99-3.96-9.91-7.69l.1-17.95c-.06-2.16,1.37-4.26,3.91-5.73,1.68-.97,3.78-1.64,6.08-1.93l42.24-5.8c3.43-7.35,8.47-14.38,14.98-20.91l-22.3-20.94c-1.52-1.43-2.24-3.18-2.03-4.92.23-2,1.64-3.85,3.97-5.19l21.96-12.7c4.16-2.41,10.53-2.85,15.48-1.07l36.91,13.34c11.43-3.87,23.87-6.87,36.98-8.91l10.04-24.3c.54-1.45,1.78-2.77,3.55-3.79,2.4-1.39,5.63-2.04,8.9-2.1h31.06c5.88,0,10.9,2.44,12.23,5.95l9.75,24.27c13.13,2.05,25.52,5.03,36.83,8.88l37.16-13.28c4.91-1.81,11.26-1.38,15.42,1.04l21.77,12.67c2.31,1.35,3.71,3.18,3.93,5.16.19,1.75-.55,3.5-2.09,4.95l-22.5,20.98c6.46,6.55,11.39,13.57,14.69,20.88l42.18,5.79c5.94.76,10.04,3.92,9.96,7.66l-.1,17.95c.06,2.17-1.38,4.28-3.95,5.76-1.66.96-3.73,1.63-6,1.93l-42.4,5.77c-3.4,7.41-8.4,14.42-14.88,20.86l22.3,20.99c1.53,1.44,2.22,3.13,2.01,4.87-.23,2-1.66,3.85-4.01,5.21l-21.96,12.7c-4.17,2.41-10.51,2.86-15.43,1.1l-37-13.34c-11.47,3.93-23.88,6.91-36.89,8.86l-9.99,24.38c-.57,1.44-1.8,2.74-3.55,3.75-2.36,1.37-5.45,2.12-8.72,2.12ZM1939.82,1051.53h30.96c2.89-.05,5.84-.64,7.92-1.84,1.35-.78,2.27-1.73,2.68-2.75l10.21-24.92c.14-.33.44-.57.79-.62,13.22-1.94,25.81-4.96,37.44-8.97.22-.08.46-.07.68,0l37.34,13.46c4.32,1.56,10.09,1.15,13.72-.94l21.96-12.7c1.78-1.03,2.85-2.34,3-3.68.13-1.08-.35-2.18-1.39-3.16l-23.07-21.72c-.2-.19-.32-.45-.32-.73,0-.28.11-.54.31-.74,6.81-6.61,12-13.84,15.43-21.49.15-.32.44-.54.79-.59l42.96-5.84c2-.26,3.81-.84,5.25-1.67,1.9-1.1,2.96-2.55,2.93-3.98l.1-18c.06-2.64-3.39-4.99-8.19-5.61l-42.75-5.87c-.35-.05-.65-.27-.79-.6-3.32-7.54-8.45-14.78-15.24-21.52-.2-.19-.31-.46-.3-.74,0-.28.12-.54.32-.73l23.26-21.69c1.08-1.01,1.59-2.13,1.46-3.24-.15-1.33-1.19-2.61-2.94-3.63l-21.77-12.67c-3.67-2.14-9.3-2.5-13.71-.88l-37.5,13.4c-.22.08-.45.08-.67,0-11.46-3.92-24.04-6.95-37.39-9-.35-.05-.66-.29-.79-.63l-9.98-24.83c-1.03-2.73-5.36-4.63-10.44-4.65h-30.96c-.06,0-.13,0-.2,0-2.88,0-5.67.66-7.68,1.83-1.36.79-2.29,1.75-2.67,2.78l-10.27,24.86c-.14.33-.44.56-.79.62-13.33,2.04-25.97,5.08-37.54,9.03-.22.08-.46.07-.68,0l-37.24-13.46c-4.36-1.56-10.16-1.18-13.78.91l-21.96,12.7c-1.76,1.02-2.81,2.32-2.97,3.67-.13,1.1.36,2.21,1.41,3.2l23.07,21.66c.2.19.32.45.32.73,0,.28-.11.54-.31.74-6.85,6.72-12.07,13.97-15.54,21.56-.15.32-.44.54-.79.58l-42.81,5.87c-2.05.26-3.88.83-5.33,1.67-1.88,1.09-2.93,2.53-2.9,3.95l-.1,18c-.06,2.63,3.37,5,8.15,5.65l42.8,5.84c.35.05.65.27.79.6,3.34,7.56,8.47,14.8,15.24,21.52.2.19.31.46.3.74,0,.28-.12.54-.32.73l-23.21,21.72c-1.1,1.01-1.62,2.11-1.51,3.21.14,1.32,1.18,2.61,2.93,3.63l21.77,12.67c3.65,2.12,9.31,2.5,13.77.91l37.44-13.43c.21-.08.45-.08.67,0,11.89,4.06,24.47,7.09,37.39,9,.36.05.66.29.8.63l9.93,24.86c1.06,2.69,5.42,4.62,10.38,4.62h.11ZM1955.8,978.48c-16.89,0-33.77-3.73-46.6-11.2-12.57-7.32-19.48-17.11-19.47-27.57.02-10.51,7.02-20.35,19.72-27.7,25.8-14.93,67.63-14.92,93.26,0,12.56,7.32,19.48,17.1,19.46,27.56-.02,10.52-7.03,20.38-19.76,27.74h0c-12.87,7.45-29.75,11.17-46.61,11.17ZM1956.14,902.82c-16.52,0-33.05,3.65-45.67,10.95-12.04,6.97-18.69,16.18-18.7,25.94-.02,9.7,6.54,18.87,18.46,25.81,25.08,14.6,65.97,14.61,91.16.03,12.07-6.99,18.73-16.21,18.75-25.98.02-9.7-6.54-18.86-18.45-25.8-12.53-7.3-29.03-10.95-45.55-10.95Z"/>
            </g>
          </g>
        </g>
      </g>
    </g>
    <g>
      <g>
        <path class="cls-50" d="M2108,1316.59c7.36,4.26,7.4,11.16.09,15.42s-19.2,4.25-26.56,0-7.39-11.16-.08-15.41c7.31-4.26,19.2-4.26,26.55,0Z"/>
        <path class="cls-159" d="M2094.83,1336.2c-4.99,0-9.99-1.1-13.81-3.31-3.9-2.25-6.04-5.31-6.05-8.61,0-3.28,2.11-6.32,5.96-8.56,7.58-4.41,19.95-4.41,27.58,0h0c3.9,2.26,6.05,5.31,6.05,8.61,0,3.28-2.11,6.32-5.96,8.56-3.79,2.21-8.78,3.31-13.77,3.31ZM2094.71,1314.41c-4.62,0-9.24,1.02-12.75,3.06-3.2,1.86-4.96,4.28-4.95,6.8,0,2.54,1.79,4.98,5.03,6.85,7.07,4.09,18.53,4.09,25.54,0,3.19-1.86,4.96-4.28,4.95-6.8,0-2.55-1.79-4.98-5.03-6.86h0c-3.53-2.04-8.16-3.06-12.79-3.06Z"/>
      </g>
      <path class="cls-70" d="M2094.81,1329.16c-2.87,0-5.64-.65-7.61-1.8-1.58-.92-2.49-2.04-2.49-3.09,0-1.03.89-2.15,2.44-3.05,1.95-1.14,4.72-1.79,7.58-1.79,2.86,0,5.64.65,7.61,1.79,1.58.92,2.49,2.04,2.5,3.09,0,1.03-.89,2.14-2.44,3.05-1.95,1.14-4.72,1.79-7.58,1.79Z"/>
    </g>
    <path class="cls-45" d="M2108.22,1267.29c-3.08,0-6.06-.7-8.18-1.93-1.7-.98-2.68-2.19-2.68-3.32,0-1.11.96-2.3,2.62-3.28,2.1-1.22,5.07-1.92,8.14-1.92s6.06.7,8.17,1.93c1.7.98,2.68,2.19,2.68,3.32,0,1.11-.95,2.3-2.62,3.28-2.1,1.22-5.07,1.92-8.14,1.92Z"/>
  </g>
  <g>
    <path class="cls-159" d="M1614.29,1212.31c-.27,0-.55-.07-.81-.22l-370.2-217.36c-3.63-2.1-5.81-5.87-5.82-10.07,0-4.21,2.16-7.98,5.8-10.1l150.16-87.26c.76-.45,1.73-.19,2.18.57.44.76.19,1.73-.57,2.18l-150.16,87.26c-2.65,1.54-4.22,4.28-4.22,7.34,0,3.06,1.59,5.8,4.24,7.33l370.21,217.37c.76.45,1.01,1.42.57,2.18-.3.5-.83.78-1.37.78Z"/>
    <path class="cls-159" d="M475.2,1755.48c-.27,0-.55-.07-.81-.22l-370.21-217.36c-3.63-2.1-5.81-5.87-5.82-10.07,0-4.21,2.16-7.98,5.8-10.1l150.16-87.26c.76-.45,1.73-.19,2.18.57.44.76.19,1.73-.57,2.18l-150.16,87.26c-2.65,1.54-4.22,4.28-4.22,7.34,0,3.06,1.59,5.8,4.24,7.32l370.22,217.37c.76.45,1.01,1.42.57,2.18-.3.5-.83.78-1.37.78Z"/>
    <path class="cls-159" d="M807.99,1749.52c-.54,0-1.08-.28-1.37-.78-.44-.76-.19-1.73.57-2.18l317.04-186.88c4.02-2.37,6.4-6.57,6.38-11.23-.02-4.66-2.44-8.84-6.49-11.16l-164.66-94.94c-.76-.44-1.02-1.41-.58-2.18.44-.77,1.43-1.01,2.18-.58l164.66,94.94c5.03,2.9,8.05,8.1,8.08,13.9.03,5.81-2.94,11.04-7.95,14l-317.04,186.88c-.26.15-.53.22-.81.22Z"/>
    <path class="cls-159" d="M1418.45,1483.15c-.27,0-.55-.07-.8-.21l-301.66-174.16c-.76-.44-1.02-1.42-.58-2.18.44-.77,1.43-1.01,2.18-.58l301.66,174.16c.76.44,1.02,1.42.58,2.18-.3.51-.83.8-1.38.8Z"/>
    <path class="cls-159" d="M1004.55,1009.5c-.55,0-1.08-.29-1.37-.79-.44-.76-.19-1.73.57-2.18l261.65-152.06c.76-.45,1.73-.19,2.18.57.44.76.19,1.73-.57,2.18l-261.65,152.06c-.26.15-.53.22-.8.22Z"/>
    <g>
      <g>
        <g>
          <g>
            <path class="cls-11" d="M840.61,367.8c-5.61-3.26-13.37-2.84-22.03,2.15L169.12,745.01l-.14.07c-9.01,5.13-17.05,14.27-22.73,24.6-5.06,9.28-8.24,19.61-8.18,28.89v.35l1.32,475.47c0,9.7,3.46,16.63,9.01,19.89l-48.09-27.99c-5.54-3.19-9.01-10.05-9.01-19.89l-1.39-475.33v-.48c0-9.35,3.12-19.54,8.25-28.89,5.61-10.32,13.65-19.4,22.73-24.67l649.52-375.07c8.73-4.99,16.49-5.4,22.1-2.08l48.09,27.92Z"/>
            <path class="cls-45" d="M148.41,1295.86c-.27,0-.55-.07-.8-.22h0l-48.08-27.99c-6.32-3.64-9.8-11.19-9.8-21.26l-1.38-475.81c0-9.2,3-19.74,8.44-29.66,6.01-11.06,14.29-20.04,23.32-25.28l649.52-375.08c8.95-5.11,17.36-5.84,23.71-2.06l48.06,27.91s.01,0,.01.01h0c.76.44,1.01,1.41.57,2.18-.44.75-1.43,1.01-2.17.57-5.37-3.1-12.63-2.35-20.45,2.15L169.91,746.39c-8.52,4.84-16.38,13.36-22.27,24.05-5.2,9.56-8.04,19.56-7.98,28.12l1.32,475.81c0,8.71,3,15.45,8.23,18.52.75.45,1.01,1.42.57,2.18-.3.51-.83.79-1.37.79ZM784.3,339.31c-3.97,0-8.43,1.35-13.1,4.02L121.69,718.4c-8.53,4.94-16.38,13.49-22.12,24.05-5.19,9.47-8.05,19.46-8.05,28.14v.49l1.38,475.32c0,8.89,2.92,15.46,8.21,18.51l39.53,23.01c-1.85-3.73-2.84-8.34-2.84-13.53l-1.32-475.46c-.07-9.43,2.9-19.97,8.37-30,6.17-11.21,14.46-20.17,23.34-25.22l649.58-375.14c4.66-2.68,9.19-4.16,13.37-4.42l-39.43-22.89c-2.18-1.29-4.68-1.93-7.41-1.93Z"/>
          </g>
          <path class="cls-31" d="M169.12,745.01l-.14.07c-9.01,5.13-17.05,14.27-22.73,24.6-5.06,9.28-8.24,19.61-8.18,28.89v.35l-48.16-27.85v-.48c0-9.35,3.12-19.54,8.25-28.89,5.61-10.32,13.65-19.4,22.73-24.67l48.23,27.99Z"/>
          <g>
            <g class="cls-182">
              <path d="M142.11,1397.1c-17.11,9.88-17.2,25.93-.2,35.81l411.41,239.09c17,9.88,44.71,9.88,61.82,0l649.63-375.06c17.16-9.9,17.2-25.93.2-35.81l-411.41-239.09c-17-9.88-44.66-9.9-61.82,0l-649.63,375.06Z"/>
            </g>
            <g>
              <path class="cls-50" d="M170.5,1292.12c-17.11,9.88-17.2,25.93-.2,35.81l411.41,239.09c17,9.88,44.71,9.88,61.82,0l649.63-375.06c17.16-9.9,17.2-25.93.2-35.81l-411.41-239.09c-17-9.88-44.66-9.9-61.82,0l-649.63,375.06Z"/>
              <path class="cls-45" d="M612.58,1575.99c-11.48,0-22.96-2.53-31.68-7.6l-411.41-239.09c-8.7-5.06-13.49-11.88-13.48-19.21.01-7.39,4.87-14.25,13.69-19.34l649.63-375.06c17.52-10.13,45.98-10.14,63.41,0l411.41,239.09c8.71,5.06,13.51,11.88,13.5,19.21-.01,7.37-4.88,14.25-13.7,19.34l-649.63,375.07c-8.77,5.06-20.26,7.59-31.74,7.59ZM171.29,1293.5c-7.79,4.5-12.09,10.38-12.09,16.59,0,6.15,4.22,11.99,11.9,16.46l411.41,239.09c16.54,9.61,43.56,9.62,60.22,0l649.63-375.07c7.8-4.5,12.1-10.4,12.11-16.59,0-6.14-4.23-11.99-11.92-16.46l-411.41-239.09c-16.55-9.61-43.56-9.62-60.22,0l-649.63,375.06h0ZM170.5,1292.12h.04-.04Z"/>
            </g>
            <g>
              <path class="cls-110" d="M168.95,745.02c-17.11,9.88-30.96,33.88-30.91,53.54l1.35,475.84c.06,19.66,14,27.61,31.11,17.73l649.63-375.06c17.16-9.9,30.96-33.88,30.91-53.54l-1.35-475.84c-.06-19.66-13.96-27.63-31.11-17.73L168.95,745.02Z"/>
              <path class="cls-45" d="M156.6,1297.97c-3.23,0-6.24-.76-8.9-2.29-6.36-3.66-9.87-11.22-9.91-21.28l-1.35-475.84c-.06-20.16,14.16-44.8,31.71-54.92l649.63-375.06c8.83-5.09,17.21-5.88,23.6-2.19,6.36,3.66,9.87,11.22,9.9,21.3l1.35,475.84c.06,20.16-14.16,44.8-31.7,54.92l-649.63,375.06c-5.15,2.97-10.15,4.47-14.69,4.47ZM169.75,746.4c-16.66,9.62-30.17,33.01-30.11,52.15l1.35,475.84c.02,8.89,2.98,15.46,8.31,18.53,5.37,3.1,12.62,2.33,20.41-2.18l649.63-375.06c16.66-9.61,30.16-33.01,30.11-52.15l-1.35-475.84c-.02-8.9-2.97-15.48-8.3-18.56-5.37-3.08-12.62-2.31-20.42,2.2L169.75,746.4Z"/>
            </g>
            <g>
              <path class="cls-50" d="M156.6,1254.42c-2.98,0-3.22-6.15-3.23-8.03l-1.35-447.87c-.04-14.67,11.14-34.01,23.92-41.39l649.63-375.06c3.73-2.15,6.09-2.38,6.93-2.38,3.03,0,3.2,6.7,3.21,8.04l1.34,447.88c.04,14.67-11.14,34.01-23.92,41.39l-649.63,375.06c-3.71,2.14-6.06,2.37-6.9,2.37Z"/>
              <path class="cls-45" d="M156.6,1256.01c-3.08,0-4.8-3.41-4.82-9.61l-1.35-447.87c-.04-15.15,11.5-35.14,24.71-42.77l649.63-375.06c3.92-2.26,6.53-2.6,7.73-2.6,4.29,0,4.79,6.73,4.8,9.63l1.34,447.88c.04,15.15-11.5,35.14-24.71,42.77l-649.63,375.06c-3.9,2.24-6.5,2.58-7.7,2.58ZM832.5,381.27c-.55,0-2.64.16-6.14,2.18L176.73,758.51c-12.36,7.14-23.16,25.83-23.12,40l1.35,447.87c.01,4.15.98,6.44,1.64,6.44.55,0,2.64-.16,6.11-2.16l649.63-375.06c12.35-7.14,23.16-25.83,23.12-40l-1.34-447.88c-.02-3.94-.97-6.45-1.62-6.45Z"/>
            </g>
            <path class="cls-45" d="M139.26,1237.67c-.27,0-.55-.07-.8-.22l-48.1-27.89c-.76-.44-1.02-1.41-.58-2.17.44-.77,1.42-1.03,2.17-.58l48.1,27.89c.76.44,1.02,1.41.58,2.17-.29.51-.83.8-1.37.8Z"/>
            <path class="cls-11" d="M1306.27,1235.03c.07,6.5-4.19,13-12.86,17.97l-649.64,375.09c-2.73,1.61-5.73,2.87-8.88,3.92-7.2,2.45-15.38,3.57-23.56,3.43h-.07c-7.83-.14-15.52-1.47-22.23-3.99-2.52-.98-4.89-2.1-7.06-3.36l-411.38-239.04c-8.46-4.96-12.72-11.4-12.72-17.9l-.28-60.96c.07,6.36,4.33,12.79,12.72,17.76l411.38,239.04c2.24,1.33,4.69,2.45,7.34,3.43,6.71,2.52,14.47,3.85,22.23,3.99v-.07c8.18.14,16.43-.98,23.63-3.5,3.08-1.05,6.01-2.31,8.67-3.85l649.64-375.09c8.53-4.9,12.86-11.54,12.86-17.97l.21,61.11Z"/>
            <path class="cls-45" d="M193.86,1404.13c-.88,0-1.59-.72-1.59-1.59v-60.89c0-.88.72-1.59,1.59-1.59s1.59.72,1.59,1.59v60.89c0,.88-.72,1.59-1.59,1.59Z"/>
            <path class="cls-45" d="M670.19,1614.44c-.88,0-1.59-.71-1.59-1.59v-61.24c0-.88.71-1.59,1.59-1.59s1.59.72,1.59,1.59v61.24c0,.88-.72,1.59-1.59,1.59Z"/>
            <path class="cls-159" d="M634.88,1570.83v61.18c-7.2,2.45-15.38,3.57-23.56,3.43h-.07c-7.83-.14-15.52-1.47-22.23-3.99v-61.04c6.71,2.52,14.47,3.85,22.23,3.99v-.07c8.18.14,16.43-.98,23.63-3.5Z"/>
            <path class="cls-45" d="M612.79,1637.03c-.5,0-.99,0-1.5-.01-11.54-.22-22.22-2.91-30.15-7.56l-411.37-239.04c-8.71-5.11-13.51-11.96-13.51-19.27l-.28-60.94h0v-.02c0-.88.7-1.59,1.58-1.6h.01c.87,0,1.58.7,1.59,1.57h0c.07,6.08,4.31,11.9,11.94,16.41l411.37,239.03c7.51,4.37,17.57,6.91,28.37,7.19.14-.04.19-.03.43-.06,12.01.09,23.15-2.32,31.48-7.13l649.65-375.09c7.67-4.4,12.07-10.45,12.07-16.59,0-.88.71-1.59,1.59-1.59h0c.88,0,1.59.71,1.59,1.59l.21,61.11c.08,7.39-4.78,14.26-13.67,19.36l-649.63,375.09c-8.41,4.9-19.64,7.57-31.77,7.57ZM159.21,1320.09l.24,51.06c0,6.14,4.24,12.01,11.94,16.53l411.37,239.04c7.47,4.38,17.6,6.91,28.52,7.13,12.34.17,23.42-2.31,31.68-7.13l649.65-375.09c7.85-4.5,12.14-10.38,12.07-16.57h0s-.17-51.2-.17-51.2c-2.33,3.54-5.9,6.78-10.51,9.43l-649.64,375.09c-8.72,5.04-20.32,7.84-32.7,7.56-.14.04-.28.07-.44.06-11.49-.22-22.27-2.93-30.34-7.63l-411.38-239.04c-4.52-2.67-7.99-5.81-10.28-9.23Z"/>
            <path class="cls-159" d="M696.36,1331.66c-11.39,6.58-11.45,17.23-.13,23.81l101.56,59.02c11.32,6.58,29.71,6.58,41.1,0l190.26-109.85c11.45-6.61,11.51-17.27.2-23.84l-101.56-59.02c-11.32-6.58-29.71-6.58-41.16.04l-190.26,109.85Z"/>
            <g>
              <path class="cls-159" d="M654.67,1078.3c-4.12,2.38-4.1,6.22-.05,8.58l39.61,23.02c4.09,2.38,10.69,2.38,14.81,0l46.48-26.83c4.12-2.38,4.14-6.2.05-8.58l-39.61-23.02c-4.06-2.36-10.69-2.38-14.81,0l-46.48,26.83Z"/>
              <path class="cls-159" d="M739.13,1029.54c-4.12,2.38-4.1,6.22-.05,8.58l39.61,23.02c4.09,2.38,10.69,2.38,14.81,0l46.48-26.83c4.12-2.38,4.14-6.2.05-8.58l-39.61-23.02c-4.06-2.36-10.69-2.38-14.81,0l-46.48,26.83Z"/>
              <path class="cls-159" d="M900.6,1025.53c-4.12,2.38-4.1,6.22-.05,8.58l39.61,23.02c4.09,2.38,10.69,2.38,14.81,0l46.48-26.83c4.12-2.38,4.14-6.2.05-8.58l-39.61-23.02c-4.06-2.36-10.69-2.38-14.81,0l-46.48,26.83Z"/>
              <path class="cls-159" d="M823.59,980.77c-4.12,2.38-4.1,6.22-.05,8.58l39.61,23.02c4.09,2.38,10.69,2.38,14.81,0l46.48-26.83c4.12-2.38,4.14-6.2.05-8.58l-39.61-23.02c-4.06-2.36-10.69-2.38-14.81,0l-46.48,26.83Z"/>
              <path class="cls-159" d="M816.14,1074.29c-4.12,2.38-4.1,6.22-.05,8.58l39.61,23.02c4.09,2.38,10.69,2.38,14.81,0l46.48-26.83c4.12-2.38,4.14-6.2.05-8.58l-39.61-23.02c-4.06-2.36-10.69-2.38-14.81,0l-46.48,26.83Z"/>
              <path class="cls-159" d="M808.7,1167.81c-4.12,2.38-4.1,6.22-.05,8.58l39.61,23.02c4.05,2.36,10.69,2.38,14.81,0l46.48-26.83c4.12-2.38,4.1-6.22.05-8.58l-39.61-23.02c-4.05-2.36-10.69-2.38-14.81,0l-46.48,26.83Z"/>
              <path class="cls-159" d="M731.68,1123.06c-4.12,2.38-4.1,6.22-.05,8.58l39.61,23.02c4.09,2.38,10.69,2.38,14.81,0l46.48-26.83c4.12-2.38,4.14-6.2.05-8.58l-39.61-23.02c-4.06-2.36-10.69-2.38-14.81,0l-46.48,26.83Z"/>
              <g class="cls-96">
                <path class="cls-159" d="M316.79,1273.37c-4.08,2.36-4.1,6.22-.05,8.58l39.61,23.02c4.09,2.38,10.73,2.36,14.81,0l46.51-26.85c4.12-2.38,4.14-6.2.05-8.58l-39.61-23.02c-4.06-2.36-10.69-2.38-14.81,0l-46.51,26.85Z"/>
                <path class="cls-159" d="M232.33,1322.13c-4.08,2.36-4.1,6.22-.05,8.58l39.61,23.02c4.09,2.38,10.73,2.36,14.81,0l46.51-26.85c4.12-2.38,4.14-6.2.05-8.58l-39.61-23.02c-4.06-2.36-10.69-2.38-14.81,0l-46.51,26.85Z"/>
                <path class="cls-159" d="M393.81,1318.13c-4.08,2.36-4.1,6.22-.05,8.58l39.61,23.02c4.09,2.38,10.73,2.36,14.81,0l46.51-26.85c4.12-2.38,4.14-6.2.05-8.58l-39.61-23.02c-4.06-2.36-10.69-2.38-14.81,0l-46.51,26.85Z"/>
                <path class="cls-159" d="M309.35,1366.89c-4.08,2.36-4.1,6.22-.05,8.58l39.61,23.02c4.09,2.38,10.73,2.36,14.81,0l46.51-26.85c4.12-2.38,4.14-6.2.05-8.58l-39.61-23.02c-4.06-2.36-10.69-2.38-14.81,0l-46.51,26.85Z"/>
              </g>
              <path class="cls-159" d="M401.25,1224.61c-4.08,2.36-4.1,6.22-.05,8.58l39.61,23.02c4.09,2.38,10.73,2.36,14.81,0l46.51-26.85c4.12-2.38,4.14-6.2.05-8.58l-39.61-23.02c-4.05-2.36-10.69-2.38-14.81,0l-46.51,26.85Z"/>
              <path class="cls-159" d="M386.37,1411.65c-4.08,2.36-4.1,6.22-.05,8.58l39.61,23.02c4.06,2.36,10.72,2.36,14.81,0l46.51-26.85c4.12-2.38,4.1-6.22.05-8.58l-39.61-23.02c-4.06-2.36-10.69-2.38-14.81,0l-46.51,26.85Z"/>
              <path class="cls-159" d="M470.82,1362.88c-4.08,2.36-4.1,6.22-.05,8.58l39.61,23.02c4.06,2.36,10.72,2.36,14.81,0l46.51-26.85c4.12-2.38,4.1-6.22.05-8.58l-39.61-23.02c-4.06-2.36-10.69-2.38-14.81,0l-46.51,26.85Z"/>
              <path class="cls-159" d="M555.29,1314.12c-4.08,2.36-4.1,6.22-.05,8.58l39.61,23.02c4.06,2.36,10.72,2.36,14.81,0l215.43-124.38c4.12-2.38,4.1-6.22.05-8.58l-39.61-23.02c-4.05-2.36-10.69-2.38-14.81,0l-215.43,124.38Z"/>
              <g class="cls-96">
                <path class="cls-159" d="M562.73,1220.6c-4.08,2.36-4.1,6.22-.05,8.58l39.61,23.02c4.09,2.38,10.73,2.36,14.81,0l46.51-26.85c4.12-2.38,4.14-6.2.05-8.58l-39.61-23.02c-4.05-2.36-10.69-2.38-14.81,0l-46.51,26.85Z"/>
                <path class="cls-159" d="M478.27,1269.36c-4.08,2.36-4.1,6.22-.05,8.58l39.61,23.02c4.09,2.38,10.73,2.36,14.81,0l46.51-26.85c4.12-2.38,4.14-6.2.05-8.58l-39.61-23.02c-4.06-2.36-10.69-2.38-14.81,0l-46.51,26.85Z"/>
              </g>
              <path class="cls-159" d="M647.22,1171.82c-4.12,2.38-4.1,6.22-.05,8.58l39.61,23.02c4.09,2.38,10.69,2.38,14.81,0l46.48-26.83c4.12-2.38,4.14-6.2.05-8.58l-39.61-23.02c-4.05-2.36-10.69-2.38-14.81,0l-46.48,26.83Z"/>
              <path class="cls-159" d="M570.21,1127.06c-4.12,2.38-4.1,6.22-.05,8.58l39.61,23.02c4.09,2.38,10.69,2.38,14.81,0l46.48-26.83c4.12-2.38,4.14-6.2.05-8.58l-39.61-23.02c-4.06-2.36-10.69-2.38-14.81,0l-46.48,26.83Z"/>
              <path class="cls-159" d="M485.71,1175.84c-4.08,2.36-4.1,6.22-.05,8.58l39.61,23.02c4.09,2.38,10.73,2.36,14.81,0l46.51-26.85c4.12-2.38,4.14-6.2.05-8.58l-39.61-23.02c-4.05-2.36-10.69-2.38-14.81,0l-46.51,26.85Z"/>
              <path class="cls-159" d="M977.62,1070.29c-4.12,2.38-4.1,6.22-.05,8.58l39.61,23.02c4.06,2.36,10.69,2.38,14.81,0l46.48-26.83c4.12-2.38,4.1-6.22.05-8.58l-39.61-23.02c-4.06-2.36-10.69-2.38-14.81,0l-46.48,26.83Z"/>
              <path class="cls-159" d="M893.16,1119.05c-4.12,2.38-4.1,6.22-.05,8.58l39.61,23.02c4.05,2.36,10.69,2.38,14.81,0l46.48-26.83c4.12-2.38,4.1-6.22.05-8.58l-39.61-23.02c-4.06-2.36-10.69-2.38-14.81,0l-46.48,26.83Z"/>
            </g>
          </g>
          <path class="cls-45" d="M778.84,394.5c-.27,0-.55-.07-.8-.22l-48.17-27.96c-.76-.44-1.01-1.41-.57-2.18.44-.76,1.41-1.02,2.18-.57l48.17,27.96c.76.44,1.01,1.41.57,2.18-.29.5-.83.79-1.37.79Z"/>
          <path class="cls-45" d="M138.14,886.91c-.27,0-.55-.07-.8-.22l-48.17-28.11c-.76-.44-1.01-1.42-.57-2.18.44-.77,1.41-1.02,2.18-.57l48.17,28.11c.76.44,1.01,1.42.57,2.18-.29.51-.83.79-1.37.79Z"/>
          <path class="cls-110" d="M148.41,1295.86c-.27,0-.55-.07-.8-.22h0l-48.08-27.99c-6.32-3.64-9.8-11.19-9.8-21.26l-1.38-475.81c0-9.2,3-19.74,8.44-29.66,6.01-11.06,14.29-20.04,23.32-25.28l649.52-375.08c8.95-5.11,17.36-5.84,23.71-2.06l48.06,27.91s.01,0,.01.01h0c.76.44,1.01,1.41.57,2.18-.44.75-1.43,1.01-2.17.57-5.37-3.1-12.63-2.35-20.45,2.15L169.91,746.39c-8.52,4.84-16.38,13.36-22.27,24.05-5.2,9.56-8.04,19.56-7.98,28.12l1.32,475.81c0,8.71,3,15.45,8.23,18.52.75.45,1.01,1.42.57,2.18-.3.51-.83.79-1.37.79ZM784.3,339.31c-3.97,0-8.43,1.35-13.1,4.02L121.69,718.4c-8.53,4.94-16.38,13.49-22.12,24.05-5.19,9.47-8.05,19.46-8.05,28.14v.49l1.38,475.32c0,8.89,2.92,15.46,8.21,18.51l39.53,23.01c-1.85-3.73-2.84-8.34-2.84-13.53l-1.32-475.46c-.07-9.43,2.9-19.97,8.37-30,6.17-11.21,14.46-20.17,23.34-25.22l649.58-375.14c4.66-2.68,9.19-4.16,13.37-4.42l-39.43-22.89c-2.18-1.29-4.68-1.93-7.41-1.93Z"/>
        </g>
        <g>
          <g>
            <path class="cls-159" d="M768.06,266.18c-5.89-3.45-14.04-2.94-23.03,2.21l-444.68,256.78c-4.13,2.38-8.04,5.55-11.66,9.28-9.11,9.34-16.24,22.19-19.13,34.69-.96,4.02-1.47,8.04-1.47,11.89l1.02,632.83c0,10.24,3.68,17.38,9.45,20.77l-36.16-20.94c-5.77-3.4-9.4-10.58-9.45-20.83l-1.02-632.88c0-3.79.45-7.75,1.41-11.77,2.89-12.51,9.96-25.3,19.13-34.69,3.56-3.74,7.58-6.96,11.71-9.34l444.68-256.72c9-5.21,17.15-5.66,23.04-2.32l36.16,21.05Z"/>
            <path class="cls-31" d="M288.68,534.45c-9.11,9.34-16.24,22.19-19.13,34.69l-36.22-20.94c2.89-12.51,9.96-25.3,19.13-34.69l36.22,20.94Z"/>
            <path class="cls-110" d="M278.55,1236.21c-.27,0-.55-.07-.8-.21l-36.16-20.94c-6.55-3.86-10.19-11.74-10.25-22.2l-1.02-632.89c0-4.01.49-8.1,1.46-12.15,2.96-12.82,10.08-25.74,19.54-35.43,3.69-3.87,7.87-7.19,12.06-9.61l444.67-256.72c9.17-5.3,17.91-6.12,24.62-2.33l36.07,21.01s.08.04.12.06c.75.45,1.01,1.42.57,2.18-.45.76-1.42,1.02-2.18.57l-.1-.06c-5.59-3.23-13.16-2.41-21.35,2.27l-444.67,256.78c-3.87,2.22-7.67,5.25-11.31,9.01-8.94,9.15-15.94,21.84-18.73,33.94-.95,3.95-1.42,7.82-1.42,11.53l1.01,632.83c0,9.22,3.08,16.11,8.67,19.39.75.45,1.01,1.42.57,2.18-.29.51-.83.79-1.37.79ZM723.42,244.57c-4.2,0-8.89,1.42-13.77,4.25l-444.67,256.72c-3.94,2.26-7.87,5.39-11.36,9.06-8.94,9.16-15.94,21.84-18.73,33.95-.91,3.82-1.37,7.65-1.37,11.42l1.02,632.88c.05,9.28,3.13,16.19,8.67,19.45l27.33,15.83c-1.98-3.89-3.02-8.72-3.02-14.28l-1.01-632.83c0-3.95.51-8.08,1.51-12.26,2.92-12.63,10.22-25.88,19.54-35.43,3.84-3.97,7.88-7.18,12-9.55l444.67-256.78c4.96-2.84,9.76-4.38,14.18-4.61l-27.31-15.9c-2.28-1.29-4.86-1.93-7.67-1.93Z"/>
            <path class="cls-110" d="M268.25,646.9c-.27,0-.55-.07-.8-.21l-36.16-20.94c-.76-.44-1.02-1.42-.58-2.18.45-.77,1.42-1.01,2.18-.58l36.16,20.94c.76.44,1.02,1.42.58,2.18-.3.51-.83.8-1.38.8Z"/>
            <path class="cls-45" d="M269.04,1188.63c-.27,0-.55-.07-.8-.22l-36.16-21c-.76-.44-1.01-1.41-.57-2.18.44-.76,1.41-1.03,2.18-.57l36.16,21c.76.44,1.01,1.41.57,2.18-.29.5-.83.79-1.37.79Z"/>
            <path class="cls-45" d="M721.08,283.78c-.27,0-.55-.07-.8-.22l-36.11-20.94c-.76-.44-1.02-1.41-.58-2.17.44-.77,1.42-1.03,2.17-.58l36.11,20.94c.76.44,1.02,1.41.58,2.17-.29.51-.83.8-1.37.8Z"/>
            <g>
              <path class="cls-110" d="M777.51,286.9c-.06-20.52-14.63-28.78-32.49-18.47l-444.66,256.73c-17.9,10.33-32.34,35.34-32.28,55.86l.18,64.19,509.43-294.12-.18-64.19Z"/>
              <path class="cls-110" d="M268.26,646.8c-.27,0-.55-.07-.8-.21-.49-.29-.8-.81-.8-1.37l-.19-64.19c-.06-21,14.78-46.69,33.08-57.25l444.66-256.73c9.2-5.31,17.93-6.11,24.59-2.28,6.61,3.8,10.26,11.66,10.29,22.12l.19,64.19c0,.57-.3,1.1-.8,1.39l-509.44,294.12c-.25.14-.52.21-.8.21ZM759.54,265.57c-4.17,0-8.85,1.42-13.72,4.24l-444.66,256.73c-17.42,10.05-31.54,34.49-31.49,54.48l.18,61.44,506.26-292.29-.19-63.26h0c-.02-9.28-3.12-16.17-8.69-19.38-2.27-1.31-4.86-1.96-7.69-1.96Z"/>
            </g>
            <g>
              <path class="cls-50" d="M268.26,645.21l.86,568.66c.06,20.57,14.59,28.85,32.49,18.52l444.66-256.73c17.86-10.31,32.34-35.34,32.28-55.91l-.86-568.66-509.43,294.12Z"/>
              <path class="cls-110" d="M287.06,1238.45c-3.36,0-6.48-.79-9.24-2.38-6.6-3.8-10.26-11.68-10.29-22.19l-.86-568.67c0-.57.3-1.09.8-1.38l509.44-294.12c.5-.29,1.09-.29,1.59,0,.49.29.8.81.8,1.38l.86,568.66c.06,21.02-14.78,46.73-33.08,57.29l-444.66,256.73c-5.38,3.1-10.61,4.68-15.35,4.68ZM269.85,646.13l.86,567.74c.02,9.32,3.12,16.22,8.7,19.44,5.63,3.23,13.23,2.42,21.4-2.3l444.66-256.73c17.42-10.05,31.54-34.52,31.49-54.53l-.86-565.91-506.26,292.29Z"/>
            </g>
          </g>
          <g>
            <path class="cls-50" d="M319.03,554.9c5.98-3.45,10.79-.71,10.81,6.16.02,6.81-4.76,15.15-10.74,18.6-5.98,3.45-10.79.65-10.81-6.16-.02-6.87,4.76-15.15,10.74-18.6Z"/>
            <path class="cls-50" d="M364.02,528.92c5.93-3.42,10.79-.71,10.81,6.16.02,6.81-4.81,15.18-10.74,18.6-5.98,3.45-10.79.65-10.81-6.16-.02-6.87,4.76-15.15,10.74-18.6Z"/>
            <path class="cls-50" d="M409.01,502.92c5.94-3.43,10.76-.68,10.78,6.2.02,6.83-4.77,15.19-10.71,18.62-5.99,3.46-10.82.65-10.84-6.18-.02-6.89,4.77-15.18,10.77-18.65Z"/>
          </g>
        </g>
        <path class="cls-45" d="M1221.11,1293.53c-.88,0-1.59-.72-1.59-1.59v-57.11c0-.88.72-1.59,1.59-1.59s1.59.71,1.59,1.59v57.11c0,.88-.71,1.59-1.59,1.59Z"/>
      </g>
      <g>
        <g>
          <g>
            <path class="cls-159" d="M309.7,900.65c-.81,0-1.63-.21-2.38-.64-1.49-.86-2.39-2.4-2.39-4.12l-.16-56.73c0-.57.3-1.1.8-1.39l433.21-250.13c.5-.29,1.09-.29,1.59,0,.49.29.8.81.8,1.37l.16,55.2c.01,4.89-2.61,9.46-6.85,11.91l-422.39,243.89c-.75.43-1.57.65-2.39.65ZM307.95,840.07l.16,55.81c0,.83.56,1.24.8,1.37.24.13.88.41,1.59,0l422.39-243.89c3.25-1.88,5.27-5.38,5.25-9.13l-.15-52.46-430.04,248.3Z"/>
            <path class="cls-11" d="M306.36,840.74c-.27,0-.55-.07-.8-.21-.49-.29-.8-.81-.8-1.37l-.17-62.22c0-.57.3-1.1.8-1.39l433.21-250.13c.5-.29,1.09-.29,1.59,0,.49.29.8.81.8,1.37l.17,62.22c0,.57-.3,1.1-.8,1.39l-433.21,250.13c-.25.14-.52.21-.8.21ZM307.78,777.84l.17,58.55,430.04-248.3-.17-58.55-430.04,248.3Z"/>
            <path class="cls-159" d="M306.19,778.51c-.27,0-.55-.07-.8-.21-.49-.29-.8-.81-.8-1.37l-.16-55.21c-.01-4.89,2.61-9.46,6.85-11.91l422.39-243.89c1.49-.85,3.27-.86,4.77,0,1.49.86,2.38,2.4,2.39,4.12l.16,56.74c0,.57-.3,1.1-.8,1.39l-433.21,250.13c-.25.14-.52.21-.8.21ZM736.05,468.47c-.24,0-.5.06-.78.22l-422.39,243.89c-3.25,1.88-5.27,5.38-5.25,9.13l.15,52.46,430.04-248.3-.16-55.81h0c0-.83-.55-1.23-.8-1.37-.14-.09-.44-.22-.8-.22Z"/>
          </g>
          <g>
            <path class="cls-11" d="M309.72,900.64c-.81,0-1.63-.21-2.38-.64-1.49-.86-2.39-2.4-2.39-4.12l-.49-174.17c-.01-4.89,2.61-9.46,6.85-11.91l48.08-27.76c.5-.29,1.09-.29,1.59,0,.49.29.8.81.8,1.37l.53,186.67c0,.57-.3,1.1-.8,1.39l-49.4,28.52c-.75.43-1.57.65-2.39.65ZM358.59,686.17l-45.7,26.38c-3.25,1.88-5.27,5.38-5.25,9.13l.49,174.17c0,.83.56,1.24.8,1.37.24.13.87.42,1.59,0l48.6-28.06-.52-183Z"/>
            <path class="cls-11" d="M631.44,715.36c-.27,0-.55-.07-.8-.21-.49-.29-.8-.81-.8-1.37l-.53-186.67c0-.57.3-1.1.8-1.39l54.15-31.26c.5-.29,1.09-.29,1.59,0,.49.29.8.81.8,1.37l.53,186.67c0,.57-.3,1.1-.8,1.39l-54.15,31.26c-.25.14-.52.21-.8.21ZM632.5,528.02l.52,183,50.97-29.43-.52-183-50.97,29.43Z"/>
            <path class="cls-11" d="M577.29,746.63c-.27,0-.55-.07-.8-.21-.49-.29-.8-.81-.8-1.37l-.53-186.67c0-.57.3-1.1.8-1.39l54.15-31.26c.5-.29,1.09-.29,1.59,0,.49.29.8.81.8,1.37l.53,186.67c0,.57-.3,1.1-.8,1.39l-54.15,31.26c-.25.14-.52.21-.8.21ZM578.35,559.28l.52,183,50.97-29.43-.52-183-50.97,29.43Z"/>
            <path class="cls-11" d="M523.15,777.89c-.27,0-.55-.07-.8-.21-.49-.29-.8-.81-.8-1.37l-.53-186.67c0-.57.3-1.1.8-1.39l54.15-31.26c.5-.29,1.09-.29,1.59,0,.49.29.8.81.8,1.37l.53,186.67c0,.57-.3,1.1-.8,1.39l-54.14,31.26c-.25.14-.52.21-.8.21ZM524.21,590.55l.53,183,50.96-29.43-.52-183-50.97,29.43Z"/>
            <path class="cls-11" d="M469,809.16c-.27,0-.55-.07-.8-.21-.49-.29-.8-.81-.8-1.37l-.53-186.67c0-.57.3-1.1.8-1.39l54.14-31.26c.5-.29,1.09-.29,1.59,0,.49.29.8.81.8,1.37l.53,186.67c0,.57-.3,1.1-.8,1.39l-54.15,31.26c-.25.14-.52.21-.8.21ZM470.07,621.81l.52,183,50.97-29.43-.53-183-50.96,29.43Z"/>
            <path class="cls-11" d="M414.86,840.42c-.27,0-.55-.07-.8-.21-.49-.29-.8-.81-.8-1.37l-.53-186.67c0-.57.3-1.1.8-1.39l54.15-31.26c.5-.29,1.09-.29,1.59,0,.49.29.8.81.8,1.37l.53,186.67c0,.57-.3,1.1-.8,1.39l-54.15,31.26c-.25.14-.52.21-.8.21ZM415.92,653.08l.52,183,50.97-29.43-.52-183-50.97,29.43Z"/>
            <path class="cls-11" d="M360.71,871.69c-.27,0-.55-.07-.8-.21-.49-.29-.8-.81-.8-1.37l-.53-186.67c0-.57.3-1.1.8-1.39l54.15-31.26c.5-.29,1.09-.29,1.59,0,.49.29.8.81.8,1.37l.53,186.67c0,.57-.3,1.1-.8,1.39l-54.15,31.26c-.25.14-.52.21-.8.21ZM361.77,684.34l.52,183,50.97-29.43-.52-183-50.97,29.43Z"/>
            <path class="cls-11" d="M685.59,684.1c-.27,0-.55-.07-.8-.21-.49-.29-.8-.81-.8-1.37l-.53-186.67c0-.57.3-1.1.8-1.39l49.4-28.52c1.49-.85,3.26-.87,4.76,0,1.49.86,2.39,2.4,2.39,4.12l.49,174.17c.01,4.89-2.61,9.46-6.85,11.91l-48.08,27.76c-.25.14-.52.21-.8.21ZM686.65,496.75l.52,183,45.7-26.38c3.25-1.88,5.27-5.38,5.25-9.13l-.49-174.17h0c0-.83-.56-1.24-.8-1.37-.24-.14-.88-.42-1.59,0l-48.6,28.06Z"/>
          </g>
        </g>
        <g>
          <path class="cls-70" d="M412.61,802.19c-3.44,0-6.65-.81-9.51-2.44l-43.2-24.66c-4.76-2.7-11.32-1.92-18.45,2.19l-3.18-5.51c9.17-5.3,17.96-6.09,24.79-2.22l43.2,24.65c4.77,2.72,11.33,1.95,18.45-2.16,7.68-4.43,14.91-12.09,20.37-21.58l42.96-74.41c6.03-10.43,14.1-18.92,22.72-23.89,9.17-5.3,17.97-6.08,24.77-2.2l43.23,24.64c4.78,2.73,11.3,1.96,18.44-2.16,7.68-4.43,14.92-12.09,20.38-21.58l42.95-74.4c6.01-10.42,14.07-18.9,22.7-23.88,9.17-5.3,17.98-6.09,24.78-2.22l-3.15,5.53c-4.76-2.7-11.32-1.93-18.46,2.19-7.67,4.43-14.91,12.09-20.38,21.55l-42.95,74.4c-6.01,10.44-14.08,18.93-22.71,23.91-9.18,5.3-17.99,6.07-24.79,2.17l-43.22-24.63c-4.74-2.7-11.29-1.94-18.43,2.18-7.67,4.43-14.91,12.09-20.4,21.56l-42.95,74.41c-6.01,10.43-14.07,18.92-22.7,23.9-5.32,3.08-10.52,4.63-15.28,4.63Z"/>
          <path class="cls-45" d="M706.39,555.09c6.31-3.64,11.45-.71,11.47,6.52.02,7.25-5.09,16.1-11.4,19.74-6.27,3.62-11.41.69-11.43-6.56-.02-7.23,5.09-16.08,11.36-19.7Z"/>
          <path class="cls-45" d="M601.84,678.45c6.31-3.64,11.45-.72,11.47,6.52.02,7.25-5.09,16.1-11.4,19.74-6.27,3.62-11.41.69-11.43-6.56-.02-7.23,5.09-16.08,11.36-19.7Z"/>
          <path class="cls-45" d="M513.09,660.24c6.31-3.64,11.45-.71,11.47,6.52.02,7.25-5.09,16.1-11.4,19.74-6.27,3.62-11.41.69-11.43-6.56-.02-7.23,5.09-16.08,11.36-19.7Z"/>
          <path class="cls-45" d="M434.94,778.43c6.31-3.64,11.45-.72,11.47,6.52.02,7.25-5.09,16.1-11.4,19.74-6.27,3.62-11.41.69-11.43-6.56-.02-7.23,5.09-16.08,11.36-19.7Z"/>
          <path class="cls-45" d="M339.8,758.68c6.31-3.64,11.45-.71,11.47,6.52.02,7.25-5.09,16.1-11.4,19.74-6.27,3.62-11.41.69-11.43-6.56-.02-7.23,5.09-16.08,11.36-19.7Z"/>
        </g>
        <g>
          <path class="cls-159" d="M682.13,827.35l.18,64.73,39.7-68.79c10.23,5.85,16.58,18.36,16.64,36.26.1,35.75-25.04,79.3-56.15,97.26-31.14,17.98-56.42,3.54-56.52-32.21-.1-35.75,25.02-79.28,56.15-97.26Z"/>
          <g class="cls-96">
            <path class="cls-159" d="M406.51,1005.46c10.23,5.85,16.58,18.36,16.64,36.26.1,35.75-25.02,79.28-56.17,97.27l-.18-64.73,39.72-68.8Z"/>
            <path class="cls-212" d="M366.76,1074.28l.19,64.69c-31.07,17.96-56.35,3.57-56.48-32.22-.13-35.72,25.02-79.27,56.1-97.23,15.6-8.98,29.74-9.93,39.92-4.08l-39.73,68.83Z"/>
          </g>
          <path class="cls-159" d="M580.68,945.46c.14,1.73.21,3.5.21,5.31.04,14.75-4.33,32.14-13.25,49.46-10.02,19.48-23.95,35.18-38.29,44.78l-4.79-61.84,56.12-37.71Z"/>
          <g class="cls-96">
            <path class="cls-70" d="M524.56,983.16l4.82,61.83c-1.59,1.06-3.12,2-4.65,2.88-12.88,7.47-25.83,9.88-36.48,5.71-11.83-4.71-18.53-16.65-19.77-32.36l55.77-37.54-4.82-62.19c1.65-1.12,3.35-2.12,5-3.12,12.88-7.41,25.83-9.82,36.42-5.65,11.88,4.71,18.59,16.89,19.83,32.71l-56.13,37.71Z"/>
            <path class="cls-159" d="M519.45,921.53l4.82,62.18-55.81,37.51c-.15-1.74-.22-3.52-.24-5.34-.1-14.83,4.24-32.31,13.23-49.76,9.96-19.34,23.77-34.98,38-44.59Z"/>
          </g>
          <path class="cls-70" d="M682.13,827.35c15.56-8.98,29.68-9.9,39.88-4.05l-39.7,68.79-.18-64.73Z"/>
        </g>
      </g>
      <path class="cls-11" d="M310.47,942.75c-.55,0-1.08-.29-1.38-.8-.44-.76-.17-1.73.58-2.18l433.52-250.32c.75-.43,1.72-.19,2.18.58.44.76.17,1.73-.58,2.18l-433.52,250.32c-.25.14-.52.21-.8.21Z"/>
      <path class="cls-11" d="M310.47,983.95c-.55,0-1.08-.29-1.38-.8-.44-.76-.17-1.73.58-2.18l433.52-250.31c.75-.44,1.72-.19,2.18.58.44.76.17,1.73-.58,2.18l-433.52,250.31c-.25.14-.52.21-.8.21Z"/>
    </g>
    <g>
      <g class="cls-182">
        <path class="cls-45" d="M1613.83,1574.27c95.67,55.24,96.17,144.83,1.08,200.1-95.09,55.26-249.71,55.24-345.38,0-95.71-55.26-96.3-144.86-1.22-200.12,95.09-55.26,249.8-55.24,345.51.02Z"/>
      </g>
      <g>
        <polygon class="cls-50" points="1475.39 1446.28 1475.07 1558.61 1474.73 1497.59 1475.04 1385.26 1475.39 1446.28"/>
        <path class="cls-45" d="M1475.07,1560.2c-.88,0-1.59-.71-1.59-1.59l-.34-61.02.32-112.34c0-.88.72-1.59,1.59-1.59h0c.88,0,1.59.71,1.59,1.59l.34,61.02h0s-.32,112.34-.32,112.34c0,.88-.71,1.59-1.59,1.59h0Z"/>
      </g>
      <g>
        <path class="cls-50" d="M1475.04,1301.26c67.42,0,128.56,15.83,172.89,41.43,44.31,25.59,71.83,60.93,72.02,99.98h-105.34c-.12-22.21-15.77-42.32-40.97-56.87-25.2-14.55-59.94-23.54-98.26-23.52l-.34-61.02"/>
        <path class="cls-45" d="M1719.95,1444.27h-105.33c-.88,0-1.59-.71-1.59-1.59-.12-20.9-14.38-40.6-40.18-55.49-26.03-15.04-60.6-23.31-97.34-23.31-.77-.02-1.7-.67-1.71-1.59l-.34-61.02c0-.42.16-.83.46-1.13.3-.3.71-.47,1.13-.47,65.49,0,127.18,14.79,173.68,41.64,46.77,27.01,72.63,63.01,72.81,101.36,0,.42-.17.83-.47,1.13-.3.3-.7.47-1.13.47ZM1616.18,1441.08h102.16c-.88-36.58-26.1-70.97-71.2-97.01-45.65-26.36-106.14-40.97-170.49-41.21l.33,57.85c36.75.22,71.31,8.62,97.47,23.73,26.17,15.11,40.93,35.17,41.74,56.65Z"/>
      </g>
      <g>
        <path class="cls-50" d="M1614.61,1442.67l-.32,196.32c-.12-22.21-15.77-42.32-40.97-56.87-25.2-14.55-59.94-23.54-98.26-23.52l.32-196.32c38.32-.02,73.06,8.97,98.26,23.52,25.2,14.55,40.85,34.65,40.97,56.87Z"/>
        <path class="cls-45" d="M1614.29,1640.59c-.88,0-1.59-.71-1.59-1.59-.12-20.9-14.38-40.6-40.17-55.49-26.03-15.04-60.6-23.31-97.34-23.31-.44,0-.92-.14-1.24-.47-.3-.3-.47-.7-.47-1.13l.32-196.32c0-.92.76-1.58,1.71-1.59,37.3,0,72.43,8.43,98.94,23.73,26.81,15.48,41.64,36.16,41.77,58.24h0s-.32,196.33-.32,196.33c0,.88-.71,1.59-1.59,1.59h0ZM1476.66,1557.02c36.75.22,71.3,8.62,97.46,23.73,19.69,11.37,32.92,25.54,38.61,41.02l.29-179.09c-.12-20.9-14.39-40.6-40.18-55.49-25.69-14.84-59.67-23.09-95.87-23.31l-.32,193.14Z"/>
      </g>
      <g>
        <path class="cls-45" d="M1502.96,1561.78h0c-.88,0-1.59-.72-1.59-1.59l.19-196.27c0-.88.71-1.59,1.59-1.59h0c.88,0,1.59.72,1.59,1.59l-.19,196.27c0,.88-.72,1.59-1.59,1.59Z"/>
        <path class="cls-45" d="M1530.8,1566.94h0c-.88,0-1.59-.72-1.59-1.59l.19-196.34c0-.88.71-1.59,1.59-1.59h0c.88,0,1.59.71,1.59,1.59l-.19,196.34c0,.88-.71,1.59-1.59,1.59Z"/>
        <path class="cls-45" d="M1558.69,1576.38h0c-.88,0-1.59-.72-1.59-1.59l.19-196.4c0-.88.71-1.59,1.59-1.59h0c.88,0,1.59.71,1.59,1.59l-.19,196.4c0,.88-.72,1.59-1.59,1.59Z"/>
        <path class="cls-45" d="M1586.52,1592.54h0c-.88,0-1.59-.72-1.59-1.59l.12-196.46c0-.88.72-1.59,1.59-1.59h0c.88,0,1.59.72,1.59,1.59l-.12,196.46c0,.88-.71,1.59-1.59,1.59Z"/>
      </g>
      <g>
        <polygon class="cls-110" points="1719.95 1442.67 1719.64 1639 1614.3 1639 1614.61 1442.67 1719.95 1442.67"/>
        <path class="cls-45" d="M1719.63,1640.59h-105.34c-.42,0-.83-.17-1.13-.47-.3-.3-.47-.7-.47-1.13l.32-196.32c0-.88.72-1.59,1.59-1.59h105.33c.42,0,.83.17,1.13.47.3.3.47.7.47,1.13l-.32,196.32c0,.88-.72,1.59-1.59,1.59ZM1615.89,1637.41h102.16l.32-193.14h-102.15l-.32,193.14Z"/>
      </g>
      <g>
        <path class="cls-110" d="M1475.39,1402.48l-.32,156.13c-76.64-.03-138.57,35.96-138.32,80.39l.32-156.13c-.25-44.43,61.69-80.42,138.32-80.39Z"/>
        <path class="cls-45" d="M1336.74,1640.59c-.88,0-1.59-.71-1.59-1.59h0v-.73l.32-155.41c-.08-14.59,6.44-28.9,18.86-41.39,24.91-25.04,71.25-40.59,120.96-40.59.43,0,.9.14,1.22.47.3.3.47.71.47,1.13l-.32,156.13c0,.88-.71,1.59-1.59,1.59h-.12c-48.88,0-94.34,15.18-118.67,39.64-11.62,11.67-17.81,24.95-17.95,38.45v.71c0,.88-.71,1.59-1.59,1.59h0ZM1473.79,1404.08c-48.32.3-93.12,15.43-117.2,39.64-11.81,11.88-18.01,25.41-17.93,39.15l-.29,138.33c3.08-8.29,8.34-16.26,15.65-23.6,24.65-24.78,70.32-40.26,119.46-40.57l.3-152.95Z"/>
      </g>
      <g>
        <path class="cls-70" d="M1475.04,1341.46l.34,61.02c-76.64-.03-138.57,35.96-138.32,80.39.18,22.18,15.79,42.26,41.01,56.82l-74.23,43.14c-44.34-25.6-71.89-60.95-72.11-99.96-.44-78.16,108.46-141.44,243.32-141.41Z"/>
        <path class="cls-45" d="M1303.84,1584.43c-.27,0-.55-.07-.8-.21-46.8-27.02-72.7-63.01-72.91-101.34-.14-25.36,11.2-50.25,32.83-71.98,43.58-43.81,124.8-71.03,211.97-71.03.99,0,1.7.67,1.71,1.59l.34,61.02c0,.42-.16.83-.47,1.13-.3.3-.7.47-1.13.47h-.1c-48.89,0-94.37,15.18-118.7,39.65-11.81,11.88-18.01,25.41-17.93,39.15.17,20.88,14.45,40.57,40.21,55.45.49.29.8.81.8,1.38s-.3,1.09-.79,1.37l-74.23,43.14c-.25.14-.53.22-.8.22ZM1473.46,1343.05c-85.8.3-165.48,27.1-208.24,70.09-21,21.12-32.04,45.23-31.9,69.72.2,36.92,25.24,71.74,70.52,98.13l71.09-41.31c-25.3-15.3-39.27-35.39-39.45-56.8-.08-14.61,6.44-28.92,18.86-41.41,24.65-24.79,70.31-40.27,119.46-40.58l-.33-57.84Z"/>
      </g>
      <g>
        <path class="cls-110" d="M1303.84,1582.83l-.32,156.13c-44.34-25.6-71.89-60.95-72.11-99.96l.32-156.13c.22,39.01,27.78,74.36,72.11,99.96Z"/>
        <path class="cls-45" d="M1303.52,1740.56c-.27,0-.55-.07-.8-.21-46.8-27.02-72.7-63.01-72.91-101.34l.32-156.14c0-.88.71-1.59,1.59-1.59h0c.88,0,1.59.71,1.59,1.59.2,37.14,25.53,72.15,71.32,98.59.49.29.8.81.8,1.39l-.32,156.13c0,.57-.3,1.09-.8,1.37-.25.14-.52.21-.8.21ZM1233.27,1505.42l-.27,133.58c.2,36.48,24.65,70.92,68.93,97.19l.31-152.44c-37.04-21.58-60.83-48.79-68.97-78.33Z"/>
      </g>
      <g>
        <polygon class="cls-50" points="1378.07 1539.69 1377.75 1695.82 1303.52 1738.96 1303.84 1582.83 1378.07 1539.69"/>
        <path class="cls-45" d="M1303.52,1740.56c-.27,0-.55-.07-.8-.21-.49-.29-.8-.81-.8-1.39l.32-156.13c0-.57.3-1.09.79-1.37l74.23-43.14c.5-.29,1.1-.29,1.6,0,.49.29.8.81.8,1.39l-.32,156.13c0,.57-.3,1.09-.79,1.37l-74.23,43.14c-.25.14-.53.22-.8.22ZM1305.43,1583.75l-.31,152.45,71.04-41.29.31-152.45-71.04,41.29Z"/>
      </g>
      <path class="cls-11" d="M1719.94,1527.24l-.3,111.75c.44,71.51-90.99,130.72-209.91,140.13-10.89.89-22.08,1.33-33.42,1.33s-23.34-.52-34.68-1.48c-53.57-4.37-101.51-18.82-138.11-40.02l.3-112.34c36.53,21.12,84.47,35.57,137.82,40.01,11.41.96,23.12,1.48,34.97,1.48s22.3-.44,33.12-1.26c118.77-9.34,210.13-68.25,210.21-139.61Z"/>
      <path class="cls-159" d="M1509.73,1666.84v112.27c-10.89.89-22.08,1.33-33.42,1.33s-23.34-.52-34.68-1.48v-112.34c11.41.96,23.12,1.48,34.97,1.48s22.3-.44,33.12-1.26Z"/>
      <path class="cls-45" d="M1476.32,1782c-65.48-.03-127.13-14.82-173.6-41.66-.49-.29-.8-.81-.8-1.39l.32-112.33c0-.57.3-1.09.8-1.37.5-.29,1.09-.29,1.59,0,45.99,26.56,107.08,41.2,172,41.24,86.44,0,166.87-26.91,209.92-70.22,20.54-20.68,31.51-44.19,31.8-68.11v-1.5c0-.88.72-1.59,1.6-1.59h0c.88,0,1.59.71,1.59,1.58,0,.51,0,1.02,0,1.53l-.31,110.81c.16,25.28-11.16,50.12-32.73,71.83-43.62,43.9-124.92,71.17-212.17,71.17ZM1305.11,1738.04c45.9,26.27,106.66,40.74,171.21,40.77,86.44,0,166.87-26.91,209.92-70.23,20.96-21.1,31.96-45.16,31.81-69.58l.25-88.58c-4.77,16.92-14.72,33.24-29.48,48.08-43.61,43.89-124.91,71.16-212.17,71.16-64.36-.04-125.03-14.33-171.22-40.31l-.31,108.67Z"/>
      <g>
        <path class="cls-50" d="M1719.95,1526.67c.5,78.05-108.52,141.41-243.32,141.41-67.4-.03-128.46-15.85-172.8-41.45l74.23-43.14c25.22,14.56,59.93,23.53,98.28,23.53,76.58,0,138.51-36,138.26-80.36h105.34Z"/>
        <path class="cls-45" d="M1476.64,1669.68c-65.47-.04-127.12-14.83-173.6-41.66-.49-.29-.8-.81-.8-1.38s.3-1.09.79-1.37l74.23-43.14c.5-.29,1.1-.29,1.6,0,26.05,15.04,60.67,23.32,97.49,23.32,48.92,0,94.42-15.2,118.77-39.68,11.79-11.86,17.98-25.37,17.91-39.07,0-.42.16-.83.46-1.13.3-.3.71-.47,1.13-.47h105.33c.88,0,1.59.71,1.59,1.58.16,25.29-11.16,50.14-32.73,71.86-43.61,43.89-124.91,71.16-212.17,71.16ZM1307.03,1626.62c45.72,25.69,105.81,39.83,169.61,39.87,86.44,0,166.87-26.91,209.92-70.22,20.51-20.64,31.48-44.12,31.8-68.01h-102.16c-.39,14.01-6.87,27.71-18.82,39.73-24.92,25.06-71.29,40.62-121.02,40.62-36.99,0-71.85-8.26-98.28-23.29l-71.05,41.29Z"/>
      </g>
    </g>
    <g>
      <g class="cls-182">
        <path d="M1687.56,930.01c16.34,9.43,16.34,24.76.11,34.2l-127.93,74.34c-16.23,9.43-42.61,9.43-58.95,0l-417.64-241.13c-16.43-9.49-16.51-24.76-.28-34.2l127.93-74.34c16.23-9.43,42.7-9.48,59.13,0l417.64,241.13Z"/>
      </g>
      <path class="cls-11" d="M1719.96,872.48l-.29,41.79c-.19,6.19-4.19,12.38-12.28,17.13l-127.94,74.25c-2.95,1.71-6.28,3.14-9.9,4.28-10.76,3.43-23.7,3.71-35.03,1.05-5.14-1.14-9.9-2.95-14.09-5.33l-417.51-241.12c-8.38-4.76-12.37-11.04-12.37-17.23l.28-41.88c0,6.28,4.19,12.47,12.37,17.23l417.7,241.21c4,2.28,8.66,4.09,13.61,5.14,11.23,2.76,24.08,2.48,35.03-.76,3.71-1.14,7.23-2.57,10.28-4.38l127.84-74.44c8.19-4.57,12.28-10.85,12.28-16.94Z"/>
      <path class="cls-45" d="M1550.06,1014.34c-10.96,0-21.97-2.43-30.39-7.28l-417.54-241.18c-8.49-4.81-13.18-11.43-13.18-18.63l.28-41.85h0c0-.88.72-1.59,1.59-1.59h0c.88,0,1.59.72,1.59,1.59,0,5.93,4.12,11.57,11.58,15.86l417.68,241.18c15.82,9.2,41.56,9.2,57.38,0l127.82-74.41c7.21-4.04,11.37-9.64,11.45-15.43v-.18c0-.87.72-1.58,1.59-1.58h0c.88,0,1.59.72,1.59,1.59v.21l-.27,41.66c-.16,6.98-4.91,13.71-13.03,18.47l-127.96,74.28c-8.28,4.86-19.21,7.28-30.19,7.28ZM1092.35,715.14l-.22,32.13c0,5.99,4.11,11.63,11.57,15.85l417.56,241.19c15.96,9.2,41.7,9.2,57.38,0l127.96-74.28c7.14-4.18,11.32-9.94,11.45-15.77l.21-31.98c-2.23,3.23-5.55,6.14-9.81,8.52l-127.79,74.4c-16.7,9.71-43.87,9.71-60.58,0l-417.68-241.17c-4.43-2.56-7.82-5.57-10.05-8.89Z"/>
      <g>
        <path class="cls-50" d="M1707.63,855.27c16.34,9.43,16.34,24.76.11,34.2l-127.93,74.34c-16.23,9.43-42.61,9.43-58.95,0l-417.64-241.13c-16.43-9.49-16.52-24.76-.28-34.2l127.93-74.34c16.23-9.43,42.7-9.48,59.13,0l417.64,241.13Z"/>
        <path class="cls-45" d="M1550.38,972.44c-10.96,0-21.94-2.42-30.31-7.25l-417.64-241.13c-8.49-4.91-13.18-11.5-13.18-18.58-.01-7.01,4.57-13.54,12.9-18.37l127.92-74.34c16.69-9.7,43.92-9.69,60.73,0l417.64,241.13h0c8.42,4.86,13.06,11.43,13.06,18.49.01,7.04-4.59,13.61-12.95,18.46l-127.92,74.34c-8.32,4.84-19.28,7.26-30.24,7.26ZM1260.39,608.64c-10.42,0-20.82,2.29-28.72,6.88l-127.92,74.34c-7.31,4.25-11.33,9.79-11.32,15.62,0,5.89,4.12,11.52,11.59,15.83l417.64,241.12c15.87,9.17,41.6,9.16,57.36,0l127.92-74.34c7.34-4.27,11.38-9.84,11.37-15.71,0-5.88-4.08-11.47-11.47-15.74l-417.64-241.12c-7.96-4.6-18.39-6.89-28.81-6.89Z"/>
      </g>
      <g>
        <g class="cls-96">
          <g>
            <polygon class="cls-110" points="1344.35 235.39 1343.03 700.97 1257.71 750.56 1259.03 284.98 1344.35 235.39"/>
            <path class="cls-45" d="M1257.71,752.15c-.27,0-.55-.07-.8-.21-.49-.29-.8-.81-.8-1.39l1.32-465.58c0-.57.3-1.09.79-1.37l85.32-49.58c.5-.29,1.1-.29,1.6,0,.49.29.8.81.8,1.39l-1.32,465.58c0,.57-.3,1.09-.79,1.37l-85.32,49.58c-.25.14-.53.22-.8.22ZM1260.63,285.9l-1.32,461.89,82.13-47.73,1.31-461.89-82.13,47.73Z"/>
          </g>
          <g>
            <polygon class="cls-50" points="1259.03 284.98 1257.71 750.56 1171.77 700.94 1173.09 235.36 1259.03 284.98"/>
            <path class="cls-45" d="M1257.71,752.15c-.27,0-.55-.07-.8-.21l-85.93-49.61c-.49-.29-.8-.81-.8-1.39l1.32-465.59c0-.57.3-1.09.8-1.37.5-.29,1.09-.29,1.59,0l85.94,49.62c.49.29.8.81.8,1.39l-1.32,465.58c0,.57-.3,1.09-.8,1.37-.25.14-.52.21-.8.21ZM1173.37,700.02l82.76,47.78,1.32-461.9-82.76-47.79-1.31,461.91Z"/>
          </g>
          <g>
            <polygon class="cls-212" points="1344.35 235.39 1259.03 284.98 1173.09 235.36 1258.41 185.78 1344.35 235.39"/>
            <path class="cls-45" d="M1259.04,286.57c-.27,0-.55-.07-.8-.21l-85.94-49.62c-.49-.29-.8-.81-.8-1.38s.3-1.09.79-1.37l85.32-49.58c.5-.29,1.1-.29,1.6,0l85.94,49.61c.49.29.8.81.8,1.38s-.3,1.09-.79,1.37l-85.32,49.58c-.25.14-.53.22-.8.22ZM1176.27,235.35l82.76,47.79,82.14-47.74-82.76-47.78-82.14,47.73Z"/>
          </g>
        </g>
        <g class="cls-96">
          <g>
            <polygon class="cls-110" points="1491.55 419.54 1490.23 785.96 1404.91 835.54 1406.23 469.13 1491.55 419.54"/>
            <path class="cls-45" d="M1404.91,837.14c-.27,0-.55-.07-.8-.21-.5-.29-.8-.81-.8-1.39l1.32-366.42c0-.57.3-1.09.79-1.37l85.32-49.58c.5-.29,1.1-.29,1.6,0,.5.29.8.81.8,1.39l-1.32,366.42c0,.57-.3,1.09-.79,1.37l-85.32,49.58c-.25.14-.53.22-.8.22ZM1407.82,470.05l-1.31,362.73,82.14-47.73,1.3-362.73-82.13,47.73Z"/>
          </g>
          <g>
            <polygon class="cls-50" points="1406.23 469.13 1404.91 835.54 1318.98 785.93 1320.3 419.51 1406.23 469.13"/>
            <path class="cls-45" d="M1404.91,837.14c-.27,0-.55-.07-.8-.21l-85.93-49.62c-.49-.29-.8-.81-.8-1.39l1.32-366.41c0-.57.3-1.09.8-1.37.5-.29,1.09-.29,1.59,0l85.94,49.61c.49.29.8.81.8,1.39l-1.32,366.42c0,.57-.3,1.09-.8,1.37-.25.14-.52.21-.8.21ZM1320.58,785.01l82.76,47.78,1.31-362.75-82.76-47.78-1.3,362.75Z"/>
          </g>
          <g>
            <polygon class="cls-212" points="1491.55 419.54 1406.23 469.13 1320.3 419.51 1405.62 369.93 1491.55 419.54"/>
            <path class="cls-45" d="M1406.24,470.72c-.27,0-.55-.07-.8-.21l-85.94-49.61c-.49-.29-.8-.81-.8-1.38s.3-1.09.79-1.37l85.32-49.58c.5-.29,1.1-.29,1.6,0l85.94,49.61c.49.29.8.81.8,1.38s-.3,1.09-.79,1.37l-85.32,49.58c-.25.14-.53.22-.8.22ZM1323.47,419.51l82.76,47.78,82.14-47.74-82.76-47.78-82.14,47.74Z"/>
          </g>
        </g>
        <g class="cls-96">
          <g>
            <polygon class="cls-110" points="1638.69 603.66 1637.37 870.91 1552.05 920.49 1553.37 653.24 1638.69 603.66"/>
            <path class="cls-45" d="M1552.06,922.09c-.27,0-.55-.07-.8-.21-.5-.29-.8-.81-.8-1.39l1.32-267.25c0-.57.3-1.09.79-1.37l85.32-49.58c.5-.29,1.11-.29,1.6,0,.5.29.8.81.8,1.39l-1.32,267.25c0,.57-.3,1.09-.79,1.37l-85.32,49.58c-.25.14-.53.22-.8.22ZM1554.96,654.16l-1.3,263.56,82.13-47.73,1.3-263.56-82.13,47.73Z"/>
          </g>
          <g>
            <polygon class="cls-50" points="1553.37 653.24 1552.05 920.49 1466.18 870.91 1467.5 603.66 1553.37 653.24"/>
            <path class="cls-45" d="M1552.06,922.09c-.27,0-.55-.07-.8-.21l-85.88-49.58c-.5-.29-.8-.81-.8-1.39l1.32-267.25c0-.57.3-1.09.8-1.37.49-.29,1.09-.29,1.59,0l85.88,49.58c.5.29.8.81.8,1.39l-1.32,267.25c0,.57-.3,1.09-.8,1.37-.24.14-.52.21-.79.21ZM1467.78,870l82.7,47.75,1.3-263.59-82.7-47.75-1.3,263.59Z"/>
          </g>
          <g>
            <polygon class="cls-70" points="1638.69 603.66 1553.37 653.24 1467.5 603.66 1552.82 554.08 1638.69 603.66"/>
            <path class="cls-45" d="M1553.38,654.84c-.27,0-.55-.07-.8-.21l-85.88-49.58c-.49-.29-.8-.81-.8-1.38s.3-1.09.79-1.37l85.32-49.58c.5-.29,1.1-.29,1.6,0l85.88,49.58c.49.29.8.81.8,1.38s-.3,1.09-.79,1.37l-85.32,49.58c-.25.14-.53.22-.8.22ZM1470.67,603.65l82.7,47.75,82.14-47.74-82.7-47.75-82.14,47.74Z"/>
          </g>
        </g>
      </g>
    </g>
    <g>
      <g>
        <g>
          <path class="cls-50" d="M471.18,1770.34c-11.51-6.65-11.58-17.43-.14-24.08,11.44-6.65,30.05-6.64,41.56,0,11.51,6.65,11.57,17.42.13,24.07-11.44,6.65-30.04,6.65-41.55,0Z"/>
          <path class="cls-159" d="M491.99,1776.89c-7.82,0-15.64-1.72-21.6-5.17h0c-6.1-3.53-9.46-8.3-9.48-13.46,0-5.12,3.31-9.87,9.33-13.37,11.86-6.89,31.23-6.89,43.17,0,6.09,3.53,9.46,8.3,9.46,13.45,0,5.12-3.3,9.87-9.33,13.38-5.93,3.45-13.74,5.17-21.55,5.17ZM491.78,1742.86c-7.23,0-14.46,1.6-19.94,4.78-5,2.91-7.75,6.68-7.75,10.62,0,3.97,2.81,7.77,7.88,10.7h0c11.05,6.39,28.97,6.39,39.96,0,5.01-2.91,7.75-6.68,7.75-10.62,0-3.97-2.8-7.77-7.87-10.69-5.53-3.2-12.78-4.79-20.03-4.79Z"/>
        </g>
        <path class="cls-70" d="M491.82,1750.71c4.49,0,8.83,1.02,11.92,2.8,2.48,1.43,3.9,3.19,3.9,4.82,0,1.61-1.39,3.35-3.83,4.76-3.06,1.78-7.39,2.8-11.87,2.8s-8.82-1.02-11.91-2.8c-2.48-1.43-3.9-3.19-3.91-4.83,0-1.61,1.39-3.35,3.82-4.76,3.06-1.78,7.38-2.8,11.86-2.8Z"/>
      </g>
      <path class="cls-45" d="M277.09,1629.63c4.82,0,9.48,1.1,12.8,3.01,2.66,1.54,4.19,3.42,4.19,5.18,0,1.73-1.49,3.6-4.11,5.12-3.29,1.91-7.93,3-12.75,3s-9.48-1.1-12.79-3.01c-2.66-1.54-4.19-3.43-4.19-5.18,0-1.73,1.49-3.6,4.1-5.11,3.28-1.91,7.93-3,12.74-3Z"/>
    </g>
    <g>
      <g>
        <g>
          <path class="cls-50" d="M1598.87,1222.45c-11.51-6.65-11.58-17.43-.14-24.08,11.44-6.65,30.05-6.64,41.56,0,11.51,6.65,11.57,17.42.13,24.07-11.44,6.65-30.04,6.65-41.55,0Z"/>
          <path class="cls-159" d="M1619.67,1228.99c-7.82,0-15.64-1.72-21.6-5.16h0c-6.1-3.53-9.46-8.31-9.47-13.46,0-5.12,3.31-9.87,9.33-13.37,11.87-6.9,31.23-6.88,43.16,0,6.09,3.52,9.46,8.3,9.46,13.45.01,5.12-3.3,9.87-9.33,13.38-5.93,3.44-13.74,5.17-21.55,5.17ZM1599.66,1221.07c11.05,6.37,28.97,6.37,39.96,0,5.01-2.91,7.75-6.68,7.75-10.62,0-3.97-2.8-7.77-7.87-10.7-11.07-6.39-28.99-6.4-39.96-.01-5.01,2.91-7.75,6.68-7.75,10.61,0,3.97,2.8,7.78,7.88,10.71h0Z"/>
        </g>
        <path class="cls-70" d="M1619.51,1202.82c4.49,0,8.83,1.02,11.92,2.8,2.48,1.43,3.9,3.19,3.9,4.82,0,1.61-1.39,3.35-3.83,4.76-3.06,1.78-7.39,2.8-11.87,2.8s-8.82-1.02-11.91-2.8c-2.48-1.43-3.9-3.19-3.91-4.83,0-1.61,1.39-3.35,3.82-4.76,3.06-1.78,7.38-2.8,11.86-2.8Z"/>
      </g>
      <path class="cls-45" d="M1518.17,1145.13c4.82,0,9.48,1.1,12.8,3.01,2.66,1.54,4.19,3.42,4.19,5.18,0,1.73-1.49,3.6-4.11,5.12-3.29,1.91-7.93,3-12.75,3s-9.48-1.1-12.79-3.01c-2.66-1.54-4.19-3.43-4.19-5.18,0-1.73,1.49-3.6,4.1-5.11,3.28-1.91,7.93-3,12.74-3Z"/>
    </g>
    <g>
      <g>
        <g>
          <path class="cls-50" d="M817.81,1760.91c11.51-6.65,11.58-17.43.14-24.08-11.44-6.65-30.05-6.64-41.56,0-11.51,6.65-11.57,17.42-.13,24.07,11.44,6.65,30.04,6.65,41.55,0Z"/>
          <path class="cls-159" d="M797.01,1767.46c-7.82,0-15.63-1.72-21.56-5.17-6.03-3.49-9.34-8.25-9.33-13.37,0-5.15,3.37-9.93,9.47-13.45,11.94-6.89,31.3-6.9,43.16,0,6.02,3.5,9.33,8.25,9.33,13.37,0,5.16-3.37,9.94-9.47,13.46h0c-5.96,3.44-13.79,5.16-21.6,5.16ZM797.21,1733.43c-7.24,0-14.49,1.6-20.02,4.79-5.07,2.92-7.87,6.72-7.88,10.69,0,3.94,2.75,7.7,7.75,10.61,10.98,6.38,28.9,6.38,39.96,0,5.07-2.93,7.87-6.73,7.88-10.7,0-3.94-2.75-7.71-7.75-10.62-5.48-3.19-12.71-4.78-19.94-4.78ZM817.81,1760.91h.04-.04Z"/>
        </g>
        <path class="cls-70" d="M797.17,1741.28c-4.49,0-8.83,1.02-11.92,2.8-2.48,1.43-3.9,3.19-3.9,4.82,0,1.61,1.39,3.35,3.83,4.76,3.06,1.78,7.39,2.8,11.87,2.8,4.48,0,8.82-1.02,11.91-2.8,2.48-1.43,3.9-3.19,3.91-4.83,0-1.61-1.39-3.35-3.82-4.76-3.06-1.78-7.38-2.8-11.86-2.8Z"/>
      </g>
      <path class="cls-45" d="M898.51,1683.6c-4.82,0-9.48,1.1-12.8,3.01-2.66,1.54-4.19,3.42-4.19,5.18,0,1.73,1.49,3.6,4.11,5.12,3.29,1.91,7.93,3,12.75,3s9.48-1.1,12.79-3.01c2.66-1.54,4.19-3.43,4.19-5.18,0-1.73-1.49-3.6-4.1-5.11-3.28-1.91-7.93-3-12.74-3Z"/>
    </g>
    <path class="cls-45" d="M1145.05,917.07c4.82,0,9.48,1.1,12.8,3.01,2.66,1.54,4.19,3.42,4.19,5.18,0,1.73-1.49,3.6-4.11,5.12-3.29,1.91-7.93,3-12.75,3s-9.48-1.1-12.79-3.01c-2.66-1.54-4.19-3.43-4.19-5.18,0-1.73,1.49-3.6,4.1-5.11,3.28-1.91,7.93-3,12.74-3Z"/>
    <path class="cls-45" d="M1214.74,1353.67c4.82,0,9.48,1.1,12.8,3.01,2.66,1.54,4.19,3.42,4.19,5.18,0,1.73-1.5,3.6-4.11,5.12-3.29,1.91-7.93,3.01-12.75,3-4.82,0-9.48-1.1-12.79-3.01-2.66-1.54-4.19-3.43-4.19-5.18,0-1.73,1.49-3.6,4.1-5.11,3.28-1.91,7.93-3,12.74-3Z"/>
  </g>
</svg>