<?xml version="1.0" encoding="UTF-8"?>
<svg id="Layer_1" xmlns="http://www.w3.org/2000/svg" version="1.1" viewBox="0 0 32 22.5">
  <!-- Generator: Adobe Illustrator 29.4.0, SVG Export Plug-In . SVG Version: 2.1.0 Build 152)  -->
  <defs>
    <style>
      .st0 {
        fill: #263470;
      }

      .st1 {
        fill: #0f7fad;
      }

      .st2 {
        fill: #40af7a;
      }
    </style>
  </defs>
  <rect class="st1" x="24.9" y="6.3" width="2.3" height="11.4" rx="1.2" ry="1.2"/>
  <path class="st0" d="M19.2,17.7h0c-2.4,0-4.4-1.9-4.4-4.3,0-3.4-2.7-6.2-5.9-6.3-1.7,0-3.2.6-4.4,1.7-1,.9-1.6,2.1-1.8,3.4s-.6,1-1.1,1h0c-.7,0-1.3-.6-1.1-1.3.3-1.8,1.1-3.4,2.4-4.7,1.6-1.6,3.8-2.4,6.1-2.4,4.5.1,8.2,3.9,8.2,8.5s.9,2,2,2h0c.8,0,1.4-.6,1.4-1.4v-4c0-.6.5-1.2,1.2-1.2h0c.6,0,1.2.5,1.2,1.2v4.1c0,2-1.6,3.6-3.6,3.6Z"/>
  <rect class="st2" x="29.3" y="4.8" width="2.3" height="12.8" rx="1.2" ry="1.2"/>
</svg>