<?xml version="1.0" encoding="UTF-8"?>
<svg id="Layer_1" data-name="Layer 1" xmlns="http://www.w3.org/2000/svg" viewBox="0 0 32 32">
  <defs>
    <style>
      .cls-1 {
        fill: #3fae7a;
      }

      .cls-2 {
        fill: #107fad;
      }

      .cls-3 {
        fill: #253570;
      }
    </style>
  </defs>
  <path class="cls-3" d="M14.84,19.78c-1.75,0-3.18-1.42-3.18-3.18s1.42-3.18,3.18-3.18,3.18,1.42,3.18,3.18-1.42,3.18-3.18,3.18ZM14.84,15.09c-.84,0-1.52.68-1.52,1.52s.68,1.52,1.52,1.52,1.52-.68,1.52-1.52-.68-1.52-1.52-1.52Z"/>
  <rect class="cls-2" x="26.47" y="11.61" width="1.66" height="8.18" rx=".83" ry=".83"/>
  <path class="cls-3" d="M22.37,19.78h0c-1.69,0-3.15-1.38-3.14-3.07,0-2.41-1.91-4.43-4.26-4.49-1.2-.03-2.33.41-3.18,1.24-.69.67-1.13,1.53-1.27,2.46-.06.4-.41.68-.82.68h0c-.51,0-.9-.45-.82-.96.2-1.28.81-2.45,1.75-3.37,1.18-1.15,2.74-1.75,4.38-1.71,3.23.09,5.86,2.84,5.87,6.13,0,.79.62,1.44,1.42,1.44h0c.55,0,1-.45,1-1v-2.88c0-.46.37-.83.83-.83h0c.46,0,.83.37.83.83v2.95c0,1.43-1.16,2.59-2.59,2.59Z"/>
  <path class="cls-3" d="M3.6,21.44c-1.6.03-2.91-1.33-2.91-2.93v-3.43c0-.46.37-.83.83-.83h0c.46,0,.83.37.83.83v3.46c0,.61.44,1.16,1.04,1.23.73.09,1.36-.48,1.36-1.19v-4.33h1.66v4.33c0,1.56-1.26,2.83-2.81,2.86Z"/>
  <rect class="cls-1" x="29.65" y="10.56" width="1.66" height="9.22" rx=".83" ry=".83"/>
  <path class="cls-3" d="M14.84,19.78h-6.58c-1.94,0-3.51-1.57-3.51-3.51v-4.89c0-.46.37-.83.83-.83h0c.46,0,.83.37.83.83v4.89c0,1.02.83,1.85,1.85,1.85h6.58v1.66Z"/>
</svg>