<?xml version="1.0" encoding="UTF-8"?>
<svg id="Layer_1" xmlns="http://www.w3.org/2000/svg" version="1.1" xmlns:xlink="http://www.w3.org/1999/xlink" viewBox="0 0 1284.6 475.9">
  <!-- Generator: Adobe Illustrator 29.4.0, SVG Export Plug-In . SVG Version: 2.1.0 Build 152)  -->
  <defs>
    <style>
      .st0 {
        fill: #fff;
      }
    </style>
  </defs>
  <image width="5846" height="1983" transform="translate(-59.2) scale(.2)" xlink:href="logosh.png"/>
  <g>
    <g>
      <path class="st0" d="M145.6,191.4v-61.9h-17.3v48.2h-17.9c-12,0-20.5-2.2-25.5-6.7-4.8-4.2-7.1-11-7.1-20.6s1.5-15.2,4.5-21.7l-18.6,3c-2.3,6.3-3.4,13.2-3.4,20.7,0,12.7,3.6,22.2,10.7,28.5,7.9,7,20.4,10.5,37.6,10.5h37.1Z"/>
      <path class="st0" d="M117.4,119.5c2.4,0,4.5-.9,6.2-2.6,1.7-1.8,2.5-3.9,2.5-6.3s-.8-4.6-2.5-6.4c-1.7-1.8-3.7-2.6-6.2-2.6s-4.5.9-6.2,2.6c-1.7,1.8-2.5,3.9-2.5,6.4s.8,4.6,2.5,6.3c1.7,1.8,3.7,2.6,6.2,2.6Z"/>
      <path class="st0" d="M95.5,119.5c2.5,0,4.6-.9,6.3-2.6,1.7-1.8,2.5-3.9,2.5-6.3s-.8-4.6-2.5-6.4c-1.7-1.8-3.8-2.6-6.3-2.6s-4.5.9-6.2,2.6c-1.7,1.8-2.5,3.9-2.5,6.4s.8,4.6,2.5,6.3c1.7,1.8,3.7,2.6,6.2,2.6Z"/>
      <path class="st0" d="M195.7,191.4h91.1v-14.1c0-36.1-17.2-54.1-51.8-54.1s-21.3,1.7-31.9,5.1l1.6,12.4c9.6-3.2,19-4.8,28.2-4.8,13,0,22.5,3.3,28.5,9.8,5.9,6.5,8.8,16.6,8.8,30.3v1.6h-13.3v-3c0-8.1-1.8-14.4-5.5-19-4.2-5.2-10.4-7.8-18.8-7.8s-14,2.1-18.6,6.2c-4.5,4-6.7,9.3-6.7,15.9s1.1,6.3,3.4,8.4c-1.8-.4-3.8-.6-6.2-.6h-22.1v-79.1h-17.4v92.8h30.5ZM231.6,158.7c7.5,0,11.2,5.2,11.2,15.7v3.8h-8.7c-8.3,0-12.4-3.5-12.4-10.4s3.3-9.1,9.9-9.1h0Z"/>
      <path class="st0" d="M332.4,191.4h10.3v2c0,11.7-7.6,17.5-22.8,17.5s-13.7-.8-20.5-2.2l-1.1,14.2c6.8,1.2,13.5,1.7,20.1,1.7,14,0,24.5-3.2,31.6-9.6,6.4-5.7,9.6-13.5,9.6-23.3v-.3h53v-61.9h-17.3v48.2h-35.7v-45.3c-8-3-17.2-4.6-27.5-4.6s-20.3,3.3-26.6,10c-5.6,6-8.4,13.7-8.4,23,0,20.4,11.8,30.5,35.3,30.5h0ZM318.6,146.5c2.8-3.3,6.7-5,11.5-5s9.2.8,12.5,2.4v33.8h-8.4c-13.2,0-19.8-6.2-19.8-18.5s1.4-9.5,4.2-12.7h0Z"/>
      <path class="st0" d="M375.5,204.8c-1.7,1.8-2.5,3.9-2.5,6.3s.8,4.6,2.5,6.4c1.7,1.7,3.7,2.6,6.2,2.6s4.6-.9,6.3-2.6c1.7-1.7,2.5-3.8,2.5-6.3s-.8-4.6-2.5-6.4c-1.7-1.7-3.8-2.6-6.3-2.6s-4.5.9-6.2,2.6h0Z"/>
      <path class="st0" d="M397.3,204.8c-1.7,1.8-2.5,3.9-2.5,6.3s.8,4.6,2.5,6.4c1.7,1.7,3.7,2.6,6.2,2.6s4.5-.9,6.2-2.6c1.7-1.8,2.5-3.9,2.5-6.3s-.8-4.6-2.5-6.4c-1.7-1.7-3.7-2.6-6.2-2.6s-4.5.9-6.2,2.6h0Z"/>
      <path class="st0" d="M525.1,119.5c2.4,0,4.5-.9,6.2-2.6,1.7-1.8,2.5-3.9,2.5-6.3s-.8-4.6-2.5-6.4c-1.7-1.8-3.7-2.6-6.2-2.6s-4.5.9-6.2,2.6c-1.7,1.8-2.5,3.9-2.5,6.4s.8,4.6,2.5,6.3c1.7,1.8,3.7,2.6,6.2,2.6Z"/>
      <path class="st0" d="M503.3,119.5c2.5,0,4.6-.9,6.3-2.6,1.7-1.8,2.5-3.9,2.5-6.3s-.8-4.6-2.5-6.4c-1.7-1.8-3.8-2.6-6.3-2.6s-4.5.9-6.2,2.6c-1.7,1.8-2.5,3.9-2.5,6.4s.8,4.6,2.5,6.3c1.7,1.8,3.7,2.6,6.2,2.6Z"/>
      <path class="st0" d="M491.6,191.4h50c9,0,14.9-3.1,17.6-9.2,2.3,6.8,8.1,10.2,17.5,10.2s16.7-3.4,19.9-10.1c1.9,3.5,4.7,5.9,8.4,7.3,3.5,1.2,8.8,1.8,15.9,1.8h21.7c1.3-9.3,2-19.6,2-30.7s-1.4-24.7-4.2-36.5l-17,2.3c2.6,11.4,3.9,23.2,3.9,35.3s-.3,10.9-1,15.8h-3.4c-6.2,0-10.3-.8-12.3-2.4-2.1-1.6-3.2-5-3.2-10.2v-33h-16.7v29.8c0,11.2-3.5,16.8-10.5,16.8s-6.2-1.3-7.5-4.1c-1.1-2.3-1.6-6.6-1.6-12.9v-24.4h-17.4v24c0,6.3-.9,10.6-2.8,13-1.7,2.2-4.8,3.3-9.1,3.3h-16.3v-48.2h-17.4v48.2h-25.1c-.8-14.3-4.9-25.7-12.3-34-7-7.9-17.5-13.7-31.4-17.4l-4.2,14.5c19.9,5.1,30.3,17.3,31,36.8h-39.1v13.7h64.5,0Z"/>
      <polygon class="st0" points="693.6 177.7 652.9 177.7 652.9 191.4 710.9 191.4 710.9 98.5 693.6 98.5 693.6 177.7"/>
      <polygon class="st0" points="683.9 167.8 664.7 97.6 647.5 100 666.3 167.8 683.9 167.8"/>
      <rect class="st0" x="731.8" y="98.5" width="17.4" height="92.8"/>
      <path class="st0" d="M76.1,262.2c-1.7,1.8-2.5,3.9-2.5,6.4s.8,4.6,2.5,6.3c1.7,1.8,3.7,2.6,6.2,2.6s4.6-.9,6.3-2.6c1.7-1.8,2.5-3.9,2.5-6.3s-.8-4.6-2.5-6.4c-1.7-1.8-3.8-2.6-6.3-2.6s-4.5.9-6.2,2.6Z"/>
      <path class="st0" d="M97.9,262.2c-1.7,1.8-2.5,3.9-2.5,6.4s.8,4.6,2.5,6.3c1.7,1.8,3.7,2.6,6.2,2.6s4.5-.9,6.2-2.6c1.7-1.8,2.5-3.9,2.5-6.3s-.8-4.6-2.5-6.4c-1.7-1.8-3.7-2.6-6.2-2.6s-4.5.9-6.2,2.6Z"/>
      <path class="st0" d="M330.9,360.2c-2.4,0-4.5.9-6.2,2.6-1.7,1.8-2.5,3.9-2.5,6.3s.8,4.6,2.5,6.4c1.7,1.7,3.7,2.6,6.2,2.6s4.5-.9,6.2-2.6c1.7-1.8,2.5-3.9,2.5-6.3s-.8-4.6-2.5-6.4c-1.7-1.7-3.7-2.6-6.2-2.6h0Z"/>
      <path class="st0" d="M309.1,360.2c-2.4,0-4.5.9-6.2,2.6-1.7,1.8-2.5,3.9-2.5,6.3s.8,4.6,2.5,6.4c1.7,1.7,3.7,2.6,6.2,2.6s4.6-.9,6.3-2.6c1.7-1.7,2.5-3.8,2.5-6.3s-.8-4.6-2.5-6.4c-1.7-1.7-3.8-2.6-6.3-2.6h0Z"/>
      <path class="st0" d="M405.3,335.7h-71.6v-48.2h-17.4v48.2H122.4v-45.3c-8-3-17.2-4.6-27.5-4.6s-20.3,3.3-26.5,10c-5.6,6-8.4,13.7-8.4,23,0,20.4,11.8,30.5,35.3,30.5h327.4v-61.9h-17.4v48.2h0ZM105.6,335.7h-8.4c-13.2,0-19.8-6.2-19.8-18.5s1.4-9.5,4.2-12.7c2.8-3.3,6.7-5,11.5-5s9.2.8,12.5,2.4v33.8Z"/>
      <path class="st0" d="M404.2,360.1c-2.5,0-4.6.9-6.4,2.6-1.8,1.8-2.6,3.9-2.6,6.4s.9,4.7,2.6,6.5c1.8,1.8,3.9,2.6,6.4,2.6s4.7-.9,6.4-2.7c1.8-1.8,2.7-3.9,2.7-6.4s-.9-4.7-2.7-6.4c-1.8-1.8-3.9-2.6-6.4-2.6h0Z"/>
      <path class="st0" d="M526.7,360.1c-2.5,0-4.6.9-6.4,2.6-1.8,1.8-2.6,3.9-2.6,6.4s.9,4.7,2.6,6.5c1.8,1.8,3.9,2.6,6.4,2.6s4.7-.9,6.4-2.7c1.8-1.8,2.7-3.9,2.7-6.4s-.9-4.7-2.7-6.4c-1.8-1.8-3.9-2.6-6.4-2.6h0Z"/>
      <path class="st0" d="M625,256.4c1.6-1.6,2.4-3.5,2.4-5.9s-.8-4.3-2.4-5.9c-1.5-1.6-3.5-2.4-5.8-2.4s-4.1.8-5.7,2.4c-1.5,1.6-2.3,3.5-2.3,5.9s.8,4.3,2.3,5.9c1.6,1.6,3.5,2.4,5.7,2.4s4.2-.8,5.8-2.4Z"/>
      <path class="st0" d="M630.3,277.5c2.4,0,4.5-.9,6.2-2.6,1.7-1.8,2.5-3.9,2.5-6.3s-.8-4.6-2.5-6.4c-1.7-1.8-3.7-2.6-6.2-2.6s-4.6.9-6.3,2.6c-1.7,1.8-2.5,3.9-2.5,6.4s.8,4.6,2.5,6.3c1.7,1.8,3.8,2.6,6.3,2.6Z"/>
      <path class="st0" d="M602.2,262.2c-1.7,1.8-2.5,3.9-2.5,6.4s.8,4.6,2.5,6.3c1.7,1.8,3.7,2.6,6.2,2.6s4.5-.9,6.2-2.6c1.7-1.8,2.5-3.9,2.5-6.3s-.8-4.6-2.5-6.4c-1.7-1.8-3.7-2.6-6.2-2.6s-4.5.9-6.2,2.6Z"/>
      <path class="st0" d="M692.1,335.7h-27.2c.4-6.4.6-12.1.6-17,0-12.5-1.4-24.7-4.2-36.5l-17,2.3c2.6,11.4,3.9,23.2,3.9,35.3s-.3,10.9-1,15.8h-3.4c-6.2,0-10.3-.8-12.3-2.4-2.1-1.6-3.2-5-3.2-10.2v-33h-16.7v29.8c0,11.2-3.5,16.8-10.5,16.8s-6.2-1.3-7.5-4.1c-1.1-2.3-1.6-6.6-1.6-12.9v-24.4h-17.4v24c0,6.3-.9,10.6-2.8,13-1.7,2.2-4.8,3.3-9.1,3.3h-17.5v-48.2h-17.4v48.2h-66.9v-79.1h-17.4v92.8h119c9,0,14.9-3.1,17.6-9.2,2.3,6.8,8.1,10.2,17.5,10.2s16.7-3.4,19.9-10.1c1.9,3.5,4.7,5.9,8.4,7.3,3.5,1.2,8.8,1.8,15.9,1.8h67.6v-92.8h-17.3v79.1h0Z"/>
      <rect class="st0" x="731.8" y="256.6" width="17.4" height="92.8"/>
    </g>
    <g>
      <g>
        <rect class="st0" x="1080.2" y="197.2" width="61.4" height="197" rx="30.7" ry="30.7" transform="translate(116.2 872.1) rotate(-45)"/>
        <rect class="st0" x="928.3" y="45.4" width="61.4" height="197" rx="30.7" ry="30.7" transform="translate(179.1 720.2) rotate(-45)"/>
      </g>
      <rect class="st0" x="936.4" y="129.7" width="61.4" height="317.4" rx="30.7" ry="30.7" transform="translate(79.4 768.4) rotate(-45)"/>
      <g>
        <rect class="st0" x="1100.5" y="60.4" width="61.4" height="238.7" rx="30.7" ry="30.7" transform="translate(204.3 852.7) rotate(-45)"/>
        <rect class="st0" x="982.2" y="30.8" width="61.4" height="61.4" rx="30.7" ry="30.7" transform="translate(253.3 734.4) rotate(-45)"/>
      </g>
      <rect class="st0" x="840.4" y="255.7" width="61.4" height="146.2" rx="30.7" ry="30.7" transform="translate(22.7 712.4) rotate(-45)"/>
      <rect class="st0" x="926" y="383.7" width="61.4" height="61.4" rx="30.7" ry="30.7" transform="translate(-12.8 798) rotate(-45)"/>
    </g>
  </g>
</svg>