<svg id="Group_2829" data-name="Group 2829" xmlns="http://www.w3.org/2000/svg" width="109.695" height="109.695" viewBox="0 0 109.695 109.695">
  <path id="Path_6145" data-name="Path 6145" d="M173.585,69.619h-1.611V13.96a5.91,5.91,0,0,0-5.9-5.9H132.852v-4.3A3.761,3.761,0,0,0,129.1,0h-13.2a3.761,3.761,0,0,0-3.757,3.757v4.3H100.779a1.61,1.61,0,0,0,0,3.22h65.291a2.686,2.686,0,0,1,2.683,2.683V69.62H143.4a1.61,1.61,0,1,0,0,3.22h30.188a.537.537,0,0,1,.537.537v3.763a.537.537,0,0,1-.537.537H87.7a1.61,1.61,0,0,0,0,3.22h9.356L91.65,107.768a1.61,1.61,0,0,0,1.578,1.928h9.658a1.61,1.61,0,0,0,1.578-1.292l1.765-8.769h32.628l1.765,8.769A1.61,1.61,0,0,0,142.2,109.7h9.658a1.61,1.61,0,0,0,1.578-1.928L148.03,80.9h25.555a3.761,3.761,0,0,0,3.757-3.757V73.377a3.761,3.761,0,0,0-3.757-3.757ZM115.357,3.757a.537.537,0,0,1,.537-.537h13.2a.537.537,0,0,1,.537.537v4.3H115.357ZM135.087,80.9l1.739,8.642H108.262L110,80.9Zm-33.519,25.579H95.195L100.343,80.9h6.374Zm5.309-10.062.736-3.656h29.861l.736,3.656Zm43.015,10.062H143.52L138.372,80.9h6.374Z" transform="translate(-67.647 0)" fill="#1bb999"/>
  <path id="Path_6146" data-name="Path 6146" d="M13.615,107.221H3.757a.537.537,0,0,1-.537-.537v-3.763a.537.537,0,0,1,.537-.537H69.31a1.61,1.61,0,1,0,0-3.22H8.588V43.5a2.686,2.686,0,0,1,2.683-2.683H26.692a1.61,1.61,0,1,0,0-3.22H11.271a5.91,5.91,0,0,0-5.9,5.9v55.66H3.757A3.761,3.761,0,0,0,0,102.921v3.763a3.761,3.761,0,0,0,3.757,3.757h9.858a1.61,1.61,0,1,0,0-3.22Z" transform="translate(0 -29.545)" fill="#1bb999"/>
  <path id="Path_6147" data-name="Path 6147" d="M135.687,126.11a1.609,1.609,0,0,0-2.277.029l-5.227,5.36-2.2-2.135a1.61,1.61,0,1,0-2.245,2.309l3.348,3.256a1.61,1.61,0,0,0,2.275-.03l6.35-6.511A1.61,1.61,0,0,0,135.687,126.11Z" transform="translate(-96.848 -98.731)" fill="#1bb999"/>
  <path id="Path_6148" data-name="Path 6148" d="M121.354,102.941a12.014,12.014,0,1,0-12.014,12.014A12.027,12.027,0,0,0,121.354,102.941Zm-12.014,8.794a8.794,8.794,0,1,1,8.794-8.794A8.8,8.8,0,0,1,109.341,111.735Z" transform="translate(-76.475 -71.446)" fill="#1bb999"/>
  <path id="Path_6149" data-name="Path 6149" d="M139.023,236.984a1.61,1.61,0,0,0-2.277,0l-2.465,2.465-2.465-2.465a1.61,1.61,0,0,0-2.277,2.277L132,241.726l-2.465,2.465a1.61,1.61,0,1,0,2.277,2.277L134.282,244l2.465,2.465a1.61,1.61,0,0,0,2.277-2.277l-2.465-2.465,2.465-2.465A1.61,1.61,0,0,0,139.023,236.984Z" transform="translate(-101.416 -185.84)" fill="#1bb999"/>
  <path id="Path_6150" data-name="Path 6150" d="M368.206,236.984a1.61,1.61,0,0,0-2.277,0l-2.465,2.465L361,236.984a1.61,1.61,0,1,0-2.277,2.277l2.465,2.465-2.465,2.465A1.61,1.61,0,1,0,361,246.467L363.464,244l2.465,2.465a1.61,1.61,0,0,0,2.277-2.277l-2.465-2.465,2.465-2.465A1.61,1.61,0,0,0,368.206,236.984Z" transform="translate(-281.496 -185.84)" fill="#1bb999"/>
  <path id="Path_6151" data-name="Path 6151" d="M248.639,133.987a1.61,1.61,0,0,0,2.277,0l2.465-2.465,2.465,2.465a1.61,1.61,0,0,0,2.277-2.277l-2.465-2.465,2.465-2.465a1.61,1.61,0,0,0-2.277-2.277l-2.465,2.465-2.465-2.465a1.61,1.61,0,0,0-2.277,2.277l2.465,2.465-2.465,2.465a1.61,1.61,0,0,0,0,2.277Z" transform="translate(-194.998 -97.458)" fill="#1bb999"/>
  <path id="Path_6152" data-name="Path 6152" d="M240.658,235.825A6.822,6.822,0,1,0,247.48,229,6.83,6.83,0,0,0,240.658,235.825Zm10.425,0a3.6,3.6,0,1,1-3.6-3.6A3.607,3.607,0,0,1,251.083,235.825Z" transform="translate(-189.098 -179.939)" fill="#1bb999"/>
  <path id="Path_6153" data-name="Path 6153" d="M224.359,132.843a1.61,1.61,0,0,0,1.3,1.871,41.965,41.965,0,0,0,6.907.532c5.3,0,12.634-.911,18.329-5.106,4.644-3.421,7.4-8.438,8.193-14.911a1.61,1.61,0,1,0-3.2-.391c-.68,5.555-3,9.828-6.9,12.7-8.722,6.435-22.624,4.03-22.763,4.005A1.611,1.611,0,0,0,224.359,132.843Z" transform="translate(-176.27 -89.123)" fill="#1bb999"/>
</svg>
