<?xml version="1.0" encoding="UTF-8"?>
<svg id="Layer_1" data-name="Layer 1" xmlns="http://www.w3.org/2000/svg" viewBox="0 0 398 130.94">
  <defs>
    <style>
      .cls-1 {
        font-family: GalanoGrotesque-SemiBold, 'Galano Grotesque';
        font-size: 15.27px;
        font-weight: 600;
      }

      .cls-1, .cls-2 {
        fill: #263370;
      }

      .cls-3 {
        fill: #42b07a;
      }

      .cls-4 {
        fill: #0c7fae;
      }
    </style>
  </defs>
  <g>
    <path class="cls-2" d="M19.28,33.28c.13,2.08-.63,3.71-2.25,4.83-1.46,1.03-3.41,1.52-5.89,1.52-2.91,0-5.13-.83-6.62-2.45-1.32-1.42-1.99-3.38-1.99-5.83,0-1.98.43-4.04,1.32-6.16l3.61-2.18c-1.29,2.88-1.95,5.46-1.95,7.74,0,3.81,1.95,6.06,5.63,6.02,1.59,0,2.71-.13,3.41-.43,1.32-.5,2.05-1.52,2.18-3.08-2.05-.17-3.41-.99-4.07-2.52l1.46-2.98c.83,2.08,1.69,2.78,3.81,2.78h1.36v2.71ZM10.58,43.97c0,.93-.76,1.72-1.72,1.72s-1.72-.79-1.72-1.72.79-1.69,1.72-1.69,1.72.79,1.72,1.69ZM15.05,43.97c0,.93-.79,1.72-1.72,1.72s-1.72-.79-1.72-1.72.76-1.69,1.72-1.69,1.72.79,1.72,1.69Z"/>
    <path class="cls-2" d="M25.01,33.28h-6.12v-2.78h6.12v2.78Z"/>
    <path class="cls-2" d="M30.33,33.28h-6.12v-2.78h6.12v2.78Z"/>
    <path class="cls-2" d="M35.66,33.28h-6.12v-2.78h6.12v2.78Z"/>
    <path class="cls-2" d="M64.32,33.28h-29.39v-2.78h3.91v-8.37l3.14-.89v6.82c.43-1.66,1.16-3.21,2.12-4.63,2.08-3.18,4.96-4.8,8.64-4.9,3.21-.1,5.66,1.19,7.28,3.81,1.13,1.89,1.62,4.6,1.49,8.17h2.81v2.78ZM58.33,30.5c.07-.53.1-1.06.1-1.62,0-2.05-.4-3.74-1.22-5.1-1.03-1.59-2.48-2.38-4.4-2.38-2.35,0-4.47,1.12-6.42,3.38-1.75,1.95-2.68,3.84-2.81,5.73h14.76Z"/>
    <path class="cls-2" d="M93.08,33.28h-29.39v-2.78h3.91v-8.37l3.14-.89v6.82c.43-1.66,1.16-3.21,2.12-4.63,2.09-3.18,4.97-4.8,8.64-4.9,3.21-.1,5.66,1.19,7.28,3.81,1.13,1.89,1.62,4.6,1.49,8.17h2.81v2.78ZM87.09,30.5c.07-.53.1-1.06.1-1.62,0-2.05-.4-3.74-1.22-5.1-1.03-1.59-2.48-2.38-4.4-2.38-2.35,0-4.47,1.12-6.42,3.38-1.75,1.95-2.68,3.84-2.81,5.73h14.76Z"/>
    <path class="cls-2" d="M114.55,33.28h-22.18v-2.71h14.86v-1.19c0-2.52-.23-4.34-.7-5.46-.73-1.85-2.18-2.78-4.37-2.78-1.82,0-3.48.86-5.03,2.55l-2.25-2.08c2.22-2.15,4.63-3.24,7.28-3.24,3.34,0,5.66,1.22,6.95,3.64.89,1.69,1.32,4.17,1.32,7.38v1.12h4.1v2.78ZM103.93,13.68c0,.93-.79,1.72-1.72,1.72s-1.75-.79-1.75-1.72.79-1.69,1.75-1.69,1.72.76,1.72,1.69Z"/>
    <path class="cls-2" d="M127.43,33.28h-1.99c-1.95,0-3.48-.6-4.6-1.75-1.13,1.16-2.68,1.75-4.7,1.75h-2.38v-2.71h2.18c2.22,0,3.31-1.12,3.31-3.38v-7.91l3.11-.93v8.94c0,2.19,1.09,3.28,3.28,3.28h1.79v2.71ZM120.18,13.68c0,.93-.79,1.72-1.72,1.72s-1.69-.79-1.69-1.72.73-1.69,1.69-1.69,1.72.76,1.72,1.69ZM124.61,13.68c0,.93-.79,1.72-1.72,1.72s-1.69-.79-1.69-1.72.79-1.69,1.69-1.69,1.72.76,1.72,1.69Z"/>
    <path class="cls-2" d="M134.97,27.42c0,1.69-.56,3.08-1.69,4.2-1.13,1.09-2.65,1.66-4.53,1.66h-2.12v-2.78h1.95c2.15,0,3.24-1.12,3.24-3.38v-14.2l3.14-.93v15.42Z"/>
    <path class="cls-2" d="M140.96,33.28h-3.14V12.92l3.14-.99v21.35Z"/>
    <path class="cls-2" d="M190.64,33.28h-23.14c-.26,4.24-3.21,6.35-8.84,6.35-3.97,0-6.65-1.22-8.08-3.67-1.03-1.75-1.49-4.5-1.42-8.31l3.11-.93v2.88c0,5.16,1.79,7.18,6.42,7.18,3.81,0,5.69-1.49,5.69-4.5v-9.86l3.14-.96v9.04h6.62v-9.76l3.14-.93v10.69h6.62v-11.22l3.14-.93v12.15h3.58v2.78Z"/>
    <path class="cls-2" d="M195.99,33.28h-6.12v-2.78h6.12v2.78Z"/>
    <path class="cls-2" d="M209.33,33.28h-2.18c-1.92,0-3.44-.6-4.6-1.79-1.09,1.19-2.65,1.79-4.67,1.79h-2.68v-2.78h2.48c2.19,0,3.28-1.12,3.28-3.38v-14.2l3.15-.99v15.36c0,2.15,1.09,3.21,3.24,3.21h1.99v2.78Z"/>
    <path class="cls-2" d="M230.67,33.28h-22.18v-2.71h14.86v-1.19c0-2.52-.23-4.34-.7-5.46-.73-1.85-2.19-2.78-4.37-2.78-1.82,0-3.48.86-5.03,2.55l-2.25-2.08c2.22-2.15,4.63-3.24,7.28-3.24,3.34,0,5.66,1.22,6.95,3.64.89,1.69,1.32,4.17,1.32,7.38v1.12h4.11v2.78ZM219.98,37.91c0,.93-.79,1.72-1.72,1.72s-1.72-.79-1.72-1.72.79-1.69,1.72-1.69,1.72.76,1.72,1.69Z"/>
    <path class="cls-2" d="M252.58,33.28h-.43c-1.95,0-3.48-.7-4.53-2.08-.79,2.78-3.24,4.4-6.42,4.4-3.01,0-5.43-1.46-6.32-3.97-.96,1.09-2.32,1.66-4.1,1.66h-1.06v-2.78h.86c2.35,0,3.67-1.06,3.94-3.18.56-3.87,2.78-5.79,6.69-5.79,2.15,0,3.74.5,4.8,1.49.96.89,1.56,2.35,1.85,4.3.36,2.15,1.72,3.24,4.07,3.24l.66-.07v2.78ZM244.67,28.54c0-2.95-1.16-4.4-3.47-4.4s-3.51,1.46-3.51,4.4,1.16,4.4,3.51,4.4,3.47-1.46,3.47-4.4Z"/>
    <path class="cls-2" d="M260.22,27.42c0,1.69-.56,3.08-1.69,4.2-1.13,1.09-2.65,1.66-4.53,1.66h-2.12v-2.78h1.95c2.15,0,3.24-1.12,3.24-3.38v-14.2l3.14-.93v15.42Z"/>
    <path class="cls-2" d="M266.21,33.28h-3.14V12.92l3.14-.99v21.35Z"/>
    <path class="cls-2" d="M20.05,79.18h-2.15c-2.58,0-4.24-.76-4.93-2.32-.76,1.56-2.38,2.32-4.87,2.32-4.2,0-6.32-2.52-6.32-7.58s2.12-7.35,6.32-7.35h6.72v8.84c0,2.25,1.09,3.38,3.24,3.38h1.99v2.71ZM11.67,66.8h-3.38c-1.29,0-2.22.43-2.71,1.29-.43.69-.66,1.89-.66,3.51s.23,2.81.66,3.54c.5.89,1.42,1.32,2.71,1.32s2.22-.43,2.71-1.32c.43-.73.66-1.92.66-3.54v-4.8ZM8.79,59.58c0,.93-.79,1.72-1.75,1.72s-1.72-.79-1.72-1.72.79-1.69,1.72-1.69,1.75.76,1.75,1.69ZM13.23,59.58c0,.93-.79,1.72-1.72,1.72s-1.69-.79-1.69-1.72.76-1.69,1.69-1.69,1.72.76,1.72,1.69Z"/>
    <path class="cls-2" d="M25.37,79.18h-6.12v-2.78h6.12v2.78Z"/>
    <path class="cls-2" d="M30.7,79.18h-6.12v-2.78h6.12v2.78Z"/>
    <path class="cls-2" d="M36.03,79.18h-6.12v-2.78h6.12v2.78Z"/>
    <path class="cls-2" d="M48.9,79.18h-1.99c-1.95,0-3.48-.6-4.6-1.75-1.13,1.16-2.68,1.75-4.7,1.75h-2.38v-2.71h2.18c2.22,0,3.31-1.12,3.31-3.38v-7.91l3.11-.93v8.94c0,2.19,1.09,3.28,3.28,3.28h1.79v2.71ZM41.82,83.81c0,.93-.79,1.72-1.72,1.72s-1.69-.79-1.69-1.72.73-1.69,1.69-1.69,1.72.76,1.72,1.69ZM46.25,83.81c0,.93-.79,1.72-1.72,1.72s-1.69-.79-1.69-1.72.76-1.69,1.69-1.69,1.72.76,1.72,1.69Z"/>
    <path class="cls-2" d="M56.87,73.32c0,1.69-.56,3.11-1.69,4.2-1.13,1.09-2.65,1.66-4.53,1.66h-2.55v-2.71h2.38c2.18,0,3.28-1.12,3.28-3.38v-7.91l3.11-.93v9.07ZM54.89,83.81c0,.93-.79,1.72-1.72,1.72s-1.69-.79-1.69-1.72.79-1.69,1.69-1.69,1.72.76,1.72,1.69Z"/>
    <path class="cls-2" d="M67.6,79.18h-3.51c-2.81,0-4.37-1.72-4.37-4.27v-16.09l3.14-.99v16.98c0,1.06.53,1.59,1.62,1.59h3.11v2.78Z"/>
    <path class="cls-2" d="M80.44,79.18h-1.99c-1.95,0-3.48-.6-4.6-1.75-1.13,1.16-2.68,1.75-4.7,1.75h-2.38v-2.71h2.18c2.22,0,3.31-1.12,3.31-3.38v-7.91l3.11-.93v8.94c0,2.19,1.09,3.28,3.28,3.28h1.79v2.71ZM75.7,83.85c0,.93-.76,1.72-1.69,1.72s-1.72-.79-1.72-1.72.79-1.69,1.72-1.69,1.69.79,1.69,1.69Z"/>
    <path class="cls-2" d="M109.79,79.18h-30.09v-2.78h3.91v-8.37l3.14-.89v9.27h6.55v-9.76l3.14-.93v10.69h6.62v-11.22l3.14-.93v12.15h3.57v2.78ZM94.2,59.58c0,.93-.79,1.72-1.72,1.72s-1.69-.79-1.69-1.72.76-1.75,1.69-1.75,1.72.79,1.72,1.75ZM96.45,55.75c0,.89-.79,1.69-1.72,1.69s-1.72-.79-1.72-1.69.79-1.72,1.72-1.72,1.72.79,1.72,1.72ZM98.67,59.58c0,.93-.79,1.72-1.72,1.72s-1.72-.79-1.72-1.72.76-1.75,1.72-1.75,1.72.79,1.72,1.75Z"/>
    <path class="cls-2" d="M117.43,73.32c0,1.69-.56,3.08-1.69,4.2-1.13,1.09-2.65,1.66-4.53,1.66h-2.12v-2.78h1.95c2.15,0,3.24-1.12,3.24-3.38v-14.2l3.14-.93v15.42Z"/>
    <path class="cls-2" d="M123.42,79.18h-3.14v-20.36l3.14-.99v21.35Z"/>
    <path class="cls-2" d="M155.56,73.49c0,3.48-2.35,5.69-6.22,5.69h-11.75c-3.57,0-5.96-2.28-5.96-5.69v-3.34l3.11-3.18v6.19c0,2.15,1.09,3.24,3.28,3.24h11.15c2.22,0,3.31-1.09,3.31-3.24v-8.08l3.08-.83v9.23ZM143.11,64.65c0,.96-.79,1.72-1.72,1.72s-1.69-.76-1.69-1.72.76-1.72,1.69-1.72,1.72.79,1.72,1.72ZM147.55,64.65c0,.96-.79,1.72-1.72,1.72s-1.69-.76-1.69-1.72.79-1.72,1.69-1.72,1.72.79,1.72,1.72Z"/>
    <path class="cls-2" d="M166.27,79.18h-3.51c-2.81,0-4.37-1.72-4.37-4.27v-16.09l3.14-.99v16.98c0,1.06.53,1.59,1.62,1.59h3.11v2.78Z"/>
    <path class="cls-2" d="M171.57,79.18h-6.12v-2.78h6.12v2.78Z"/>
    <path class="cls-2" d="M184.44,79.18h-1.99c-1.95,0-3.48-.6-4.6-1.75-1.12,1.16-2.68,1.75-4.7,1.75h-2.38v-2.71h2.19c2.22,0,3.31-1.12,3.31-3.38v-7.91l3.11-.93v8.94c0,2.19,1.09,3.28,3.28,3.28h1.79v2.71ZM177.36,83.81c0,.93-.79,1.72-1.72,1.72s-1.69-.79-1.69-1.72.73-1.69,1.69-1.69,1.72.76,1.72,1.69ZM181.79,83.81c0,.93-.79,1.72-1.72,1.72s-1.69-.79-1.69-1.72.76-1.69,1.69-1.69,1.72.76,1.72,1.69Z"/>
    <path class="cls-2" d="M201.98,79.18h-18.34v-2.78h3.77v-5.66c0-1.85.6-3.41,1.75-4.63,1.19-1.22,2.85-1.85,4.93-1.85,1.79,0,3.34.66,4.67,1.95l-2.32,2.12c-.79-.96-1.69-1.42-2.71-1.42-1.89,0-3.18,1.42-3.18,3.31v6.19h11.42v2.78Z"/>
    <path class="cls-2" d="M223.89,79.18h-.43c-1.95,0-3.48-.7-4.53-2.08-.79,2.78-3.24,4.4-6.42,4.4-3.01,0-5.43-1.46-6.32-3.97-.96,1.09-2.32,1.66-4.1,1.66h-1.06v-2.78h.86c2.35,0,3.67-1.06,3.94-3.18.56-3.87,2.78-5.79,6.69-5.79,2.15,0,3.74.5,4.8,1.49.96.89,1.56,2.35,1.85,4.3.36,2.15,1.72,3.24,4.07,3.24l.66-.07v2.78ZM215.98,74.45c0-2.95-1.16-4.4-3.47-4.4s-3.51,1.46-3.51,4.4,1.16,4.4,3.51,4.4,3.47-1.46,3.47-4.4Z"/>
    <path class="cls-2" d="M245.37,79.18h-22.18v-2.71h14.86v-1.19c0-2.52-.23-4.34-.7-5.46-.73-1.85-2.18-2.78-4.37-2.78-1.82,0-3.48.86-5.03,2.55l-2.25-2.08c2.22-2.15,4.63-3.24,7.28-3.24,3.34,0,5.66,1.22,6.95,3.64.89,1.69,1.32,4.17,1.32,7.38v1.12h4.1v2.78ZM234.68,83.81c0,.93-.79,1.72-1.72,1.72s-1.72-.79-1.72-1.72.79-1.69,1.72-1.69,1.72.76,1.72,1.69Z"/>
    <path class="cls-2" d="M258.7,79.18h-2.18c-1.92,0-3.44-.6-4.6-1.79-1.09,1.19-2.65,1.79-4.67,1.79h-2.68v-2.78h2.48c2.19,0,3.28-1.12,3.28-3.38v-14.2l3.14-.99v15.36c0,2.15,1.09,3.21,3.24,3.21h1.99v2.78Z"/>
    <path class="cls-2" d="M266.21,73.32c0,1.69-.56,3.08-1.69,4.2-1.13,1.09-2.65,1.66-4.53,1.66h-2.12v-2.78h1.95c2.15,0,3.24-1.12,3.24-3.38v-14.2l3.14-.93v15.42Z"/>
  </g>
  <text class="cls-1" transform="translate(1.77 116.03)"><tspan x="0" y="0">Specialized Council for Youth NGOs</tspan></text>
  <g>
    <path class="cls-3" d="M389.22,102.94h0c3.87,0,7.01-3.14,7.01-7.01v-17.82c0-3.87-3.14-7.01-7.01-7.01s-7.01,3.14-7.01,7.01v17.82c0,3.87,3.14,7.01,7.01,7.01"/>
    <path class="cls-3" d="M370.18,107.5h0c3.87,0,7.01-3.14,7.01-7.01v-32.7c0-3.87-3.14-7.01-7.01-7.01s-7.01,3.14-7.01,7.01v32.7c0,3.87,3.14,7.01,7.01,7.01"/>
    <path class="cls-4" d="M351.15,116.03h0c3.87,0,7.01-3.14,7.01-7.01v-60.99c0-3.87-3.14-7.01-7.01-7.01s-7.01,3.14-7.01,7.01v60.99c0,3.87,3.14,7.01,7.01,7.01"/>
    <path class="cls-4" d="M332.11,116.03h0c3.87,0,7.01-3.14,7.01-7.01V40.66c0-3.87-3.14-7-7.01-7s-7.01,3.14-7.01,7v68.36c0,3.87,3.14,7.01,7.01,7.01"/>
    <path class="cls-2" d="M294.03,78.53h0c3.87,0,7.01-3.14,7.01-7.01v-26.78c0-3.87-3.14-7.01-7.01-7.01s-7.01,3.14-7.01,7.01v26.78c0,3.87,3.14,7.01,7.01,7.01"/>
    <path class="cls-2" d="M300.84,28.03c0,3.8-3.08,6.88-6.88,6.88s-6.88-3.08-6.88-6.88,3.08-6.88,6.88-6.88,6.88,3.08,6.88,6.88"/>
    <path class="cls-2" d="M319.91,18.55c0,3.8-3.08,6.88-6.88,6.88s-6.88-3.08-6.88-6.88,3.08-6.88,6.88-6.88,6.88,3.08,6.88,6.88"/>
    <path class="cls-4" d="M338.99,24.02c0,3.8-3.08,6.88-6.88,6.88s-6.88-3.08-6.88-6.88,3.08-6.88,6.88-6.88,6.88,3.08,6.88,6.88"/>
    <path class="cls-4" d="M358.03,31.37c0,3.8-3.08,6.88-6.88,6.88s-6.88-3.08-6.88-6.88,3.08-6.88,6.88-6.88,6.88,3.08,6.88,6.88"/>
    <path class="cls-3" d="M377.19,51.19c0,3.8-3.08,6.88-6.88,6.88s-6.88-3.08-6.88-6.88,3.08-6.88,6.88-6.88,6.88,3.08,6.88,6.88"/>
    <path class="cls-3" d="M396.1,61.51c0,3.8-3.08,6.88-6.88,6.88s-6.88-3.08-6.88-6.88,3.08-6.88,6.88-6.88,6.88,3.08,6.88,6.88"/>
    <path class="cls-2" d="M313.07,100.55h0c3.87,0,7.01-3.14,7.01-7.01v-58.25c0-3.87-3.14-7.01-7.01-7.01s-7.01,3.14-7.01,7.01v58.25c0,3.87,3.14,7.01,7.01,7.01"/>
  </g>
</svg>