<?xml version="1.0" encoding="UTF-8"?>
<svg id="Layer_1" data-name="Layer 1" xmlns="http://www.w3.org/2000/svg" viewBox="0 0 398 197">
  <defs>
    <style>
      .cls-1 {
        font-family: GalanoGrotesque-SemiBold, 'Galano Grotesque';
        font-size: 14.91px;
        font-weight: 600;
      }

      .cls-1, .cls-2 {
        fill: #263370;
      }

      .cls-3 {
        fill: #42b07a;
      }

      .cls-4 {
        fill: #0c7fae;
      }
    </style>
  </defs>
  <g>
    <path class="cls-2" d="M20.09,67.08c.13,2.03-.61,3.62-2.2,4.72-1.42,1-3.33,1.49-5.75,1.49-2.84,0-5.01-.81-6.46-2.39-1.29-1.39-1.94-3.29-1.94-5.69,0-1.94.42-3.94,1.29-6.01l3.52-2.13c-1.26,2.81-1.91,5.33-1.91,7.56,0,3.71,1.91,5.91,5.49,5.88,1.55,0,2.65-.13,3.33-.42,1.29-.49,2-1.49,2.13-3-2-.16-3.33-.97-3.97-2.46l1.42-2.91c.81,2.03,1.65,2.71,3.72,2.71h1.32v2.65ZM11.6,77.51c0,.9-.74,1.68-1.68,1.68s-1.68-.78-1.68-1.68.78-1.65,1.68-1.65,1.68.78,1.68,1.65ZM15.96,77.51c0,.9-.78,1.68-1.68,1.68s-1.68-.78-1.68-1.68.74-1.65,1.68-1.65,1.68.78,1.68,1.65Z"/>
    <path class="cls-2" d="M25.68,67.08h-5.98v-2.71h5.98v2.71Z"/>
    <path class="cls-2" d="M30.88,67.08h-5.98v-2.71h5.98v2.71Z"/>
    <path class="cls-2" d="M36.08,67.08h-5.98v-2.71h5.98v2.71Z"/>
    <path class="cls-2" d="M64.05,67.08h-28.69v-2.71h3.81v-8.17l3.07-.87v6.66c.42-1.62,1.13-3.13,2.07-4.52,2.03-3.1,4.85-4.68,8.43-4.78,3.13-.1,5.52,1.16,7.11,3.72,1.1,1.84,1.58,4.49,1.45,7.98h2.75v2.71ZM58.2,64.36c.07-.52.1-1.03.1-1.58,0-2-.39-3.65-1.2-4.97-1-1.55-2.42-2.33-4.3-2.33-2.29,0-4.36,1.1-6.27,3.29-1.71,1.91-2.62,3.75-2.75,5.59h14.41Z"/>
    <path class="cls-2" d="M92.12,67.08h-28.69v-2.71h3.81v-8.17l3.07-.87v6.66c.42-1.62,1.13-3.13,2.07-4.52,2.04-3.1,4.85-4.68,8.43-4.78,3.13-.1,5.52,1.16,7.11,3.72,1.1,1.84,1.58,4.49,1.45,7.98h2.75v2.71ZM86.27,64.36c.06-.52.1-1.03.1-1.58,0-2-.39-3.65-1.2-4.97-1-1.55-2.42-2.33-4.3-2.33-2.29,0-4.36,1.1-6.27,3.29-1.71,1.91-2.62,3.75-2.75,5.59h14.41Z"/>
    <path class="cls-2" d="M113.08,67.08h-21.64v-2.65h14.51v-1.16c0-2.46-.23-4.23-.68-5.33-.71-1.81-2.13-2.71-4.26-2.71-1.78,0-3.39.84-4.91,2.49l-2.2-2.03c2.16-2.1,4.52-3.17,7.11-3.17,3.26,0,5.52,1.2,6.78,3.55.87,1.65,1.29,4.07,1.29,7.2v1.1h4.01v2.71ZM102.71,47.95c0,.9-.78,1.68-1.68,1.68s-1.71-.78-1.71-1.68.78-1.65,1.71-1.65,1.68.74,1.68,1.65Z"/>
    <path class="cls-2" d="M125.64,67.08h-1.94c-1.91,0-3.39-.58-4.49-1.71-1.1,1.13-2.62,1.71-4.59,1.71h-2.33v-2.65h2.13c2.16,0,3.23-1.1,3.23-3.29v-7.72l3.04-.9v8.72c0,2.13,1.07,3.2,3.2,3.2h1.74v2.65ZM118.57,47.95c0,.9-.78,1.68-1.68,1.68s-1.65-.78-1.65-1.68.71-1.65,1.65-1.65,1.68.74,1.68,1.65ZM122.9,47.95c0,.9-.78,1.68-1.68,1.68s-1.65-.78-1.65-1.68.78-1.65,1.65-1.65,1.68.74,1.68,1.65Z"/>
    <path class="cls-2" d="M133,61.36c0,1.65-.55,3-1.65,4.1-1.1,1.07-2.58,1.62-4.43,1.62h-2.07v-2.71h1.91c2.1,0,3.17-1.1,3.17-3.3v-13.86l3.07-.9v15.05Z"/>
    <path class="cls-2" d="M138.85,67.08h-3.07v-19.87l3.07-.97v20.84Z"/>
    <path class="cls-2" d="M187.34,67.08h-22.58c-.26,4.14-3.13,6.2-8.63,6.2-3.88,0-6.49-1.2-7.88-3.59-1-1.71-1.45-4.39-1.39-8.11l3.04-.9v2.81c0,5.04,1.74,7.01,6.27,7.01,3.71,0,5.56-1.45,5.56-4.39v-9.63l3.07-.94v8.82h6.46v-9.53l3.07-.9v10.43h6.46v-10.95l3.07-.9v11.86h3.49v2.71Z"/>
    <path class="cls-2" d="M192.56,67.08h-5.98v-2.71h5.98v2.71Z"/>
    <path class="cls-2" d="M205.58,67.08h-2.13c-1.87,0-3.36-.58-4.49-1.74-1.07,1.16-2.58,1.74-4.55,1.74h-2.62v-2.71h2.42c2.13,0,3.2-1.1,3.2-3.3v-13.86l3.07-.97v14.99c0,2.1,1.07,3.13,3.17,3.13h1.94v2.71Z"/>
    <path class="cls-2" d="M226.41,67.08h-21.64v-2.65h14.51v-1.16c0-2.46-.23-4.23-.68-5.33-.71-1.81-2.13-2.71-4.26-2.71-1.78,0-3.39.84-4.91,2.49l-2.2-2.03c2.16-2.1,4.52-3.17,7.11-3.17,3.26,0,5.52,1.2,6.78,3.55.87,1.65,1.29,4.07,1.29,7.2v1.1h4.01v2.71ZM215.98,71.6c0,.9-.78,1.68-1.68,1.68s-1.68-.78-1.68-1.68.78-1.65,1.68-1.65,1.68.74,1.68,1.65Z"/>
    <path class="cls-2" d="M247.8,67.08h-.42c-1.91,0-3.39-.68-4.43-2.03-.78,2.71-3.17,4.3-6.27,4.3-2.94,0-5.3-1.42-6.17-3.88-.94,1.07-2.26,1.62-4.01,1.62h-1.03v-2.71h.84c2.29,0,3.59-1.03,3.84-3.1.55-3.78,2.71-5.65,6.53-5.65,2.1,0,3.65.48,4.68,1.45.94.87,1.52,2.29,1.81,4.2.36,2.1,1.68,3.17,3.97,3.17l.65-.06v2.71ZM240.07,62.46c0-2.88-1.13-4.3-3.39-4.3s-3.42,1.42-3.42,4.3,1.13,4.3,3.42,4.3,3.39-1.42,3.39-4.3Z"/>
    <path class="cls-2" d="M255.25,61.36c0,1.65-.55,3-1.65,4.1-1.1,1.07-2.58,1.62-4.43,1.62h-2.07v-2.71h1.91c2.1,0,3.17-1.1,3.17-3.3v-13.86l3.07-.9v15.05Z"/>
    <path class="cls-2" d="M261.1,67.08h-3.07v-19.87l3.07-.97v20.84Z"/>
    <path class="cls-2" d="M20.84,111.88h-2.1c-2.52,0-4.14-.74-4.81-2.26-.74,1.52-2.33,2.26-4.75,2.26-4.1,0-6.17-2.46-6.17-7.4s2.07-7.17,6.17-7.17h6.56v8.63c0,2.2,1.07,3.29,3.17,3.29h1.94v2.65ZM12.66,99.8h-3.3c-1.26,0-2.16.42-2.65,1.26-.42.68-.65,1.84-.65,3.42s.23,2.75.65,3.46c.48.87,1.39,1.29,2.65,1.29s2.16-.42,2.65-1.29c.42-.71.65-1.87.65-3.46v-4.68ZM9.85,92.75c0,.9-.78,1.68-1.71,1.68s-1.68-.78-1.68-1.68.78-1.65,1.68-1.65,1.71.74,1.71,1.65ZM14.18,92.75c0,.9-.78,1.68-1.68,1.68s-1.65-.78-1.65-1.68.74-1.65,1.65-1.65,1.68.74,1.68,1.65Z"/>
    <path class="cls-2" d="M26.03,111.88h-5.98v-2.71h5.98v2.71Z"/>
    <path class="cls-2" d="M31.23,111.88h-5.98v-2.71h5.98v2.71Z"/>
    <path class="cls-2" d="M36.43,111.88h-5.98v-2.71h5.98v2.71Z"/>
    <path class="cls-2" d="M49,111.88h-1.94c-1.91,0-3.39-.58-4.49-1.71-1.1,1.13-2.62,1.71-4.59,1.71h-2.33v-2.65h2.13c2.16,0,3.23-1.1,3.23-3.29v-7.72l3.04-.9v8.72c0,2.13,1.07,3.2,3.2,3.2h1.74v2.65ZM42.09,116.4c0,.9-.78,1.68-1.68,1.68s-1.65-.78-1.65-1.68.71-1.65,1.65-1.65,1.68.74,1.68,1.65ZM46.41,116.4c0,.9-.78,1.68-1.68,1.68s-1.65-.78-1.65-1.68.74-1.65,1.65-1.65,1.68.74,1.68,1.65Z"/>
    <path class="cls-2" d="M56.78,106.16c0,1.65-.55,3.04-1.65,4.1-1.1,1.07-2.58,1.62-4.43,1.62h-2.49v-2.65h2.33c2.13,0,3.2-1.1,3.2-3.29v-7.72l3.04-.9v8.85ZM54.84,116.4c0,.9-.78,1.68-1.68,1.68s-1.65-.78-1.65-1.68.78-1.65,1.65-1.65,1.68.74,1.68,1.65Z"/>
    <path class="cls-2" d="M67.25,111.88h-3.42c-2.75,0-4.26-1.68-4.26-4.17v-15.7l3.07-.97v16.57c0,1.03.52,1.55,1.58,1.55h3.04v2.71Z"/>
    <path class="cls-2" d="M79.78,111.88h-1.94c-1.91,0-3.39-.58-4.49-1.71-1.1,1.13-2.62,1.71-4.59,1.71h-2.33v-2.65h2.13c2.16,0,3.23-1.1,3.23-3.29v-7.72l3.04-.9v8.72c0,2.13,1.07,3.2,3.2,3.2h1.74v2.65ZM75.16,116.43c0,.9-.74,1.68-1.65,1.68s-1.68-.78-1.68-1.68.78-1.65,1.68-1.65,1.65.78,1.65,1.65Z"/>
    <path class="cls-2" d="M108.43,111.88h-29.36v-2.71h3.81v-8.17l3.07-.87v9.05h6.4v-9.53l3.07-.9v10.43h6.46v-10.95l3.07-.9v11.86h3.49v2.71ZM93.22,92.75c0,.9-.78,1.68-1.68,1.68s-1.65-.78-1.65-1.68.74-1.71,1.65-1.71,1.68.78,1.68,1.71ZM95.41,89.01c0,.87-.78,1.65-1.68,1.65s-1.68-.78-1.68-1.65.78-1.68,1.68-1.68,1.68.78,1.68,1.68ZM97.58,92.75c0,.9-.78,1.68-1.68,1.68s-1.68-.78-1.68-1.68.74-1.71,1.68-1.71,1.68.78,1.68,1.71Z"/>
    <path class="cls-2" d="M115.89,106.16c0,1.65-.55,3-1.65,4.1-1.1,1.07-2.58,1.62-4.43,1.62h-2.07v-2.71h1.91c2.1,0,3.17-1.1,3.17-3.3v-13.86l3.07-.9v15.05Z"/>
    <path class="cls-2" d="M121.73,111.88h-3.07v-19.87l3.07-.97v20.84Z"/>
    <path class="cls-2" d="M153.1,106.32c0,3.39-2.29,5.56-6.07,5.56h-11.47c-3.49,0-5.81-2.23-5.81-5.56v-3.26l3.04-3.1v6.04c0,2.1,1.07,3.17,3.2,3.17h10.89c2.17,0,3.23-1.07,3.23-3.17v-7.88l3-.81v9.01ZM140.95,97.7c0,.94-.78,1.68-1.68,1.68s-1.65-.74-1.65-1.68.74-1.68,1.65-1.68,1.68.78,1.68,1.68ZM145.28,97.7c0,.94-.78,1.68-1.68,1.68s-1.65-.74-1.65-1.68.78-1.68,1.65-1.68,1.68.78,1.68,1.68Z"/>
    <path class="cls-2" d="M163.56,111.88h-3.42c-2.75,0-4.26-1.68-4.26-4.17v-15.7l3.07-.97v16.57c0,1.03.52,1.55,1.58,1.55h3.04v2.71Z"/>
    <path class="cls-2" d="M168.73,111.88h-5.98v-2.71h5.98v2.71Z"/>
    <path class="cls-2" d="M181.29,111.88h-1.94c-1.91,0-3.39-.58-4.49-1.71-1.1,1.13-2.62,1.71-4.59,1.71h-2.33v-2.65h2.13c2.16,0,3.23-1.1,3.23-3.29v-7.72l3.04-.9v8.72c0,2.13,1.07,3.2,3.2,3.2h1.74v2.65ZM174.38,116.4c0,.9-.78,1.68-1.68,1.68s-1.65-.78-1.65-1.68.71-1.65,1.65-1.65,1.68.74,1.68,1.65ZM178.71,116.4c0,.9-.78,1.68-1.68,1.68s-1.65-.78-1.65-1.68.74-1.65,1.65-1.65,1.68.74,1.68,1.65Z"/>
    <path class="cls-2" d="M198.41,111.88h-17.9v-2.71h3.68v-5.52c0-1.81.58-3.33,1.71-4.52,1.16-1.2,2.78-1.81,4.81-1.81,1.74,0,3.26.65,4.56,1.91l-2.26,2.07c-.78-.94-1.65-1.39-2.65-1.39-1.84,0-3.1,1.39-3.1,3.23v6.04h11.15v2.71Z"/>
    <path class="cls-2" d="M219.79,111.88h-.42c-1.91,0-3.39-.68-4.43-2.03-.78,2.71-3.17,4.3-6.27,4.3-2.94,0-5.3-1.42-6.17-3.88-.94,1.07-2.26,1.62-4.01,1.62h-1.03v-2.71h.84c2.29,0,3.59-1.03,3.84-3.1.55-3.78,2.71-5.65,6.53-5.65,2.1,0,3.65.48,4.68,1.45.94.87,1.52,2.29,1.81,4.2.36,2.1,1.68,3.17,3.97,3.17l.65-.06v2.71ZM212.07,107.26c0-2.88-1.13-4.3-3.39-4.3s-3.42,1.42-3.42,4.3,1.13,4.3,3.42,4.3,3.39-1.42,3.39-4.3Z"/>
    <path class="cls-2" d="M240.75,111.88h-21.64v-2.65h14.51v-1.16c0-2.46-.23-4.23-.68-5.33-.71-1.81-2.13-2.71-4.26-2.71-1.78,0-3.39.84-4.91,2.49l-2.2-2.03c2.16-2.1,4.52-3.17,7.11-3.17,3.26,0,5.52,1.2,6.78,3.55.87,1.65,1.29,4.07,1.29,7.2v1.1h4v2.71ZM230.32,116.4c0,.9-.78,1.68-1.68,1.68s-1.68-.78-1.68-1.68.78-1.65,1.68-1.65,1.68.74,1.68,1.65Z"/>
    <path class="cls-2" d="M253.77,111.88h-2.13c-1.87,0-3.36-.58-4.49-1.74-1.07,1.16-2.58,1.74-4.56,1.74h-2.62v-2.71h2.42c2.13,0,3.2-1.1,3.2-3.3v-13.86l3.07-.97v14.99c0,2.1,1.07,3.13,3.17,3.13h1.94v2.71Z"/>
    <path class="cls-2" d="M261.1,106.16c0,1.65-.55,3-1.65,4.1-1.1,1.07-2.58,1.62-4.43,1.62h-2.07v-2.71h1.91c2.1,0,3.17-1.1,3.17-3.3v-13.86l3.07-.9v15.05Z"/>
  </g>
  <text class="cls-1" transform="translate(3 147.85)"><tspan x="0" y="0">Specialized Council for Youth NGOs</tspan></text>
  <g>
    <path class="cls-3" d="M388.16,135.07h0c3.78,0,6.84-3.06,6.84-6.84v-17.39c0-3.78-3.06-6.84-6.84-6.84s-6.84,3.06-6.84,6.84v17.39c0,3.78,3.06,6.84,6.84,6.84"/>
    <path class="cls-3" d="M369.58,139.52h0c3.78,0,6.84-3.06,6.84-6.84v-31.92c0-3.78-3.06-6.84-6.84-6.84s-6.84,3.06-6.84,6.84v31.92c0,3.78,3.06,6.84,6.84,6.84"/>
    <path class="cls-4" d="M351,147.85h0c3.78,0,6.84-3.06,6.84-6.84v-59.53c0-3.78-3.06-6.84-6.84-6.84s-6.84,3.06-6.84,6.84v59.53c0,3.78,3.06,6.84,6.84,6.84"/>
    <path class="cls-4" d="M332.42,147.85h0c3.78,0,6.84-3.06,6.84-6.84v-66.73c0-3.78-3.06-6.84-6.84-6.84s-6.84,3.06-6.84,6.84v66.73c0,3.78,3.06,6.84,6.84,6.84"/>
    <path class="cls-2" d="M295.25,111.24h0c3.78,0,6.84-3.06,6.84-6.84v-26.14c0-3.78-3.06-6.84-6.84-6.84s-6.84,3.06-6.84,6.84v26.14c0,3.78,3.06,6.84,6.84,6.84"/>
    <path class="cls-2" d="M301.9,61.95c0,3.71-3.01,6.71-6.71,6.71s-6.71-3.01-6.71-6.71,3.01-6.71,6.71-6.71,6.71,3.01,6.71,6.71"/>
    <path class="cls-2" d="M320.52,52.71c0,3.71-3.01,6.71-6.71,6.71s-6.71-3.01-6.71-6.71,3.01-6.71,6.71-6.71,6.71,3.01,6.71,6.71"/>
    <path class="cls-4" d="M339.14,58.04c0,3.71-3.01,6.71-6.71,6.71s-6.71-3.01-6.71-6.71,3.01-6.71,6.71-6.71,6.71,3.01,6.71,6.71"/>
    <path class="cls-4" d="M357.72,65.22c0,3.71-3.01,6.71-6.71,6.71s-6.71-3.01-6.71-6.71,3.01-6.71,6.71-6.71,6.71,3.01,6.71,6.71"/>
    <path class="cls-3" d="M376.42,84.56c0,3.71-3.01,6.71-6.71,6.71s-6.71-3.01-6.71-6.71,3.01-6.71,6.71-6.71,6.71,3.01,6.71,6.71"/>
    <path class="cls-3" d="M394.88,94.64c0,3.71-3.01,6.71-6.71,6.71s-6.71-3.01-6.71-6.71,3.01-6.71,6.71-6.71,6.71,3.01,6.71,6.71"/>
    <path class="cls-2" d="M313.84,132.73h0c3.78,0,6.84-3.06,6.84-6.84v-56.85c0-3.78-3.06-6.84-6.84-6.84s-6.84,3.06-6.84,6.84v56.85c0,3.78,3.06,6.84,6.84,6.84"/>
  </g>
</svg>