<?xml version="1.0" encoding="UTF-8"?>
<svg id="Layer_1" data-name="Layer 1" xmlns="http://www.w3.org/2000/svg" viewBox="0 0 398 417">
  <defs>
    <style>
      .cls-1 {
        fill: #42b07a;
      }

      .cls-2 {
        fill: #263370;
      }

      .cls-3 {
        fill: #0c7fae;
      }
    </style>
  </defs>
  <path class="cls-1" d="M341.76,325.75h0c11.6,0,21.01-9.41,21.01-21.01v-53.44c0-11.6-9.41-21.01-21.01-21.01s-21.01,9.41-21.01,21.01v53.44c0,11.6,9.41,21.01,21.01,21.01"/>
  <path class="cls-1" d="M284.65,339.42h0c11.6,0,21.01-9.41,21.01-21.01v-98.08c0-11.6-9.41-21.01-21.01-21.01s-21.01,9.41-21.01,21.01v98.08c0,11.6,9.41,21.01,21.01,21.01"/>
  <path class="cls-3" d="M227.55,365h0c11.6,0,21.01-9.41,21.01-21.01v-182.93c0-11.6-9.41-21.01-21.01-21.01s-21.01,9.41-21.01,21.01v182.93c0,11.61,9.41,21.01,21.01,21.01"/>
  <path class="cls-3" d="M170.45,365h0c11.6,0,21.01-9.41,21.01-21.01v-205.05c0-11.6-9.41-21.01-21.01-21.01s-21.01,9.41-21.01,21.01v205.05c0,11.61,9.41,21.01,21.01,21.01"/>
  <path class="cls-2" d="M56.24,252.52h0c11.6,0,21.01-9.41,21.01-21.01v-80.32c0-11.6-9.41-21.01-21.01-21.01s-21.01,9.41-21.01,21.01v80.32c0,11.6,9.41,21.01,21.01,21.01"/>
  <path class="cls-2" d="M76.67,101.04c0,11.39-9.24,20.63-20.63,20.63s-20.63-9.23-20.63-20.63,9.23-20.63,20.63-20.63,20.63,9.23,20.63,20.63"/>
  <path class="cls-2" d="M133.87,72.63c0,11.39-9.24,20.63-20.63,20.63s-20.63-9.23-20.63-20.63,9.23-20.63,20.63-20.63,20.63,9.24,20.63,20.63"/>
  <path class="cls-3" d="M191.1,89.03c0,11.39-9.24,20.63-20.63,20.63s-20.63-9.23-20.63-20.63,9.23-20.63,20.63-20.63,20.63,9.24,20.63,20.63"/>
  <path class="cls-3" d="M248.2,111.07c0,11.39-9.24,20.63-20.63,20.63s-20.63-9.23-20.63-20.63,9.23-20.63,20.63-20.63,20.63,9.24,20.63,20.63"/>
  <path class="cls-1" d="M305.67,170.51c0,11.39-9.24,20.63-20.63,20.63s-20.63-9.24-20.63-20.63,9.23-20.63,20.63-20.63,20.63,9.23,20.63,20.63"/>
  <path class="cls-1" d="M362.39,201.48c0,11.39-9.24,20.63-20.63,20.63s-20.63-9.24-20.63-20.63,9.23-20.63,20.63-20.63,20.63,9.23,20.63,20.63"/>
  <path class="cls-2" d="M113.34,318.56h0c11.6,0,21.01-9.41,21.01-21.01V122.84c0-11.61-9.41-21.01-21.01-21.01s-21.01,9.41-21.01,21.01v174.71c0,11.6,9.41,21.01,21.01,21.01"/>
</svg>