<?xml version="1.0" encoding="UTF-8"?>
<svg id="Layer_1" data-name="Layer 1" xmlns="http://www.w3.org/2000/svg" viewBox="0 0 938.4 189">
  <defs>
    <style>
      .cls-1 {
        fill: #42b07a;
      }

      .cls-2 {
        fill: #263370;
      }

      .cls-3 {
        fill: #223f98;
      }

      .cls-4 {
        fill: #0c7fae;
      }

      .cls-5 {
        fill: #263470;
      }

      .cls-6 {
        fill: #0f7fad;
      }

      .cls-7 {
        fill: #40af7a;
      }
    </style>
  </defs>
  <g>
    <g>
      <path class="cls-5" d="M157.98,110.14c-18.92,0-34.31-15.39-34.31-34.32s15.39-34.31,34.31-34.31,34.31,15.39,34.31,34.31-15.39,34.32-34.31,34.32ZM157.98,59.41c-9.05,0-16.42,7.37-16.42,16.42s7.37,16.42,16.42,16.42,16.42-7.37,16.42-16.42-7.37-16.42-16.42-16.42Z"/>
      <rect class="cls-6" x="283.69" y="21.79" width="17.9" height="88.33" rx="8.95" ry="8.95"/>
      <path class="cls-5" d="M239.32,110.14h0c-18.27,0-33.98-14.94-33.97-33.21.02-26.07-20.64-47.85-46.03-48.55-12.93-.37-25.12,4.4-34.36,13.39-7.45,7.25-12.2,16.49-13.77,26.55-.67,4.29-4.46,7.4-8.81,7.4h0c-5.49,0-9.71-4.9-8.86-10.33,2.18-13.81,8.72-26.49,18.95-36.45,12.73-12.39,29.55-18.95,47.33-18.46,34.91.96,63.33,30.64,63.43,66.22.02,8.54,6.75,15.54,15.29,15.54h0c5.98,0,10.83-4.85,10.83-10.83v-31.08c0-4.94,4.01-8.95,8.95-8.95h0c4.94,0,8.95,4.01,8.95,8.95v31.87c0,15.43-12.51,27.94-27.94,27.94Z"/>
      <path class="cls-5" d="M36.54,128.03c-17.27.29-31.41-14.42-31.41-31.7v-37.04c0-4.94,4.01-8.95,8.95-8.95h0c4.94,0,8.95,4.01,8.95,8.95v37.41c0,6.6,4.73,12.49,11.28,13.33,7.92,1.02,14.69-5.15,14.69-12.88v-46.81h17.9v46.81c0,16.85-13.57,30.6-30.36,30.88Z"/>
      <rect class="cls-7" x="318.02" y="10.49" width="17.9" height="99.64" rx="8.95" ry="8.95"/>
      <path class="cls-5" d="M157.98,110.14h-71.06c-20.94,0-37.92-16.98-37.92-37.92V19.44c0-4.94,4.01-8.95,8.95-8.95h0c4.94,0,8.95,4.01,8.95,8.95v52.78c0,11.06,8.97,20.03,20.03,20.03h71.06v17.9Z"/>
    </g>
    <g>
      <path class="cls-3" d="M27.51,169.67c-2.75,0-4.89-.8-6.43-2.4l-.18-.16c-.68.74-1.66,1.37-2.96,1.87-1.12.45-2.31.67-3.55.67-.23,0-.45,0-.67-.02-1.5-.09-2.88-.51-4.14-1.26-3.04-1.75-4.57-4.64-4.57-8.69,0-3.04.84-5.47,2.52-7.27,1.85-1.95,4.4-2.93,7.65-2.94h.06c1.84,0,3.49.32,4.95.97,2.12.92,3.19,2.25,3.19,4v7.35c0,1.45.38,2.56,1.14,3.35.68.69,1.68,1.04,3,1.04v3.49ZM19.01,154.44c0-.38-.31-.7-.93-.97-.81-.35-1.76-.53-2.84-.53h-.06c-1.77,0-3.15.53-4.14,1.58-1.11,1.16-1.66,2.88-1.66,5.16,0,2.86.93,4.82,2.78,5.91.61.34,1.25.53,1.93.57.11.01.22.02.32.02.55,0,1.1-.11,1.62-.33,1.71-.66,2.7-2.02,2.98-4.08v-7.33ZM9.71,144.52c0-.31.06-.6.18-.87.12-.27.28-.51.49-.71.2-.2.44-.36.7-.48.26-.11.54-.17.84-.17s.58.06.85.17c.27.12.51.27.71.48.2.2.36.44.48.71.11.27.17.56.17.87s-.06.6-.17.86c-.12.26-.27.49-.48.69s-.44.35-.71.47c-.27.12-.56.17-.85.17s-.58-.06-.84-.17c-.26-.11-.5-.27-.7-.47-.2-.2-.37-.43-.49-.69-.12-.26-.18-.55-.18-.86ZM15.01,144.52c0-.31.06-.6.18-.87.12-.27.28-.51.49-.71.2-.2.44-.36.71-.48.27-.11.56-.17.87-.17s.58.06.84.17c.26.12.49.27.69.48.2.2.35.44.47.71s.17.56.17.87-.06.6-.17.86c-.11.26-.27.49-.47.69s-.43.35-.69.47c-.26.12-.54.17-.84.17s-.6-.06-.87-.17c-.27-.11-.51-.27-.71-.47s-.37-.43-.49-.69c-.12-.26-.18-.55-.18-.86Z"/>
      <path class="cls-3" d="M25.28,169.67v-3.49h1.68c1.1,0,1.98-.34,2.64-1.02.76-.78,1.14-1.91,1.14-3.37v-8.69h4.38v9.11c.07,1.25.44,2.22,1.12,2.92.68.69,1.54,1.04,2.58,1.04h1.77v3.49h-1.77c-2.48,0-4.44-.75-5.89-2.25-1.46,1.5-3.45,2.25-5.97,2.25h-1.68ZM27.71,174.89c0-.31.06-.6.18-.87.12-.27.28-.51.49-.71s.44-.36.7-.48c.26-.11.54-.17.84-.17s.58.06.85.17c.27.12.51.27.71.48.2.2.36.44.48.71.11.27.17.56.17.87s-.06.6-.17.86c-.12.26-.27.49-.48.69-.2.2-.44.35-.71.47-.27.12-.56.17-.85.17s-.58-.06-.84-.17c-.26-.12-.5-.27-.7-.47s-.37-.43-.49-.69c-.12-.26-.18-.55-.18-.86ZM33.01,174.89c0-.31.06-.6.18-.87.12-.27.28-.51.49-.71.2-.2.44-.36.71-.48.27-.11.56-.17.87-.17s.58.06.84.17c.26.12.49.27.69.48.2.2.35.44.47.71.11.27.17.56.17.87s-.06.6-.17.86c-.12.26-.27.49-.47.69-.2.2-.43.35-.69.47-.26.12-.54.17-.84.17s-.6-.06-.87-.17c-.27-.12-.51-.27-.71-.47-.2-.2-.37-.43-.49-.69-.12-.26-.18-.55-.18-.86Z"/>
      <path class="cls-3" d="M52.36,153.1v9.8c0,1.79-.65,3.33-1.95,4.63-1.42,1.42-3.17,2.13-5.24,2.13h-6.82v-3.49h6.82c.68,0,1.29-.27,1.83-.81.66-.65.99-1.47.99-2.46v-9.8h4.36ZM43.26,175.01c0-.31.06-.6.18-.87.12-.27.28-.51.49-.71.2-.2.44-.36.7-.48.26-.12.54-.17.84-.17s.58.06.85.17c.27.11.51.27.71.48.2.2.36.44.48.71.12.27.17.56.17.87s-.06.6-.17.86c-.11.26-.27.49-.48.69-.2.2-.44.35-.71.47-.27.11-.55.17-.85.17s-.58-.06-.84-.17c-.26-.12-.5-.27-.7-.47s-.37-.43-.49-.69c-.12-.26-.18-.55-.18-.86Z"/>
      <path class="cls-3" d="M59.97,145.39v17.52c0,.99.33,1.81.99,2.46.54.54,1.15.81,1.83.81h4.79v3.49h-4.79c-2.07,0-3.82-.71-5.24-2.13-1.3-1.3-1.95-2.84-1.95-4.63v-17.52h4.36Z"/>
      <path class="cls-3" d="M65.76,169.67v-3.49h1.68c1.1,0,1.98-.34,2.64-1.02.76-.78,1.14-1.91,1.14-3.37v-8.69h4.38v9.11c.07,1.25.44,2.22,1.12,2.92.68.69,1.54,1.04,2.58,1.04h1.77v3.49h-1.77c-2.48,0-4.44-.75-5.89-2.25-1.46,1.5-3.45,2.25-5.97,2.25h-1.68ZM71.22,175.01c0-.31.06-.6.18-.87.12-.27.28-.51.49-.71.2-.2.44-.36.7-.48.26-.12.54-.17.84-.17s.58.06.85.17c.27.11.51.27.71.48.2.2.36.44.48.71.11.27.17.56.17.87s-.06.6-.17.86c-.12.26-.27.49-.48.69s-.44.35-.71.47c-.27.11-.56.17-.85.17s-.58-.06-.84-.17c-.26-.12-.5-.27-.7-.47-.2-.2-.37-.43-.49-.69-.12-.26-.18-.55-.18-.86Z"/>
      <path class="cls-3" d="M99.27,161.79c0,1.45.38,2.56,1.14,3.35.68.69,1.54,1.04,2.58,1.04,1.1,0,1.98-.34,2.64-1.02.76-.78,1.14-1.91,1.14-3.37v-8.69h4.38v8.69c0,2.25-.69,4.08-2.07,5.5-1.54,1.58-3.57,2.38-6.09,2.38s-4.44-.75-5.89-2.25c-1.48,1.5-3.47,2.25-5.99,2.25s-4.44-.75-5.89-2.25c-1.48,1.5-3.61,2.25-6.39,2.25v-3.49c1.37,0,2.39-.34,3.06-1.02.76-.78,1.14-1.91,1.14-3.37v-8.69h4.36v8.69c0,1.45.38,2.56,1.14,3.35.68.69,1.54,1.04,2.58,1.04,1.1,0,1.98-.34,2.64-1.02.77-.78,1.16-1.91,1.16-3.37v-8.69h4.36v8.69ZM91.33,147.95c0-.31.06-.6.18-.87.12-.27.28-.51.49-.71.2-.2.44-.36.7-.48.26-.12.54-.17.84-.17s.58.06.85.17c.27.12.51.27.71.48.2.2.36.44.48.71.12.27.17.56.17.87s-.06.6-.17.86c-.11.26-.27.49-.48.69-.2.2-.44.35-.71.47-.27.12-.55.17-.85.17s-.58-.06-.84-.17c-.26-.12-.5-.27-.7-.47s-.37-.43-.49-.69c-.12-.26-.18-.55-.18-.86ZM94.68,142.71c0-.31.06-.6.18-.87.12-.27.28-.51.49-.71.2-.2.44-.36.7-.48.26-.11.54-.17.84-.17s.58.06.85.17c.27.12.51.27.71.48.2.2.36.44.48.71.11.27.17.56.17.87s-.06.6-.17.86c-.12.26-.27.49-.48.69s-.44.35-.71.47c-.27.12-.56.17-.85.17s-.58-.06-.84-.17c-.26-.11-.5-.27-.7-.47-.2-.2-.37-.43-.49-.69-.12-.26-.18-.55-.18-.86ZM98.01,147.95c0-.31.06-.6.18-.87.12-.27.28-.51.49-.71.2-.2.44-.36.71-.48s.56-.17.87-.17.58.06.84.17c.26.12.49.27.69.48.2.2.35.44.47.71.11.27.17.56.17.87s-.06.6-.17.86c-.12.26-.27.49-.47.69-.2.2-.43.35-.69.47-.26.12-.54.17-.84.17s-.6-.06-.87-.17-.51-.27-.71-.47c-.2-.2-.37-.43-.49-.69-.12-.26-.18-.55-.18-.86Z"/>
      <path class="cls-3" d="M147.21,169.67c-2.75,0-4.89-.8-6.43-2.4l-.18-.16c-.68.74-1.66,1.37-2.96,1.87-1.12.45-2.31.67-3.55.67-.23,0-.45,0-.67-.02-1.5-.09-2.88-.51-4.14-1.26-3.04-1.75-4.57-4.64-4.57-8.69,0-3.04.84-5.47,2.52-7.27,1.85-1.95,4.4-2.93,7.65-2.94h.06c1.84,0,3.49.32,4.95.97,2.12.92,3.19,2.25,3.19,4v7.35c0,1.45.38,2.56,1.14,3.35.68.69,1.68,1.04,3,1.04v3.49ZM138.71,154.44c0-.38-.31-.7-.93-.97-.81-.35-1.76-.53-2.84-.53h-.06c-1.77,0-3.15.53-4.14,1.58-1.11,1.16-1.66,2.88-1.66,5.16,0,2.86.93,4.82,2.78,5.91.61.34,1.25.53,1.93.57.11.01.22.02.32.02.55,0,1.1-.11,1.62-.33,1.71-.66,2.7-2.02,2.98-4.08v-7.33ZM129.41,144.52c0-.31.06-.6.18-.87.12-.27.28-.51.49-.71.2-.2.44-.36.7-.48.26-.11.54-.17.84-.17s.58.06.85.17c.27.12.51.27.71.48.2.2.36.44.48.71.11.27.17.56.17.87s-.06.6-.17.86c-.12.26-.27.49-.48.69s-.44.35-.71.47c-.27.12-.56.17-.85.17s-.58-.06-.84-.17c-.26-.11-.5-.27-.7-.47-.2-.2-.37-.43-.49-.69-.12-.26-.18-.55-.18-.86ZM134.71,144.52c0-.31.06-.6.18-.87.12-.27.28-.51.49-.71.2-.2.44-.36.71-.48.27-.11.56-.17.87-.17s.58.06.84.17c.26.12.49.27.69.48.2.2.35.44.47.71s.17.56.17.87-.06.6-.17.86c-.11.26-.27.49-.47.69s-.43.35-.69.47c-.26.12-.54.17-.84.17s-.6-.06-.87-.17c-.27-.11-.51-.27-.71-.47s-.37-.43-.49-.69c-.12-.26-.18-.55-.18-.86Z"/>
      <path class="cls-3" d="M158.99,153.1v9.8c0,1.79-.65,3.33-1.95,4.63-1.42,1.42-3.17,2.13-5.24,2.13h-6.82v-3.49h6.82c.68,0,1.29-.27,1.83-.81.66-.65.99-1.47.99-2.46v-9.8h4.36ZM147.32,174.89c0-.31.06-.6.18-.87.12-.27.28-.51.49-.71.2-.2.44-.36.7-.48.26-.11.54-.17.84-.17s.58.06.85.17c.27.12.51.27.71.48s.36.44.48.71c.11.27.17.56.17.87s-.06.6-.17.86c-.12.26-.27.49-.48.69s-.44.35-.71.47c-.27.12-.56.17-.85.17s-.58-.06-.84-.17c-.26-.12-.5-.27-.7-.47-.2-.2-.37-.43-.49-.69-.12-.26-.18-.55-.18-.86ZM152.61,174.89c0-.31.06-.6.18-.87.12-.27.28-.51.49-.71.2-.2.44-.36.71-.48.27-.11.56-.17.87-.17s.58.06.84.17c.26.12.49.27.69.48.2.2.35.44.47.71.11.27.17.56.17.87s-.06.6-.17.86c-.12.26-.27.49-.47.69-.2.2-.43.35-.69.47-.26.12-.54.17-.84.17s-.6-.06-.87-.17c-.27-.12-.51-.27-.71-.47-.2-.2-.37-.43-.49-.69-.12-.26-.18-.55-.18-.86Z"/>
      <path class="cls-3" d="M180.22,169.67c-.24,1.19-.73,2.4-1.46,3.61-.42.81-1,1.66-1.75,2.54-.68.81-1.56,1.72-2.64,2.72l-3.04-2.15c1.07-.99,1.89-1.83,2.48-2.52.58-.7,1.04-1.35,1.36-1.95.45-.87.7-1.62.77-2.25h-3.55c-3.11,0-5.62-1-7.53-3-1.75-1.8-2.62-4.13-2.62-6.98,0-3.04.84-5.47,2.52-7.27,1.85-1.95,4.4-2.93,7.65-2.94h.06c1.84,0,3.49.32,4.95.97,2.12.92,3.19,2.25,3.19,4v11.73h3.61v3.49h-4ZM176.24,154.44c0-.38-.31-.7-.93-.97-.81-.35-1.76-.53-2.84-.53h-.06c-1.77,0-3.15.53-4.14,1.58-1.11,1.16-1.66,2.88-1.66,5.16,0,2.07.57,3.69,1.71,4.85,1.06,1.1,2.55,1.64,4.49,1.64v.02h3.45v-11.75Z"/>
      <path class="cls-3" d="M196.72,169.67c-3.11,0-5.58-.95-7.39-2.86-.04.04-.2.2-.47.49-1.54,1.58-3.7,2.38-6.48,2.38v-3.49c1.37,0,2.38-.34,3.04-1.02.76-.78,1.14-1.91,1.14-3.37v-2.11c0-3.06.84-5.48,2.52-7.27,1.87-1.98,4.42-2.96,7.65-2.96s5.82.98,7.67,2.94c1.68,1.79,2.52,4.22,2.52,7.29,0,2.88-.7,5.05-2.11,6.5h4.3v3.49h-12.4ZM200.91,154.51c-.97-1.04-2.36-1.56-4.16-1.56s-3.15.52-4.12,1.56c-1.12,1.18-1.68,2.9-1.68,5.18,0,2.07.57,3.69,1.71,4.85,1.06,1.1,2.42,1.64,4.08,1.64s3.1-.54,4.14-1.6c1.14-1.16,1.71-2.79,1.71-4.89,0-2.3-.55-4.03-1.66-5.18Z"/>
      <path class="cls-3" d="M207.3,169.67v-3.49h1.68c1.1,0,1.98-.34,2.64-1.02.76-.78,1.14-1.91,1.14-3.37v-8.69h4.38v9.11c.07,1.25.44,2.22,1.12,2.92.68.69,1.54,1.04,2.58,1.04h1.77v3.49h-1.77c-2.48,0-4.44-.75-5.89-2.25-1.46,1.5-3.45,2.25-5.97,2.25h-1.68ZM212.5,148.44c0-.31.06-.6.18-.87s.28-.51.49-.71.44-.36.7-.48.54-.17.84-.17.58.06.85.17c.27.12.51.27.71.48s.36.44.48.71c.11.27.17.56.17.87s-.06.6-.17.86c-.12.26-.27.49-.48.69s-.44.35-.71.47c-.27.12-.56.17-.85.17s-.58-.06-.84-.17-.5-.27-.7-.47-.37-.43-.49-.69-.18-.55-.18-.86Z"/>
      <path class="cls-3" d="M234.38,153.1v9.8c0,1.79-.65,3.33-1.95,4.63-1.42,1.42-3.17,2.13-5.24,2.13h-6.82v-3.49h6.82c.68,0,1.29-.27,1.83-.81.66-.65.99-1.47.99-2.46v-9.8h4.36ZM223.64,147.81c0-.31.06-.6.18-.87.12-.27.28-.51.49-.71s.44-.36.7-.48c.26-.11.54-.17.84-.17s.58.06.85.17c.27.12.51.27.71.48.2.2.36.44.48.71.12.27.17.56.17.87s-.06.6-.17.86c-.12.26-.27.49-.48.69-.2.2-.44.35-.71.47-.27.12-.55.17-.85.17s-.58-.06-.84-.17c-.26-.11-.5-.27-.7-.47-.2-.2-.37-.43-.49-.69-.12-.26-.18-.55-.18-.86ZM228.94,147.81c0-.31.06-.6.18-.87.12-.27.28-.51.49-.71.2-.2.44-.36.71-.48.27-.11.56-.17.87-.17s.58.06.84.17c.26.12.49.27.69.48s.35.44.47.71c.12.27.17.56.17.87s-.06.6-.17.86c-.12.26-.27.49-.47.69-.2.2-.43.35-.69.47-.26.12-.54.17-.84.17-.31,0-.6-.06-.87-.17-.27-.11-.51-.27-.71-.47-.2-.2-.37-.43-.49-.69-.12-.26-.18-.55-.18-.86Z"/>
      <path class="cls-3" d="M266.67,158.77c-.05-3.3-.46-5.51-1.22-6.64l3.57-2.15c.51.85.84,1.61.97,2.27,1.25-1.84,3.55-2.77,6.9-2.8h11.27c3.25,0,5.8.99,7.65,2.96,1.68,1.79,2.52,4.21,2.52,7.27,0,2.86-.87,5.18-2.62,6.98-1.91,2-4.41,3-7.51,3h-18.05c-.45,1.22-1.18,2.35-2.21,3.41-2.23,2.29-5.17,3.43-8.81,3.43-3.19,0-5.91-1.16-8.14-3.49-2.04-2.11-3.07-4.86-3.07-8.24,0-.92.07-1.8.2-2.64.13-.84.39-1.76.77-2.76l3.57.91c-.31.85-.51,1.62-.61,2.29-.12.69-.18,1.42-.18,2.19,0,2.6.72,4.64,2.15,6.11,1.38,1.42,3.15,2.13,5.3,2.13s4.01-.7,5.38-2.09c1.43-1.48,2.15-3.53,2.15-6.15v-6.01ZM288.21,166.18c1.65,0,3-.55,4.06-1.64,1.14-1.16,1.71-2.78,1.71-4.85,0-2.27-.55-4-1.67-5.18-.99-1.04-2.37-1.56-4.14-1.56h-11.27c-1.77,0-3.15.52-4.14,1.56-1.11,1.18-1.66,2.9-1.66,5.18v6.5h17.11Z"/>
      <path class="cls-3" d="M312.33,169.67c-1.56-.05-2.75-.33-3.59-.81-.27,1.43-.81,2.9-1.6,4.41-.43.83-1.02,1.68-1.77,2.56-.68.81-1.56,1.72-2.64,2.72l-3.04-2.15c1.07-.99,1.89-1.83,2.48-2.52.58-.7,1.04-1.36,1.36-1.97.74-1.37,1.12-2.92,1.12-4.65,0-.28-.01-.58-.04-.89v-13.26h4.36v9.24c.08,1.18.45,2.11,1.12,2.8.68.69,1.54,1.04,2.58,1.04h1.75v3.49h-2.07Z"/>
      <path class="cls-3" d="M317.52,166.18c-1.42-1.48-2.13-3.64-2.13-6.5,0-3.06.84-5.48,2.52-7.27,1.87-1.98,4.42-2.96,7.65-2.96s5.82.98,7.67,2.94c1.68,1.79,2.52,4.22,2.52,7.29,0,2.88-.88,5.22-2.64,7.02-1.92,1.98-4.45,2.96-7.57,2.96h-12.97v-3.49h4.95ZM329.72,154.51c-.97-1.04-2.36-1.56-4.16-1.56s-3.15.52-4.12,1.56c-1.12,1.18-1.68,2.9-1.68,5.18,0,2.07.57,3.69,1.71,4.85,1.06,1.1,2.42,1.64,4.08,1.64s3.1-.54,4.14-1.6c1.14-1.16,1.71-2.79,1.71-4.89,0-2.3-.56-4.03-1.67-5.18ZM323.29,145.8c0-.31.06-.6.18-.87s.28-.51.49-.71.44-.36.7-.48.54-.17.84-.17.58.06.85.17c.27.12.51.27.71.48s.36.44.48.71c.11.27.17.56.17.87s-.06.6-.17.86c-.12.26-.27.49-.48.69s-.44.35-.71.47c-.27.12-.56.17-.85.17s-.58-.06-.84-.17-.5-.27-.7-.47-.37-.43-.49-.69-.18-.55-.18-.86Z"/>
    </g>
  </g>
  <g>
    <g>
      <path class="cls-2" d="M428.46,51.8c.18,2.79-.84,4.97-3.01,6.47-1.95,1.37-4.57,2.04-7.89,2.04-3.9,0-6.87-1.11-8.87-3.28-1.77-1.91-2.66-4.52-2.66-7.8,0-2.66.58-5.41,1.77-8.25l4.83-2.93c-1.73,3.86-2.62,7.31-2.62,10.37,0,5.1,2.62,8.11,7.54,8.07,2.13,0,3.63-.18,4.57-.58,1.77-.67,2.75-2.04,2.93-4.12-2.75-.22-4.57-1.33-5.45-3.37l1.95-3.99c1.11,2.79,2.26,3.72,5.1,3.72h1.82v3.64ZM416.8,66.12c0,1.24-1.02,2.31-2.31,2.31s-2.31-1.06-2.31-2.31,1.06-2.26,2.31-2.26,2.31,1.06,2.31,2.26ZM422.78,66.12c0,1.24-1.06,2.31-2.31,2.31s-2.31-1.06-2.31-2.31,1.02-2.26,2.31-2.26,2.31,1.06,2.31,2.26Z"/>
      <path class="cls-2" d="M436.12,51.8h-8.2v-3.72h8.2v3.72Z"/>
      <path class="cls-2" d="M443.26,51.8h-8.2v-3.72h8.2v3.72Z"/>
      <path class="cls-2" d="M450.4,51.8h-8.2v-3.72h8.2v3.72Z"/>
      <path class="cls-2" d="M488.79,51.8h-39.37v-3.72h5.23v-11.22l4.21-1.2v9.13c.58-2.22,1.55-4.3,2.84-6.21,2.79-4.26,6.65-6.43,11.57-6.56,4.3-.13,7.58,1.6,9.75,5.1,1.51,2.53,2.17,6.16,1.99,10.95h3.77v3.72ZM480.76,48.08c.09-.71.13-1.42.13-2.17,0-2.75-.53-5.01-1.64-6.83-1.37-2.13-3.33-3.19-5.9-3.19-3.15,0-5.99,1.51-8.6,4.52-2.35,2.62-3.59,5.14-3.77,7.67h19.77Z"/>
      <path class="cls-2" d="M527.31,51.8h-39.37v-3.72h5.23v-11.22l4.21-1.2v9.13c.58-2.22,1.55-4.3,2.84-6.21,2.79-4.26,6.65-6.43,11.57-6.56,4.3-.13,7.58,1.6,9.75,5.1,1.51,2.53,2.17,6.16,2,10.95h3.77v3.72ZM519.29,48.08c.09-.71.13-1.42.13-2.17,0-2.75-.53-5.01-1.64-6.83-1.37-2.13-3.32-3.19-5.9-3.19-3.15,0-5.99,1.51-8.6,4.52-2.35,2.62-3.59,5.14-3.77,7.67h19.78Z"/>
      <path class="cls-2" d="M556.08,51.8h-29.71v-3.64h19.91v-1.59c0-3.37-.31-5.81-.93-7.32-.98-2.48-2.93-3.72-5.85-3.72-2.44,0-4.66,1.15-6.74,3.41l-3.01-2.79c2.97-2.88,6.21-4.34,9.75-4.34,4.48,0,7.58,1.64,9.31,4.88,1.2,2.26,1.77,5.59,1.77,9.89v1.51h5.5v3.72ZM541.85,25.56c0,1.24-1.06,2.31-2.31,2.31s-2.35-1.06-2.35-2.31,1.06-2.26,2.35-2.26,2.31,1.02,2.31,2.26Z"/>
      <path class="cls-2" d="M573.32,51.8h-2.66c-2.62,0-4.66-.8-6.16-2.35-1.51,1.55-3.59,2.35-6.3,2.35h-3.19v-3.64h2.93c2.97,0,4.43-1.51,4.43-4.52v-10.6l4.17-1.24v11.97c0,2.93,1.46,4.39,4.39,4.39h2.39v3.64ZM563.61,25.56c0,1.24-1.06,2.31-2.31,2.31s-2.26-1.06-2.26-2.31.97-2.26,2.26-2.26,2.31,1.02,2.31,2.26ZM569.55,25.56c0,1.24-1.06,2.31-2.31,2.31s-2.26-1.06-2.26-2.31,1.06-2.26,2.26-2.26,2.31,1.02,2.31,2.26Z"/>
      <path class="cls-2" d="M583.43,43.96c0,2.26-.75,4.12-2.26,5.63-1.51,1.46-3.55,2.22-6.07,2.22h-2.84v-3.72h2.62c2.88,0,4.35-1.51,4.35-4.52v-19.02l4.21-1.24v20.66Z"/>
      <path class="cls-2" d="M591.45,51.8h-4.21v-27.27l4.21-1.33v28.6Z"/>
      <path class="cls-2" d="M658,51.8h-30.99c-.35,5.68-4.3,8.51-11.84,8.51-5.32,0-8.91-1.64-10.82-4.92-1.37-2.35-2-6.03-1.91-11.13l4.17-1.24v3.86c0,6.92,2.39,9.62,8.6,9.62,5.1,0,7.63-2,7.63-6.03v-13.21l4.21-1.29v12.1h8.87v-13.08l4.21-1.24v14.32h8.87v-15.03l4.21-1.24v16.27h4.79v3.72Z"/>
      <path class="cls-2" d="M665.17,51.8h-8.2v-3.72h8.2v3.72Z"/>
      <path class="cls-2" d="M683.03,51.8h-2.93c-2.57,0-4.61-.8-6.16-2.39-1.46,1.59-3.55,2.39-6.25,2.39h-3.59v-3.72h3.32c2.93,0,4.39-1.51,4.39-4.52v-19.02l4.21-1.33v20.57c0,2.88,1.46,4.3,4.34,4.3h2.66v3.72Z"/>
      <path class="cls-2" d="M711.63,51.8h-29.71v-3.64h19.91v-1.59c0-3.37-.31-5.81-.93-7.32-.97-2.48-2.93-3.72-5.85-3.72-2.44,0-4.66,1.15-6.74,3.41l-3.01-2.79c2.97-2.88,6.21-4.34,9.75-4.34,4.48,0,7.58,1.64,9.31,4.88,1.2,2.26,1.77,5.59,1.77,9.89v1.51h5.5v3.72ZM697.31,58.01c0,1.24-1.06,2.31-2.31,2.31s-2.31-1.06-2.31-2.31,1.06-2.26,2.31-2.26,2.31,1.02,2.31,2.26Z"/>
      <path class="cls-2" d="M740.97,51.8h-.58c-2.62,0-4.66-.93-6.07-2.79-1.06,3.72-4.34,5.9-8.6,5.9-4.04,0-7.27-1.95-8.47-5.32-1.29,1.46-3.1,2.22-5.5,2.22h-1.42v-3.72h1.15c3.15,0,4.92-1.42,5.28-4.26.75-5.19,3.72-7.76,8.96-7.76,2.88,0,5.01.66,6.43,2,1.29,1.2,2.08,3.15,2.48,5.76.49,2.88,2.31,4.34,5.45,4.34l.89-.09v3.72ZM730.38,45.46c0-3.95-1.55-5.9-4.65-5.9s-4.7,1.95-4.7,5.9,1.55,5.9,4.7,5.9,4.65-1.95,4.65-5.9Z"/>
      <path class="cls-2" d="M751.21,43.96c0,2.26-.75,4.12-2.26,5.63-1.51,1.46-3.55,2.22-6.07,2.22h-2.84v-3.72h2.62c2.88,0,4.35-1.51,4.35-4.52v-19.02l4.21-1.24v20.66Z"/>
      <path class="cls-2" d="M759.23,51.8h-4.21v-27.27l4.21-1.33v28.6Z"/>
      <path class="cls-2" d="M429.48,113.29h-2.88c-3.46,0-5.68-1.02-6.61-3.1-1.02,2.08-3.19,3.1-6.52,3.1-5.63,0-8.47-3.37-8.47-10.15s2.84-9.84,8.47-9.84h9v11.84c0,3.01,1.46,4.52,4.34,4.52h2.66v3.64ZM418.26,96.71h-4.52c-1.73,0-2.97.58-3.64,1.73-.58.93-.89,2.53-.89,4.7s.31,3.77.89,4.74c.67,1.2,1.91,1.77,3.64,1.77s2.97-.58,3.64-1.77c.58-.97.89-2.57.89-4.74v-6.43ZM414.4,87.04c0,1.24-1.06,2.31-2.35,2.31s-2.31-1.06-2.31-2.31,1.06-2.26,2.31-2.26,2.35,1.02,2.35,2.26ZM420.35,87.04c0,1.24-1.06,2.31-2.31,2.31s-2.26-1.06-2.26-2.31,1.02-2.26,2.26-2.26,2.31,1.02,2.31,2.26Z"/>
      <path class="cls-2" d="M436.61,113.29h-8.2v-3.72h8.2v3.72Z"/>
      <path class="cls-2" d="M443.75,113.29h-8.2v-3.72h8.2v3.72Z"/>
      <path class="cls-2" d="M450.89,113.29h-8.2v-3.72h8.2v3.72Z"/>
      <path class="cls-2" d="M468.13,113.29h-2.66c-2.62,0-4.66-.8-6.16-2.35-1.51,1.55-3.59,2.35-6.3,2.35h-3.19v-3.64h2.93c2.97,0,4.43-1.51,4.43-4.52v-10.6l4.17-1.24v11.97c0,2.93,1.46,4.39,4.39,4.39h2.39v3.64ZM458.64,119.5c0,1.24-1.06,2.31-2.31,2.31s-2.26-1.06-2.26-2.31.98-2.26,2.26-2.26,2.31,1.02,2.31,2.26ZM464.58,119.5c0,1.24-1.06,2.31-2.31,2.31s-2.26-1.06-2.26-2.31,1.02-2.26,2.26-2.26,2.31,1.02,2.31,2.26Z"/>
      <path class="cls-2" d="M478.81,105.44c0,2.26-.75,4.17-2.26,5.63-1.51,1.46-3.55,2.22-6.07,2.22h-3.41v-3.64h3.19c2.93,0,4.39-1.51,4.39-4.52v-10.6l4.17-1.24v12.15ZM476.15,119.5c0,1.24-1.06,2.31-2.31,2.31s-2.26-1.06-2.26-2.31,1.06-2.26,2.26-2.26,2.31,1.02,2.31,2.26Z"/>
      <path class="cls-2" d="M493.18,113.29h-4.7c-3.77,0-5.85-2.31-5.85-5.72v-21.55l4.21-1.33v22.75c0,1.42.71,2.13,2.17,2.13h4.17v3.72Z"/>
      <path class="cls-2" d="M510.38,113.29h-2.66c-2.62,0-4.66-.8-6.16-2.35-1.51,1.55-3.59,2.35-6.3,2.35h-3.19v-3.64h2.93c2.97,0,4.43-1.51,4.43-4.52v-10.6l4.17-1.24v11.97c0,2.93,1.46,4.39,4.39,4.39h2.39v3.64ZM504.04,119.54c0,1.24-1.02,2.31-2.26,2.31s-2.31-1.06-2.31-2.31,1.06-2.26,2.31-2.26,2.26,1.06,2.26,2.26Z"/>
      <path class="cls-2" d="M549.7,113.29h-40.3v-3.72h5.23v-11.22l4.21-1.2v12.41h8.78v-13.08l4.21-1.24v14.32h8.87v-15.03l4.21-1.24v16.27h4.79v3.72ZM528.82,87.04c0,1.24-1.06,2.31-2.31,2.31s-2.26-1.06-2.26-2.31,1.02-2.35,2.26-2.35,2.31,1.06,2.31,2.35ZM531.83,81.9c0,1.2-1.06,2.26-2.31,2.26s-2.31-1.06-2.31-2.26,1.06-2.31,2.31-2.31,2.31,1.06,2.31,2.31ZM534.8,87.04c0,1.24-1.06,2.31-2.31,2.31s-2.31-1.06-2.31-2.31,1.02-2.35,2.31-2.35,2.31,1.06,2.31,2.35Z"/>
      <path class="cls-2" d="M559.93,105.44c0,2.26-.75,4.12-2.26,5.63-1.51,1.46-3.55,2.22-6.07,2.22h-2.84v-3.72h2.62c2.88,0,4.35-1.51,4.35-4.52v-19.02l4.21-1.24v20.66Z"/>
      <path class="cls-2" d="M567.96,113.29h-4.21v-27.27l4.21-1.33v28.6Z"/>
      <path class="cls-2" d="M611.01,105.67c0,4.66-3.15,7.63-8.34,7.63h-15.74c-4.79,0-7.98-3.06-7.98-7.63v-4.48l4.17-4.26v8.29c0,2.88,1.46,4.34,4.39,4.34h14.94c2.97,0,4.43-1.46,4.43-4.34v-10.82l4.12-1.11v12.37ZM594.33,93.83c0,1.28-1.06,2.31-2.31,2.31s-2.26-1.02-2.26-2.31,1.02-2.31,2.26-2.31,2.31,1.06,2.31,2.31ZM600.27,93.83c0,1.28-1.06,2.31-2.3,2.31s-2.26-1.02-2.26-2.31,1.06-2.31,2.26-2.31,2.3,1.06,2.3,2.31Z"/>
      <path class="cls-2" d="M625.36,113.29h-4.7c-3.77,0-5.85-2.31-5.85-5.72v-21.55l4.21-1.33v22.75c0,1.42.71,2.13,2.17,2.13h4.17v3.72Z"/>
      <path class="cls-2" d="M632.45,113.29h-8.2v-3.72h8.2v3.72Z"/>
      <path class="cls-2" d="M649.7,113.29h-2.66c-2.62,0-4.66-.8-6.16-2.35-1.51,1.55-3.59,2.35-6.3,2.35h-3.19v-3.64h2.93c2.97,0,4.43-1.51,4.43-4.52v-10.6l4.17-1.24v11.97c0,2.93,1.46,4.39,4.39,4.39h2.39v3.64ZM640.21,119.5c0,1.24-1.06,2.31-2.31,2.31s-2.26-1.06-2.26-2.31.97-2.26,2.26-2.26,2.31,1.02,2.31,2.26ZM646.15,119.5c0,1.24-1.06,2.31-2.31,2.31s-2.26-1.06-2.26-2.31,1.02-2.26,2.26-2.26,2.31,1.02,2.31,2.26Z"/>
      <path class="cls-2" d="M673.2,113.29h-24.56v-3.72h5.06v-7.58c0-2.48.8-4.57,2.35-6.21,1.6-1.64,3.81-2.48,6.61-2.48,2.39,0,4.48.89,6.25,2.62l-3.1,2.84c-1.06-1.29-2.26-1.91-3.63-1.91-2.53,0-4.26,1.91-4.26,4.43v8.29h15.3v3.72Z"/>
      <path class="cls-2" d="M702.54,113.29h-.58c-2.62,0-4.66-.93-6.07-2.79-1.06,3.72-4.34,5.9-8.6,5.9-4.04,0-7.27-1.95-8.47-5.32-1.29,1.46-3.1,2.22-5.5,2.22h-1.42v-3.72h1.15c3.15,0,4.92-1.42,5.28-4.26.75-5.19,3.72-7.76,8.96-7.76,2.88,0,5.01.66,6.43,2,1.29,1.2,2.08,3.15,2.48,5.76.49,2.88,2.31,4.34,5.45,4.34l.89-.09v3.72ZM691.95,106.95c0-3.95-1.55-5.9-4.65-5.9s-4.7,1.95-4.7,5.9,1.55,5.9,4.7,5.9,4.65-1.95,4.65-5.9Z"/>
      <path class="cls-2" d="M731.31,113.29h-29.71v-3.64h19.91v-1.59c0-3.37-.31-5.81-.93-7.32-.98-2.48-2.93-3.72-5.85-3.72-2.44,0-4.66,1.15-6.74,3.41l-3.01-2.79c2.97-2.88,6.21-4.34,9.75-4.34,4.48,0,7.58,1.64,9.31,4.88,1.2,2.26,1.77,5.59,1.77,9.89v1.51h5.5v3.72ZM716.99,119.5c0,1.24-1.06,2.31-2.31,2.31s-2.31-1.06-2.31-2.31,1.06-2.26,2.31-2.26,2.31,1.02,2.31,2.26Z"/>
      <path class="cls-2" d="M749.17,113.29h-2.93c-2.57,0-4.61-.8-6.16-2.39-1.46,1.59-3.55,2.39-6.25,2.39h-3.59v-3.72h3.32c2.93,0,4.39-1.51,4.39-4.52v-19.02l4.21-1.33v20.57c0,2.88,1.46,4.3,4.34,4.3h2.66v3.72Z"/>
      <path class="cls-2" d="M759.24,105.44c0,2.26-.75,4.12-2.26,5.63-1.51,1.46-3.55,2.22-6.07,2.22h-2.84v-3.72h2.62c2.88,0,4.35-1.51,4.35-4.52v-19.02l4.21-1.24v20.66Z"/>
    </g>
    <g>
      <path class="cls-2" d="M416.89,152.59l-2.78.57c-.2-1.29-1.33-2.13-2.7-2.13s-2.23.78-2.23,1.7c0,.7.31,1.19,1.37,1.39l2.95.59c2.23.47,3.6,1.8,3.6,3.93,0,2.66-2.19,4.32-5.44,4.32-2.86,0-5.38-1.33-5.73-4.07l2.93-.59c.37,1.55,1.51,2.23,3.07,2.23s2.44-.76,2.44-1.74c0-.78-.37-1.25-1.6-1.49l-2.91-.55c-1.64-.35-3.6-1.25-3.6-3.93,0-2.46,2.01-4.17,5.22-4.17,2.78,0,4.89,1.51,5.42,3.95Z"/>
      <path class="cls-2" d="M430.64,157.56c0,3.21-2.41,5.4-5.01,5.4-1.39,0-2.52-.41-3.38-1.1v4.28h-2.7v-13.69h2.7v.82c.86-.72,1.98-1.13,3.38-1.13,2.6,0,5.01,2.21,5.01,5.42ZM428.02,157.56c0-1.88-1.23-3.07-2.86-3.07-1.45,0-2.91,1.19-2.91,3.07s1.45,3.05,2.91,3.05c1.64,0,2.86-1.17,2.86-3.05Z"/>
      <path class="cls-2" d="M442.32,158.28h-7.78c.27,1.47,1.31,2.37,2.56,2.37.8,0,1.8-.1,2.54-1.35l2.41.51c-.9,2.13-2.72,3.15-4.95,3.15-2.89,0-5.24-2.19-5.24-5.4s2.35-5.42,5.28-5.42c2.72,0,5.07,2.11,5.18,5.22v.92ZM434.62,156.37h4.93c-.35-1.31-1.33-1.88-2.41-1.88-1.02,0-2.19.61-2.52,1.88Z"/>
      <path class="cls-2" d="M451.63,158.5l2.5.63c-.57,2.33-2.68,3.83-5.12,3.83-2.99,0-5.46-2.19-5.46-5.4s2.48-5.42,5.46-5.42c2.37,0,4.44,1.47,5.12,3.76l-2.6.74c-.37-1.43-1.33-2.03-2.52-2.03-1.7,0-2.84,1.21-2.84,2.95s1.15,2.93,2.84,2.93c1.19,0,2.15-.57,2.62-1.98Z"/>
      <path class="cls-2" d="M459.3,149.39c0,.9-.7,1.58-1.64,1.58s-1.64-.68-1.64-1.58.68-1.62,1.64-1.62,1.64.76,1.64,1.62ZM456.31,162.65v-10.21h2.7v10.21h-2.7Z"/>
      <path class="cls-2" d="M472.29,162.65h-2.7v-.8c-.86.7-1.98,1.1-3.38,1.1-2.6,0-5.01-2.19-5.01-5.4s2.41-5.42,5.01-5.42c1.39,0,2.52.41,3.38,1.13v-.82h2.7v10.21ZM469.59,157.56c0-1.88-1.45-3.07-2.91-3.07-1.64,0-2.86,1.19-2.86,3.07s1.23,3.05,2.86,3.05c1.45,0,2.91-1.17,2.91-3.05Z"/>
      <path class="cls-2" d="M475.15,162.65v-14.73h2.7v14.73h-2.7Z"/>
      <path class="cls-2" d="M483.85,149.39c0,.9-.7,1.58-1.64,1.58s-1.64-.68-1.64-1.58.68-1.62,1.64-1.62,1.64.76,1.64,1.62ZM480.86,162.65v-10.21h2.7v10.21h-2.7Z"/>
      <path class="cls-2" d="M495.02,162.65h-9.06v-1.76l5.48-6.24h-5.34v-2.21h8.68v1.8l-5.48,6.2h5.73v2.21Z"/>
      <path class="cls-2" d="M506.6,158.28h-7.78c.27,1.47,1.31,2.37,2.56,2.37.8,0,1.8-.1,2.54-1.35l2.41.51c-.9,2.13-2.72,3.15-4.95,3.15-2.89,0-5.24-2.19-5.24-5.4s2.35-5.42,5.28-5.42c2.72,0,5.07,2.11,5.18,5.22v.92ZM498.91,156.37h4.93c-.35-1.31-1.33-1.88-2.41-1.88-1.02,0-2.19.61-2.52,1.88Z"/>
      <path class="cls-2" d="M518.92,162.65h-2.7v-.8c-.86.7-1.98,1.1-3.38,1.1-2.6,0-5.01-2.19-5.01-5.4s2.41-5.42,5.01-5.42c1.39,0,2.52.41,3.38,1.13v-5.34h2.7v14.73ZM516.22,157.56c0-1.88-1.45-3.07-2.91-3.07-1.64,0-2.86,1.19-2.86,3.07s1.23,3.05,2.86,3.05c1.45,0,2.91-1.17,2.91-3.05Z"/>
      <path class="cls-2" d="M537.39,156.92l2.7.55c-.68,3.52-3.46,5.48-6.75,5.48-4.03,0-7.2-3.13-7.2-7.16s3.17-7.16,7.2-7.16c3.29,0,6.06,1.99,6.75,5.28l-2.7.76c-.51-2.37-2.15-3.42-4.05-3.42-2.46,0-4.4,1.94-4.4,4.54s1.94,4.56,4.4,4.56c1.9,0,3.54-1.04,4.05-3.44Z"/>
      <path class="cls-2" d="M552.59,157.56c0,3.21-2.52,5.36-5.5,5.36s-5.57-2.15-5.57-5.36,2.52-5.36,5.57-5.36,5.5,2.15,5.5,5.36ZM549.97,157.56c0-1.9-1.47-3.05-2.88-3.05s-2.95,1.15-2.95,3.05,1.47,3.05,2.95,3.05,2.88-1.15,2.88-3.05Z"/>
      <path class="cls-2" d="M564.38,162.65h-2.7v-.92c-.8.8-1.86,1.23-3.21,1.23-2.46,0-4.09-1.76-4.09-4.3v-6.22h2.7v5.65c0,1.43.82,2.39,2.07,2.39,1.53,0,2.54-1.02,2.54-3.52v-4.52h2.7v10.21Z"/>
      <path class="cls-2" d="M577.25,156.43v6.22h-2.7v-5.65c0-1.43-.82-2.39-2.07-2.39-1.53,0-2.54,1.02-2.54,3.52v4.52h-2.7v-10.21h2.7v.92c.8-.8,1.86-1.23,3.21-1.23,2.46,0,4.09,1.76,4.09,4.3Z"/>
      <path class="cls-2" d="M587.11,158.5l2.5.63c-.57,2.33-2.68,3.83-5.12,3.83-2.99,0-5.46-2.19-5.46-5.4s2.48-5.42,5.46-5.42c2.37,0,4.44,1.47,5.12,3.76l-2.6.74c-.37-1.43-1.33-2.03-2.52-2.03-1.7,0-2.84,1.21-2.84,2.95s1.15,2.93,2.84,2.93c1.19,0,2.15-.57,2.62-1.98Z"/>
      <path class="cls-2" d="M594.78,149.39c0,.9-.7,1.58-1.64,1.58s-1.64-.68-1.64-1.58.68-1.62,1.64-1.62,1.64.76,1.64,1.62ZM591.79,162.65v-10.21h2.7v10.21h-2.7Z"/>
      <path class="cls-2" d="M597.5,162.65v-14.73h2.7v14.73h-2.7Z"/>
      <path class="cls-2" d="M614.36,152.44v2.21h-3.09v8h-2.7v-8h-1.56v-2.21h1.56v-.92c0-2.39,1.64-3.87,4.03-3.87.66,0,1.25.12,1.82.39l-.61,2.19c-.37-.12-.74-.18-1.02-.18-.88,0-1.51.51-1.51,1.47v.92h3.09Z"/>
      <path class="cls-2" d="M625.84,157.56c0,3.21-2.52,5.36-5.5,5.36s-5.57-2.15-5.57-5.36,2.52-5.36,5.57-5.36,5.5,2.15,5.5,5.36ZM623.22,157.56c0-1.9-1.47-3.05-2.88-3.05s-2.95,1.15-2.95,3.05,1.47,3.05,2.95,3.05,2.88-1.15,2.88-3.05Z"/>
      <path class="cls-2" d="M634.96,152.38l-.14,2.6h-.59c-2.5,0-3.64,1.53-3.64,4.38v3.29h-2.7v-10.21h2.7v1.86c.82-1.19,2-2,3.66-2,.27,0,.47,0,.72.08Z"/>
      <path class="cls-2" d="M648.61,162.65h-2.78v-4.34l-5.42-9.37h3.07l3.75,6.47,3.72-6.47h3.19l-5.52,9.33v4.38Z"/>
      <path class="cls-2" d="M663.56,157.56c0,3.21-2.52,5.36-5.5,5.36s-5.57-2.15-5.57-5.36,2.52-5.36,5.57-5.36,5.5,2.15,5.5,5.36ZM660.95,157.56c0-1.9-1.47-3.05-2.88-3.05s-2.95,1.15-2.95,3.05,1.47,3.05,2.95,3.05,2.88-1.15,2.88-3.05Z"/>
      <path class="cls-2" d="M675.35,162.65h-2.7v-.92c-.8.8-1.86,1.23-3.21,1.23-2.46,0-4.09-1.76-4.09-4.3v-6.22h2.7v5.65c0,1.43.82,2.39,2.07,2.39,1.54,0,2.54-1.02,2.54-3.52v-4.52h2.7v10.21Z"/>
      <path class="cls-2" d="M685.64,162.2c-1.06.57-1.8.76-2.66.76-2.42,0-4.01-1.27-4.01-4.07v-4.24h-2.19v-2.21h2.19v-3.09h2.7v3.09h3.33v2.21h-3.33v4.03c0,1.23.59,1.76,1.49,1.76.47,0,1.17-.2,1.7-.49l.78,2.25Z"/>
      <path class="cls-2" d="M697.1,156.43v6.22h-2.7v-5.65c0-1.43-.82-2.39-2.07-2.39-1.54,0-2.54,1.02-2.54,3.52v4.52h-2.7v-14.73h2.7v5.44c.8-.8,1.86-1.23,3.21-1.23,2.46,0,4.09,1.76,4.09,4.3Z"/>
      <path class="cls-2" d="M717.4,162.65h-2.33l-7.59-8.8v8.8h-2.78v-13.71h2.33l7.59,9.04v-9.04h2.78v13.71Z"/>
      <path class="cls-2" d="M733.82,154.65c.04.47.06.86.06,1.19,0,4.07-2.91,7.12-6.96,7.12s-7.28-3.13-7.28-7.16,3.17-7.16,7.2-7.16c2.88,0,5.61,1.35,6.59,4.13l-2.5.88c-1-1.92-2.6-2.39-4.09-2.39-2.46,0-4.38,1.96-4.38,4.54s1.98,4.56,4.54,4.56c2.09,0,3.64-1.23,4.11-3.17h-4.81v-2.54h7.51Z"/>
      <path class="cls-2" d="M749.97,155.82c0,3.99-3.17,7.14-7.22,7.14s-7.22-3.15-7.22-7.14,3.17-7.18,7.22-7.18,7.22,3.19,7.22,7.18ZM747.16,155.82c0-2.62-1.94-4.56-4.42-4.56s-4.42,1.94-4.42,4.56,1.94,4.52,4.42,4.52,4.42-1.9,4.42-4.52Z"/>
      <path class="cls-2" d="M753.87,159.4c.14,1.04,1.04,1.39,2.11,1.39,1,0,1.6-.45,1.6-1.02,0-.37-.25-.74-1.12-.92l-2.09-.43c-1.84-.39-2.88-1.43-2.88-2.91,0-1.96,1.6-3.38,4.17-3.38,2.42,0,4.09,1.25,4.44,3.03l-2.58.51c-.1-.82-.82-1.41-1.94-1.41s-1.39.53-1.39,1c0,.33.12.67.92.86l2.43.53c1.8.39,2.68,1.51,2.68,2.88,0,2.25-1.82,3.42-4.48,3.42-2.25,0-4.32-.88-4.58-3.01l2.72-.55Z"/>
    </g>
    <g>
      <path class="cls-1" d="M924.02,145.13h0c5.18,0,9.38-4.2,9.38-9.38v-23.87c0-5.18-4.2-9.38-9.38-9.38s-9.38,4.2-9.38,9.38v23.87c0,5.18,4.2,9.38,9.38,9.38"/>
      <path class="cls-1" d="M898.51,151.23h0c5.18,0,9.38-4.2,9.38-9.38v-43.8c0-5.18-4.2-9.38-9.38-9.38s-9.38,4.2-9.38,9.38v43.8c0,5.18,4.2,9.38,9.38,9.38"/>
      <path class="cls-4" d="M873.01,162.66h0c5.18,0,9.38-4.2,9.38-9.38v-81.7c0-5.18-4.2-9.38-9.38-9.38s-9.38,4.2-9.38,9.38v81.7c0,5.18,4.2,9.38,9.38,9.38"/>
      <path class="cls-4" d="M847.51,162.66h0c5.18,0,9.38-4.2,9.38-9.38V61.69c0-5.18-4.2-9.38-9.38-9.38s-9.38,4.2-9.38,9.38v91.58c0,5.18,4.2,9.38,9.38,9.38"/>
      <path class="cls-2" d="M796.5,112.42h0c5.18,0,9.38-4.2,9.38-9.38v-35.87c0-5.18-4.2-9.38-9.38-9.38s-9.38,4.2-9.38,9.38v35.87c0,5.18,4.2,9.38,9.38,9.38"/>
      <path class="cls-2" d="M805.62,44.77c0,5.09-4.13,9.21-9.21,9.21s-9.21-4.12-9.21-9.21,4.12-9.21,9.21-9.21,9.21,4.12,9.21,9.21"/>
      <path class="cls-2" d="M831.17,32.08c0,5.09-4.13,9.21-9.21,9.21s-9.21-4.12-9.21-9.21,4.12-9.21,9.21-9.21,9.21,4.13,9.21,9.21"/>
      <path class="cls-4" d="M856.73,39.4c0,5.09-4.13,9.21-9.21,9.21s-9.21-4.12-9.21-9.21,4.12-9.21,9.21-9.21,9.21,4.13,9.21,9.21"/>
      <path class="cls-4" d="M882.23,49.25c0,5.09-4.13,9.21-9.21,9.21s-9.21-4.12-9.21-9.21,4.12-9.21,9.21-9.21,9.21,4.13,9.21,9.21"/>
      <path class="cls-1" d="M907.9,75.8c0,5.09-4.13,9.21-9.21,9.21s-9.21-4.13-9.21-9.21,4.12-9.21,9.21-9.21,9.21,4.12,9.21,9.21"/>
      <path class="cls-1" d="M933.23,89.63c0,5.09-4.13,9.21-9.21,9.21s-9.21-4.13-9.21-9.21,4.12-9.21,9.21-9.21,9.21,4.12,9.21,9.21"/>
      <path class="cls-2" d="M822,141.91h0c5.18,0,9.38-4.2,9.38-9.38V54.5c0-5.18-4.2-9.38-9.38-9.38s-9.38,4.2-9.38,9.38v78.03c0,5.18,4.2,9.38,9.38,9.38"/>
    </g>
  </g>
</svg>