<?xml version="1.0" encoding="UTF-8"?>
<svg id="Layer_1" data-name="Layer 1" xmlns="http://www.w3.org/2000/svg" viewBox="0 0 398 417">
  <defs>
    <style>
      .cls-1 {
        fill: #263470;
      }

      .cls-2 {
        fill: #223f98;
        font-family: HacenMaghrebBd, 'Hacen Maghreb Bd';
        font-size: 49.54px;
      }

      .cls-3 {
        fill: #0f7fad;
      }

      .cls-4 {
        fill: #40af7a;
      }
    </style>
  </defs>
  <g>
    <path class="cls-1" d="M184.23,219.61c-22.55,0-40.89-18.34-40.89-40.89s18.34-40.89,40.89-40.89,40.89,18.34,40.89,40.89-18.34,40.89-40.89,40.89ZM184.23,159.16c-10.79,0-19.56,8.78-19.56,19.56s8.78,19.56,19.56,19.56,19.56-8.78,19.56-19.56-8.78-19.56-19.56-19.56Z"/>
    <rect class="cls-3" x="334.02" y="114.34" width="21.33" height="105.26" rx="10.66" ry="10.66"/>
    <path class="cls-1" d="M281.15,219.61h0c-21.77,0-40.5-17.8-40.48-39.58.02-31.07-24.59-57.02-54.85-57.85-15.4-.44-29.94,5.25-40.95,15.96-8.88,8.64-14.54,19.65-16.41,31.64-.8,5.11-5.32,8.82-10.49,8.82h0c-6.54,0-11.57-5.84-10.55-12.31,2.59-16.46,10.39-31.57,22.58-43.43,15.18-14.76,35.22-22.59,56.4-21.99,41.61,1.14,75.47,36.52,75.59,78.91.03,10.18,8.04,18.52,18.22,18.52h0c7.13,0,12.9-5.78,12.9-12.9v-37.04c0-5.89,4.77-10.66,10.66-10.66h0c5.89,0,10.66,4.77,10.66,10.66v37.98c0,18.39-14.91,33.29-33.29,33.29Z"/>
    <path class="cls-1" d="M39.51,240.93c-20.58.34-37.43-17.18-37.43-37.77v-44.14c0-5.89,4.77-10.66,10.66-10.66h0c5.89,0,10.66,4.77,10.66,10.66v44.57c0,7.86,5.64,14.88,13.44,15.88,9.44,1.21,17.51-6.14,17.51-15.34v-55.78h21.33v55.78c0,20.08-16.17,36.46-36.17,36.8Z"/>
    <rect class="cls-4" x="374.93" y="100.86" width="21.33" height="118.73" rx="10.66" ry="10.66"/>
    <path class="cls-1" d="M184.23,219.61h-84.68c-24.96,0-45.19-20.23-45.19-45.19v-62.9c0-5.89,4.77-10.66,10.66-10.66h0c5.89,0,10.66,4.77,10.66,10.66v62.9c0,13.18,10.68,23.86,23.86,23.86h84.68v21.33Z"/>
  </g>
  <text class="cls-2" transform="translate(0 303.81)"><tspan x="0" y="0">فرص تنموية شبابية</tspan></text>
</svg>