<?xml version="1.0" encoding="UTF-8"?>
<svg id="Layer_1" data-name="Layer 1" xmlns="http://www.w3.org/2000/svg" viewBox="0 0 532.48 167.71">
  <defs>
    <style>
      .cls-1 {
        fill: #42b07a;
      }

      .cls-2 {
        fill: #263370;
      }

      .cls-3 {
        fill: #0c7fae;
      }
    </style>
  </defs>
  <g>
    <path class="cls-2" d="M25.5,40.73c.18,2.79-.84,4.97-3.01,6.47-1.95,1.37-4.57,2.04-7.89,2.04-3.9,0-6.87-1.11-8.87-3.28-1.77-1.91-2.66-4.52-2.66-7.8,0-2.66.58-5.41,1.77-8.25l4.83-2.93c-1.73,3.86-2.62,7.31-2.62,10.37,0,5.1,2.62,8.11,7.54,8.07,2.13,0,3.63-.18,4.57-.58,1.77-.67,2.75-2.04,2.93-4.12-2.75-.22-4.57-1.33-5.45-3.37l1.95-3.99c1.11,2.79,2.26,3.72,5.1,3.72h1.82v3.64ZM13.84,55.05c0,1.24-1.02,2.31-2.31,2.31s-2.31-1.06-2.31-2.31,1.06-2.26,2.31-2.26,2.31,1.06,2.31,2.26ZM19.82,55.05c0,1.24-1.06,2.31-2.31,2.31s-2.31-1.06-2.31-2.31,1.02-2.26,2.31-2.26,2.31,1.06,2.31,2.26Z"/>
    <path class="cls-2" d="M33.16,40.73h-8.2v-3.72h8.2v3.72Z"/>
    <path class="cls-2" d="M40.3,40.73h-8.2v-3.72h8.2v3.72Z"/>
    <path class="cls-2" d="M47.44,40.73h-8.2v-3.72h8.2v3.72Z"/>
    <path class="cls-2" d="M85.83,40.73h-39.37v-3.72h5.23v-11.22l4.21-1.2v9.13c.58-2.22,1.55-4.3,2.84-6.21,2.79-4.26,6.65-6.43,11.57-6.56,4.3-.13,7.58,1.6,9.75,5.1,1.51,2.53,2.17,6.16,1.99,10.95h3.77v3.72ZM77.81,37c.09-.71.13-1.42.13-2.17,0-2.75-.53-5.01-1.64-6.83-1.37-2.13-3.33-3.19-5.9-3.19-3.15,0-5.99,1.51-8.6,4.52-2.35,2.62-3.59,5.14-3.77,7.67h19.77Z"/>
    <path class="cls-2" d="M124.35,40.73h-39.37v-3.72h5.23v-11.22l4.21-1.2v9.13c.58-2.22,1.55-4.3,2.84-6.21,2.79-4.26,6.65-6.43,11.57-6.56,4.3-.13,7.58,1.6,9.75,5.1,1.51,2.53,2.17,6.16,2,10.95h3.77v3.72ZM116.33,37c.09-.71.13-1.42.13-2.17,0-2.75-.53-5.01-1.64-6.83-1.37-2.13-3.32-3.19-5.9-3.19-3.15,0-5.99,1.51-8.6,4.52-2.35,2.62-3.59,5.14-3.77,7.67h19.78Z"/>
    <path class="cls-2" d="M153.12,40.73h-29.71v-3.64h19.91v-1.59c0-3.37-.31-5.81-.93-7.32-.98-2.48-2.93-3.72-5.85-3.72-2.44,0-4.66,1.15-6.74,3.41l-3.01-2.79c2.97-2.88,6.21-4.34,9.75-4.34,4.48,0,7.58,1.64,9.31,4.88,1.2,2.26,1.77,5.59,1.77,9.89v1.51h5.5v3.72ZM138.89,14.48c0,1.24-1.06,2.31-2.31,2.31s-2.35-1.06-2.35-2.31,1.06-2.26,2.35-2.26,2.31,1.02,2.31,2.26Z"/>
    <path class="cls-2" d="M170.36,40.73h-2.66c-2.62,0-4.66-.8-6.16-2.35-1.51,1.55-3.59,2.35-6.3,2.35h-3.19v-3.64h2.93c2.97,0,4.43-1.51,4.43-4.52v-10.6l4.17-1.24v11.97c0,2.93,1.46,4.39,4.39,4.39h2.39v3.64ZM160.65,14.48c0,1.24-1.06,2.31-2.31,2.31s-2.26-1.06-2.26-2.31.97-2.26,2.26-2.26,2.31,1.02,2.31,2.26ZM166.59,14.48c0,1.24-1.06,2.31-2.31,2.31s-2.26-1.06-2.26-2.31,1.06-2.26,2.26-2.26,2.31,1.02,2.31,2.26Z"/>
    <path class="cls-2" d="M180.47,32.88c0,2.26-.75,4.12-2.26,5.63-1.51,1.46-3.55,2.22-6.07,2.22h-2.84v-3.72h2.62c2.88,0,4.35-1.51,4.35-4.52V13.46l4.21-1.24v20.66Z"/>
    <path class="cls-2" d="M188.49,40.73h-4.21V13.46l4.21-1.33v28.6Z"/>
    <path class="cls-2" d="M255.04,40.73h-30.99c-.35,5.68-4.3,8.51-11.84,8.51-5.32,0-8.91-1.64-10.82-4.92-1.37-2.35-2-6.03-1.91-11.13l4.17-1.24v3.86c0,6.92,2.39,9.62,8.6,9.62,5.1,0,7.63-2,7.63-6.03v-13.21l4.21-1.29v12.1h8.87v-13.08l4.21-1.24v14.32h8.87v-15.03l4.21-1.24v16.27h4.79v3.72Z"/>
    <path class="cls-2" d="M262.21,40.73h-8.2v-3.72h8.2v3.72Z"/>
    <path class="cls-2" d="M280.07,40.73h-2.93c-2.57,0-4.61-.8-6.16-2.39-1.46,1.59-3.55,2.39-6.25,2.39h-3.59v-3.72h3.32c2.93,0,4.39-1.51,4.39-4.52V13.46l4.21-1.33v20.57c0,2.88,1.46,4.3,4.34,4.3h2.66v3.72Z"/>
    <path class="cls-2" d="M308.67,40.73h-29.71v-3.64h19.91v-1.59c0-3.37-.31-5.81-.93-7.32-.97-2.48-2.93-3.72-5.85-3.72-2.44,0-4.66,1.15-6.74,3.41l-3.01-2.79c2.97-2.88,6.21-4.34,9.75-4.34,4.48,0,7.58,1.64,9.31,4.88,1.2,2.26,1.77,5.59,1.77,9.89v1.51h5.5v3.72ZM294.35,46.93c0,1.24-1.06,2.31-2.31,2.31s-2.31-1.06-2.31-2.31,1.06-2.26,2.31-2.26,2.31,1.02,2.31,2.26Z"/>
    <path class="cls-2" d="M338.01,40.73h-.58c-2.62,0-4.66-.93-6.07-2.79-1.06,3.72-4.34,5.9-8.6,5.9-4.04,0-7.27-1.95-8.47-5.32-1.29,1.46-3.1,2.22-5.5,2.22h-1.42v-3.72h1.15c3.15,0,4.92-1.42,5.28-4.26.75-5.19,3.72-7.76,8.96-7.76,2.88,0,5.01.66,6.43,2,1.29,1.2,2.08,3.15,2.48,5.76.49,2.88,2.31,4.34,5.45,4.34l.89-.09v3.72ZM327.42,34.39c0-3.95-1.55-5.9-4.65-5.9s-4.7,1.95-4.7,5.9,1.55,5.9,4.7,5.9,4.65-1.95,4.65-5.9Z"/>
    <path class="cls-2" d="M348.25,32.88c0,2.26-.75,4.12-2.26,5.63-1.51,1.46-3.55,2.22-6.07,2.22h-2.84v-3.72h2.62c2.88,0,4.35-1.51,4.35-4.52V13.46l4.21-1.24v20.66Z"/>
    <path class="cls-2" d="M356.27,40.73h-4.21V13.46l4.21-1.33v28.6Z"/>
    <path class="cls-2" d="M26.52,102.22h-2.88c-3.46,0-5.68-1.02-6.61-3.1-1.02,2.08-3.19,3.1-6.52,3.1-5.63,0-8.47-3.37-8.47-10.15s2.84-9.84,8.47-9.84h9v11.84c0,3.01,1.46,4.52,4.34,4.52h2.66v3.64ZM15.3,85.63h-4.52c-1.73,0-2.97.58-3.64,1.73-.58.93-.89,2.53-.89,4.7s.31,3.77.89,4.74c.67,1.2,1.91,1.77,3.64,1.77s2.97-.58,3.64-1.77c.58-.97.89-2.57.89-4.74v-6.43ZM11.44,75.97c0,1.24-1.06,2.31-2.35,2.31s-2.31-1.06-2.31-2.31,1.06-2.26,2.31-2.26,2.35,1.02,2.35,2.26ZM17.39,75.97c0,1.24-1.06,2.31-2.31,2.31s-2.26-1.06-2.26-2.31,1.02-2.26,2.26-2.26,2.31,1.02,2.31,2.26Z"/>
    <path class="cls-2" d="M33.65,102.22h-8.2v-3.72h8.2v3.72Z"/>
    <path class="cls-2" d="M40.79,102.22h-8.2v-3.72h8.2v3.72Z"/>
    <path class="cls-2" d="M47.93,102.22h-8.2v-3.72h8.2v3.72Z"/>
    <path class="cls-2" d="M65.17,102.22h-2.66c-2.62,0-4.66-.8-6.16-2.35-1.51,1.55-3.59,2.35-6.3,2.35h-3.19v-3.64h2.93c2.97,0,4.43-1.51,4.43-4.52v-10.6l4.17-1.24v11.97c0,2.93,1.46,4.39,4.39,4.39h2.39v3.64ZM55.68,108.42c0,1.24-1.06,2.31-2.31,2.31s-2.26-1.06-2.26-2.31.98-2.26,2.26-2.26,2.31,1.02,2.31,2.26ZM61.62,108.42c0,1.24-1.06,2.31-2.31,2.31s-2.26-1.06-2.26-2.31,1.02-2.26,2.26-2.26,2.31,1.02,2.31,2.26Z"/>
    <path class="cls-2" d="M75.85,94.37c0,2.26-.75,4.17-2.26,5.63-1.51,1.46-3.55,2.22-6.07,2.22h-3.41v-3.64h3.19c2.93,0,4.39-1.51,4.39-4.52v-10.6l4.17-1.24v12.15ZM73.19,108.42c0,1.24-1.06,2.31-2.31,2.31s-2.26-1.06-2.26-2.31,1.06-2.26,2.26-2.26,2.31,1.02,2.31,2.26Z"/>
    <path class="cls-2" d="M90.22,102.22h-4.7c-3.77,0-5.85-2.31-5.85-5.72v-21.55l4.21-1.33v22.75c0,1.42.71,2.13,2.17,2.13h4.17v3.72Z"/>
    <path class="cls-2" d="M107.42,102.22h-2.66c-2.62,0-4.66-.8-6.16-2.35-1.51,1.55-3.59,2.35-6.3,2.35h-3.19v-3.64h2.93c2.97,0,4.43-1.51,4.43-4.52v-10.6l4.17-1.24v11.97c0,2.93,1.46,4.39,4.39,4.39h2.39v3.64ZM101.08,108.47c0,1.24-1.02,2.31-2.26,2.31s-2.31-1.06-2.31-2.31,1.06-2.26,2.31-2.26,2.26,1.06,2.26,2.26Z"/>
    <path class="cls-2" d="M146.74,102.22h-40.3v-3.72h5.23v-11.22l4.21-1.2v12.41h8.78v-13.08l4.21-1.24v14.32h8.87v-15.03l4.21-1.24v16.27h4.79v3.72ZM125.86,75.97c0,1.24-1.06,2.31-2.31,2.31s-2.26-1.06-2.26-2.31,1.02-2.35,2.26-2.35,2.31,1.06,2.31,2.35ZM128.87,70.83c0,1.2-1.06,2.26-2.31,2.26s-2.31-1.06-2.31-2.26,1.06-2.31,2.31-2.31,2.31,1.06,2.31,2.31ZM131.84,75.97c0,1.24-1.06,2.31-2.31,2.31s-2.31-1.06-2.31-2.31,1.02-2.35,2.31-2.35,2.31,1.06,2.31,2.35Z"/>
    <path class="cls-2" d="M156.97,94.37c0,2.26-.75,4.12-2.26,5.63-1.51,1.46-3.55,2.22-6.07,2.22h-2.84v-3.72h2.62c2.88,0,4.35-1.51,4.35-4.52v-19.02l4.21-1.24v20.66Z"/>
    <path class="cls-2" d="M165,102.22h-4.21v-27.27l4.21-1.33v28.6Z"/>
    <path class="cls-2" d="M208.05,94.59c0,4.66-3.15,7.63-8.34,7.63h-15.74c-4.79,0-7.98-3.06-7.98-7.63v-4.48l4.17-4.26v8.29c0,2.88,1.46,4.34,4.39,4.34h14.94c2.97,0,4.43-1.46,4.43-4.34v-10.82l4.12-1.11v12.37ZM191.37,82.75c0,1.28-1.06,2.31-2.31,2.31s-2.26-1.02-2.26-2.31,1.02-2.31,2.26-2.31,2.31,1.06,2.31,2.31ZM197.32,82.75c0,1.28-1.06,2.31-2.3,2.31s-2.26-1.02-2.26-2.31,1.06-2.31,2.26-2.31,2.3,1.06,2.3,2.31Z"/>
    <path class="cls-2" d="M222.4,102.22h-4.7c-3.77,0-5.85-2.31-5.85-5.72v-21.55l4.21-1.33v22.75c0,1.42.71,2.13,2.17,2.13h4.17v3.72Z"/>
    <path class="cls-2" d="M229.5,102.22h-8.2v-3.72h8.2v3.72Z"/>
    <path class="cls-2" d="M246.74,102.22h-2.66c-2.62,0-4.66-.8-6.16-2.35-1.51,1.55-3.59,2.35-6.3,2.35h-3.19v-3.64h2.93c2.97,0,4.43-1.51,4.43-4.52v-10.6l4.17-1.24v11.97c0,2.93,1.46,4.39,4.39,4.39h2.39v3.64ZM237.25,108.42c0,1.24-1.06,2.31-2.31,2.31s-2.26-1.06-2.26-2.31.97-2.26,2.26-2.26,2.31,1.02,2.31,2.26ZM243.19,108.42c0,1.24-1.06,2.31-2.31,2.31s-2.26-1.06-2.26-2.31,1.02-2.26,2.26-2.26,2.31,1.02,2.31,2.26Z"/>
    <path class="cls-2" d="M270.24,102.22h-24.56v-3.72h5.06v-7.58c0-2.48.8-4.57,2.35-6.21,1.6-1.64,3.81-2.48,6.61-2.48,2.39,0,4.48.89,6.25,2.62l-3.1,2.84c-1.06-1.29-2.26-1.91-3.63-1.91-2.53,0-4.26,1.91-4.26,4.43v8.29h15.3v3.72Z"/>
    <path class="cls-2" d="M299.58,102.22h-.58c-2.62,0-4.66-.93-6.07-2.79-1.06,3.72-4.34,5.9-8.6,5.9-4.04,0-7.27-1.95-8.47-5.32-1.29,1.46-3.1,2.22-5.5,2.22h-1.42v-3.72h1.15c3.15,0,4.92-1.42,5.28-4.26.75-5.19,3.72-7.76,8.96-7.76,2.88,0,5.01.66,6.43,2,1.29,1.2,2.08,3.15,2.48,5.76.49,2.88,2.31,4.34,5.45,4.34l.89-.09v3.72ZM288.99,95.88c0-3.95-1.55-5.9-4.65-5.9s-4.7,1.95-4.7,5.9,1.55,5.9,4.7,5.9,4.65-1.95,4.65-5.9Z"/>
    <path class="cls-2" d="M328.35,102.22h-29.71v-3.64h19.91v-1.59c0-3.37-.31-5.81-.93-7.32-.98-2.48-2.93-3.72-5.85-3.72-2.44,0-4.66,1.15-6.74,3.41l-3.01-2.79c2.97-2.88,6.21-4.34,9.75-4.34,4.48,0,7.58,1.64,9.31,4.88,1.2,2.26,1.77,5.59,1.77,9.89v1.51h5.5v3.72ZM314.03,108.42c0,1.24-1.06,2.31-2.31,2.31s-2.31-1.06-2.31-2.31,1.06-2.26,2.31-2.26,2.31,1.02,2.31,2.26Z"/>
    <path class="cls-2" d="M346.21,102.22h-2.93c-2.57,0-4.61-.8-6.16-2.39-1.46,1.59-3.55,2.39-6.25,2.39h-3.59v-3.72h3.32c2.93,0,4.39-1.51,4.39-4.52v-19.02l4.21-1.33v20.57c0,2.88,1.46,4.3,4.34,4.3h2.66v3.72Z"/>
    <path class="cls-2" d="M356.28,94.37c0,2.26-.75,4.12-2.26,5.63-1.51,1.46-3.55,2.22-6.07,2.22h-2.84v-3.72h2.62c2.88,0,4.35-1.51,4.35-4.52v-19.02l4.21-1.24v20.66Z"/>
  </g>
  <g>
    <path class="cls-2" d="M13.93,141.51l-2.78.57c-.2-1.29-1.33-2.13-2.7-2.13s-2.23.78-2.23,1.7c0,.7.31,1.19,1.37,1.39l2.95.59c2.23.47,3.6,1.8,3.6,3.93,0,2.66-2.19,4.32-5.44,4.32-2.86,0-5.38-1.33-5.73-4.07l2.93-.59c.37,1.55,1.51,2.23,3.07,2.23s2.44-.76,2.44-1.74c0-.78-.37-1.25-1.6-1.49l-2.91-.55c-1.64-.35-3.6-1.25-3.6-3.93,0-2.46,2.01-4.17,5.22-4.17,2.78,0,4.89,1.51,5.42,3.95Z"/>
    <path class="cls-2" d="M27.68,146.48c0,3.21-2.41,5.4-5.01,5.4-1.39,0-2.52-.41-3.38-1.1v4.28h-2.7v-13.69h2.7v.82c.86-.72,1.98-1.13,3.38-1.13,2.6,0,5.01,2.21,5.01,5.42ZM25.06,146.48c0-1.88-1.23-3.07-2.86-3.07-1.45,0-2.91,1.19-2.91,3.07s1.45,3.05,2.91,3.05c1.64,0,2.86-1.17,2.86-3.05Z"/>
    <path class="cls-2" d="M39.36,147.2h-7.78c.27,1.47,1.31,2.37,2.56,2.37.8,0,1.8-.1,2.54-1.35l2.41.51c-.9,2.13-2.72,3.15-4.95,3.15-2.89,0-5.24-2.19-5.24-5.4s2.35-5.42,5.28-5.42c2.72,0,5.07,2.11,5.18,5.22v.92ZM31.66,145.3h4.93c-.35-1.31-1.33-1.88-2.41-1.88-1.02,0-2.19.61-2.52,1.88Z"/>
    <path class="cls-2" d="M48.67,147.43l2.5.63c-.57,2.33-2.68,3.83-5.12,3.83-2.99,0-5.46-2.19-5.46-5.4s2.48-5.42,5.46-5.42c2.37,0,4.44,1.47,5.12,3.76l-2.6.74c-.37-1.43-1.33-2.03-2.52-2.03-1.7,0-2.84,1.21-2.84,2.95s1.15,2.93,2.84,2.93c1.19,0,2.15-.57,2.62-1.98Z"/>
    <path class="cls-2" d="M56.34,138.32c0,.9-.7,1.58-1.64,1.58s-1.64-.68-1.64-1.58.68-1.62,1.64-1.62,1.64.76,1.64,1.62ZM53.35,151.58v-10.21h2.7v10.21h-2.7Z"/>
    <path class="cls-2" d="M69.33,151.58h-2.7v-.8c-.86.7-1.98,1.1-3.38,1.1-2.6,0-5.01-2.19-5.01-5.4s2.41-5.42,5.01-5.42c1.39,0,2.52.41,3.38,1.13v-.82h2.7v10.21ZM66.63,146.48c0-1.88-1.45-3.07-2.91-3.07-1.64,0-2.86,1.19-2.86,3.07s1.23,3.05,2.86,3.05c1.45,0,2.91-1.17,2.91-3.05Z"/>
    <path class="cls-2" d="M72.19,151.58v-14.73h2.7v14.73h-2.7Z"/>
    <path class="cls-2" d="M80.89,138.32c0,.9-.7,1.58-1.64,1.58s-1.64-.68-1.64-1.58.68-1.62,1.64-1.62,1.64.76,1.64,1.62ZM77.9,151.58v-10.21h2.7v10.21h-2.7Z"/>
    <path class="cls-2" d="M92.06,151.58h-9.06v-1.76l5.48-6.24h-5.34v-2.21h8.68v1.8l-5.48,6.2h5.73v2.21Z"/>
    <path class="cls-2" d="M103.64,147.2h-7.78c.27,1.47,1.31,2.37,2.56,2.37.8,0,1.8-.1,2.54-1.35l2.41.51c-.9,2.13-2.72,3.15-4.95,3.15-2.89,0-5.24-2.19-5.24-5.4s2.35-5.42,5.28-5.42c2.72,0,5.07,2.11,5.18,5.22v.92ZM95.95,145.3h4.93c-.35-1.31-1.33-1.88-2.41-1.88-1.02,0-2.19.61-2.52,1.88Z"/>
    <path class="cls-2" d="M115.96,151.58h-2.7v-.8c-.86.7-1.98,1.1-3.38,1.1-2.6,0-5.01-2.19-5.01-5.4s2.41-5.42,5.01-5.42c1.39,0,2.52.41,3.38,1.13v-5.34h2.7v14.73ZM113.26,146.48c0-1.88-1.45-3.07-2.91-3.07-1.64,0-2.86,1.19-2.86,3.07s1.23,3.05,2.86,3.05c1.45,0,2.91-1.17,2.91-3.05Z"/>
    <path class="cls-2" d="M134.43,145.85l2.7.55c-.68,3.52-3.46,5.48-6.75,5.48-4.03,0-7.2-3.13-7.2-7.16s3.17-7.16,7.2-7.16c3.29,0,6.06,1.99,6.75,5.28l-2.7.76c-.51-2.37-2.15-3.42-4.05-3.42-2.46,0-4.4,1.94-4.4,4.54s1.94,4.56,4.4,4.56c1.9,0,3.54-1.04,4.05-3.44Z"/>
    <path class="cls-2" d="M149.63,146.48c0,3.21-2.52,5.36-5.5,5.36s-5.57-2.15-5.57-5.36,2.52-5.36,5.57-5.36,5.5,2.15,5.5,5.36ZM147.02,146.48c0-1.9-1.47-3.05-2.88-3.05s-2.95,1.15-2.95,3.05,1.47,3.05,2.95,3.05,2.88-1.15,2.88-3.05Z"/>
    <path class="cls-2" d="M161.42,151.58h-2.7v-.92c-.8.8-1.86,1.23-3.21,1.23-2.46,0-4.09-1.76-4.09-4.3v-6.22h2.7v5.65c0,1.43.82,2.39,2.07,2.39,1.53,0,2.54-1.02,2.54-3.52v-4.52h2.7v10.21Z"/>
    <path class="cls-2" d="M174.29,145.36v6.22h-2.7v-5.65c0-1.43-.82-2.39-2.07-2.39-1.53,0-2.54,1.02-2.54,3.52v4.52h-2.7v-10.21h2.7v.92c.8-.8,1.86-1.23,3.21-1.23,2.46,0,4.09,1.76,4.09,4.3Z"/>
    <path class="cls-2" d="M184.15,147.43l2.5.63c-.57,2.33-2.68,3.83-5.12,3.83-2.99,0-5.46-2.19-5.46-5.4s2.48-5.42,5.46-5.42c2.37,0,4.44,1.47,5.12,3.76l-2.6.74c-.37-1.43-1.33-2.03-2.52-2.03-1.7,0-2.84,1.21-2.84,2.95s1.15,2.93,2.84,2.93c1.19,0,2.15-.57,2.62-1.98Z"/>
    <path class="cls-2" d="M191.82,138.32c0,.9-.7,1.58-1.64,1.58s-1.64-.68-1.64-1.58.68-1.62,1.64-1.62,1.64.76,1.64,1.62ZM188.83,151.58v-10.21h2.7v10.21h-2.7Z"/>
    <path class="cls-2" d="M194.54,151.58v-14.73h2.7v14.73h-2.7Z"/>
    <path class="cls-2" d="M211.4,141.37v2.21h-3.09v8h-2.7v-8h-1.56v-2.21h1.56v-.92c0-2.39,1.64-3.87,4.03-3.87.66,0,1.25.12,1.82.39l-.61,2.19c-.37-.12-.74-.18-1.02-.18-.88,0-1.51.51-1.51,1.47v.92h3.09Z"/>
    <path class="cls-2" d="M222.88,146.48c0,3.21-2.52,5.36-5.5,5.36s-5.57-2.15-5.57-5.36,2.52-5.36,5.57-5.36,5.5,2.15,5.5,5.36ZM220.26,146.48c0-1.9-1.47-3.05-2.88-3.05s-2.95,1.15-2.95,3.05,1.47,3.05,2.95,3.05,2.88-1.15,2.88-3.05Z"/>
    <path class="cls-2" d="M232,141.31l-.14,2.6h-.59c-2.5,0-3.64,1.53-3.64,4.38v3.29h-2.7v-10.21h2.7v1.86c.82-1.19,2-2,3.66-2,.27,0,.47,0,.72.08Z"/>
    <path class="cls-2" d="M245.65,151.58h-2.78v-4.34l-5.42-9.37h3.07l3.75,6.47,3.72-6.47h3.19l-5.52,9.33v4.38Z"/>
    <path class="cls-2" d="M260.61,146.48c0,3.21-2.52,5.36-5.5,5.36s-5.57-2.15-5.57-5.36,2.52-5.36,5.57-5.36,5.5,2.15,5.5,5.36ZM257.99,146.48c0-1.9-1.47-3.05-2.88-3.05s-2.95,1.15-2.95,3.05,1.47,3.05,2.95,3.05,2.88-1.15,2.88-3.05Z"/>
    <path class="cls-2" d="M272.39,151.58h-2.7v-.92c-.8.8-1.86,1.23-3.21,1.23-2.46,0-4.09-1.76-4.09-4.3v-6.22h2.7v5.65c0,1.43.82,2.39,2.07,2.39,1.54,0,2.54-1.02,2.54-3.52v-4.52h2.7v10.21Z"/>
    <path class="cls-2" d="M282.68,151.13c-1.06.57-1.8.76-2.66.76-2.42,0-4.01-1.27-4.01-4.07v-4.24h-2.19v-2.21h2.19v-3.09h2.7v3.09h3.33v2.21h-3.33v4.03c0,1.23.59,1.76,1.49,1.76.47,0,1.17-.2,1.7-.49l.78,2.25Z"/>
    <path class="cls-2" d="M294.14,145.36v6.22h-2.7v-5.65c0-1.43-.82-2.39-2.07-2.39-1.54,0-2.54,1.02-2.54,3.52v4.52h-2.7v-14.73h2.7v5.44c.8-.8,1.86-1.23,3.21-1.23,2.46,0,4.09,1.76,4.09,4.3Z"/>
    <path class="cls-2" d="M314.44,151.58h-2.33l-7.59-8.8v8.8h-2.78v-13.71h2.33l7.59,9.04v-9.04h2.78v13.71Z"/>
    <path class="cls-2" d="M330.86,143.58c.04.47.06.86.06,1.19,0,4.07-2.91,7.12-6.96,7.12s-7.28-3.13-7.28-7.16,3.17-7.16,7.2-7.16c2.88,0,5.61,1.35,6.59,4.13l-2.5.88c-1-1.92-2.6-2.39-4.09-2.39-2.46,0-4.38,1.96-4.38,4.54s1.98,4.56,4.54,4.56c2.09,0,3.64-1.23,4.11-3.17h-4.81v-2.54h7.51Z"/>
    <path class="cls-2" d="M347.01,144.74c0,3.99-3.17,7.14-7.22,7.14s-7.22-3.15-7.22-7.14,3.17-7.18,7.22-7.18,7.22,3.19,7.22,7.18ZM344.2,144.74c0-2.62-1.94-4.56-4.42-4.56s-4.42,1.94-4.42,4.56,1.94,4.52,4.42,4.52,4.42-1.9,4.42-4.52Z"/>
    <path class="cls-2" d="M350.91,148.32c.14,1.04,1.04,1.39,2.11,1.39,1,0,1.6-.45,1.6-1.02,0-.37-.25-.74-1.12-.92l-2.09-.43c-1.84-.39-2.88-1.43-2.88-2.91,0-1.96,1.6-3.38,4.17-3.38,2.42,0,4.09,1.25,4.44,3.03l-2.58.51c-.1-.82-.82-1.41-1.94-1.41s-1.39.53-1.39,1c0,.33.12.67.92.86l2.43.53c1.8.39,2.68,1.51,2.68,2.88,0,2.25-1.82,3.42-4.48,3.42-2.25,0-4.32-.88-4.58-3.01l2.72-.55Z"/>
  </g>
  <g>
    <path class="cls-1" d="M521.06,134.05h0c5.18,0,9.38-4.2,9.38-9.38v-23.87c0-5.18-4.2-9.38-9.38-9.38s-9.38,4.2-9.38,9.38v23.87c0,5.18,4.2,9.38,9.38,9.38"/>
    <path class="cls-1" d="M495.55,140.16h0c5.18,0,9.38-4.2,9.38-9.38v-43.8c0-5.18-4.2-9.38-9.38-9.38s-9.38,4.2-9.38,9.38v43.8c0,5.18,4.2,9.38,9.38,9.38"/>
    <path class="cls-3" d="M470.05,151.58h0c5.18,0,9.38-4.2,9.38-9.38V60.5c0-5.18-4.2-9.38-9.38-9.38s-9.38,4.2-9.38,9.38v81.7c0,5.18,4.2,9.38,9.38,9.38"/>
    <path class="cls-3" d="M444.55,151.58h0c5.18,0,9.38-4.2,9.38-9.38V50.62c0-5.18-4.2-9.38-9.38-9.38s-9.38,4.2-9.38,9.38v91.58c0,5.18,4.2,9.38,9.38,9.38"/>
    <path class="cls-2" d="M393.54,101.35h0c5.18,0,9.38-4.2,9.38-9.38v-35.87c0-5.18-4.2-9.38-9.38-9.38s-9.38,4.2-9.38,9.38v35.87c0,5.18,4.2,9.38,9.38,9.38"/>
    <path class="cls-2" d="M402.66,33.69c0,5.09-4.13,9.21-9.21,9.21s-9.21-4.12-9.21-9.21,4.12-9.21,9.21-9.21,9.21,4.12,9.21,9.21"/>
    <path class="cls-2" d="M428.21,21c0,5.09-4.13,9.21-9.21,9.21s-9.21-4.12-9.21-9.21,4.12-9.21,9.21-9.21,9.21,4.13,9.21,9.21"/>
    <path class="cls-3" d="M453.77,28.33c0,5.09-4.13,9.21-9.21,9.21s-9.21-4.12-9.21-9.21,4.12-9.21,9.21-9.21,9.21,4.13,9.21,9.21"/>
    <path class="cls-3" d="M479.27,38.17c0,5.09-4.13,9.21-9.21,9.21s-9.21-4.12-9.21-9.21,4.12-9.21,9.21-9.21,9.21,4.13,9.21,9.21"/>
    <path class="cls-1" d="M504.94,64.72c0,5.09-4.13,9.21-9.21,9.21s-9.21-4.13-9.21-9.21,4.12-9.21,9.21-9.21,9.21,4.12,9.21,9.21"/>
    <path class="cls-1" d="M530.27,78.55c0,5.09-4.13,9.21-9.21,9.21s-9.21-4.13-9.21-9.21,4.12-9.21,9.21-9.21,9.21,4.12,9.21,9.21"/>
    <path class="cls-2" d="M419.04,130.84h0c5.18,0,9.38-4.2,9.38-9.38V43.43c0-5.18-4.2-9.38-9.38-9.38s-9.38,4.2-9.38,9.38v78.03c0,5.18,4.2,9.38,9.38,9.38"/>
  </g>
</svg>